<?xml version="1.0" encoding="UTF-8" standalone="no"?>
<!DOCTYPE svg PUBLIC "-//W3C//DTD SVG 1.1//EN"
 "http://www.w3.org/Graphics/SVG/1.1/DTD/svg11.dtd">
<!-- Generated by graphviz version 2.38.0 (20140413.2041)
 -->
<!-- Title: G Pages: 1 -->
<svg width="392pt" height="1207pt"
 viewBox="0.00 0.00 392.00 1207.00" xmlns="http://www.w3.org/2000/svg" xmlns:xlink="http://www.w3.org/1999/xlink">
<g id="graph0" class="graph" transform="scale(1 1) rotate(0) translate(4 1203)">
<title>G</title>
<polygon fill="white" stroke="none" points="-4,4 -4,-1203 388,-1203 388,4 -4,4"/>
<!-- 1915212239312 -->
<g id="node1" class="node"><title>1915212239312</title>
<polygon fill="none" stroke="black" points="38,-1079.5 38,-1125.5 346,-1125.5 346,-1079.5 38,-1079.5"/>
<text text-anchor="middle" x="101.5" y="-1098.8" font-family="Times New Roman,serif" font-size="14.00">conv2d_1: Conv2D</text>
<polyline fill="none" stroke="black" points="165,-1079.5 165,-1125.5 "/>
<text text-anchor="middle" x="193" y="-1110.3" font-family="Times New Roman,serif" font-size="14.00">input:</text>
<polyline fill="none" stroke="black" points="165,-1102.5 221,-1102.5 "/>
<text text-anchor="middle" x="193" y="-1087.3" font-family="Times New Roman,serif" font-size="14.00">output:</text>
<polyline fill="none" stroke="black" points="221,-1079.5 221,-1125.5 "/>
<text text-anchor="middle" x="283.5" y="-1110.3" font-family="Times New Roman,serif" font-size="14.00">(None, 256, 256, 3)</text>
<polyline fill="none" stroke="black" points="221,-1102.5 346,-1102.5 "/>
<text text-anchor="middle" x="283.5" y="-1087.3" font-family="Times New Roman,serif" font-size="14.00">(None, 62, 62, 24)</text>
</g>
<!-- 1915212241048 -->
<g id="node2" class="node"><title>1915212241048</title>
<polygon fill="none" stroke="black" points="0,-996.5 0,-1042.5 384,-1042.5 384,-996.5 0,-996.5"/>
<text text-anchor="middle" x="104.5" y="-1015.8" font-family="Times New Roman,serif" font-size="14.00">max_pooling2d_1: MaxPooling2D</text>
<polyline fill="none" stroke="black" points="209,-996.5 209,-1042.5 "/>
<text text-anchor="middle" x="237" y="-1027.3" font-family="Times New Roman,serif" font-size="14.00">input:</text>
<polyline fill="none" stroke="black" points="209,-1019.5 265,-1019.5 "/>
<text text-anchor="middle" x="237" y="-1004.3" font-family="Times New Roman,serif" font-size="14.00">output:</text>
<polyline fill="none" stroke="black" points="265,-996.5 265,-1042.5 "/>
<text text-anchor="middle" x="324.5" y="-1027.3" font-family="Times New Roman,serif" font-size="14.00">(None, 62, 62, 24)</text>
<polyline fill="none" stroke="black" points="265,-1019.5 384,-1019.5 "/>
<text text-anchor="middle" x="324.5" y="-1004.3" font-family="Times New Roman,serif" font-size="14.00">(None, 30, 30, 24)</text>
</g>
<!-- 1915212239312&#45;&gt;1915212241048 -->
<g id="edge2" class="edge"><title>1915212239312&#45;&gt;1915212241048</title>
<path fill="none" stroke="black" d="M192,-1079.37C192,-1071.15 192,-1061.66 192,-1052.73"/>
<polygon fill="black" stroke="black" points="195.5,-1052.61 192,-1042.61 188.5,-1052.61 195.5,-1052.61"/>
</g>
<!-- 1915212397648 -->
<g id="node3" class="node"><title>1915212397648</title>
<polygon fill="none" stroke="black" points="41,-913.5 41,-959.5 343,-959.5 343,-913.5 41,-913.5"/>
<text text-anchor="middle" x="104.5" y="-932.8" font-family="Times New Roman,serif" font-size="14.00">conv2d_2: Conv2D</text>
<polyline fill="none" stroke="black" points="168,-913.5 168,-959.5 "/>
<text text-anchor="middle" x="196" y="-944.3" font-family="Times New Roman,serif" font-size="14.00">input:</text>
<polyline fill="none" stroke="black" points="168,-936.5 224,-936.5 "/>
<text text-anchor="middle" x="196" y="-921.3" font-family="Times New Roman,serif" font-size="14.00">output:</text>
<polyline fill="none" stroke="black" points="224,-913.5 224,-959.5 "/>
<text text-anchor="middle" x="283.5" y="-944.3" font-family="Times New Roman,serif" font-size="14.00">(None, 30, 30, 24)</text>
<polyline fill="none" stroke="black" points="224,-936.5 343,-936.5 "/>
<text text-anchor="middle" x="283.5" y="-921.3" font-family="Times New Roman,serif" font-size="14.00">(None, 30, 30, 64)</text>
</g>
<!-- 1915212241048&#45;&gt;1915212397648 -->
<g id="edge3" class="edge"><title>1915212241048&#45;&gt;1915212397648</title>
<path fill="none" stroke="black" d="M192,-996.366C192,-988.152 192,-978.658 192,-969.725"/>
<polygon fill="black" stroke="black" points="195.5,-969.607 192,-959.607 188.5,-969.607 195.5,-969.607"/>
</g>
<!-- 1915212539048 -->
<g id="node4" class="node"><title>1915212539048</title>
<polygon fill="none" stroke="black" points="0,-830.5 0,-876.5 384,-876.5 384,-830.5 0,-830.5"/>
<text text-anchor="middle" x="104.5" y="-849.8" font-family="Times New Roman,serif" font-size="14.00">max_pooling2d_2: MaxPooling2D</text>
<polyline fill="none" stroke="black" points="209,-830.5 209,-876.5 "/>
<text text-anchor="middle" x="237" y="-861.3" font-family="Times New Roman,serif" font-size="14.00">input:</text>
<polyline fill="none" stroke="black" points="209,-853.5 265,-853.5 "/>
<text text-anchor="middle" x="237" y="-838.3" font-family="Times New Roman,serif" font-size="14.00">output:</text>
<polyline fill="none" stroke="black" points="265,-830.5 265,-876.5 "/>
<text text-anchor="middle" x="324.5" y="-861.3" font-family="Times New Roman,serif" font-size="14.00">(None, 30, 30, 64)</text>
<polyline fill="none" stroke="black" points="265,-853.5 384,-853.5 "/>
<text text-anchor="middle" x="324.5" y="-838.3" font-family="Times New Roman,serif" font-size="14.00">(None, 14, 14, 64)</text>
</g>
<!-- 1915212397648&#45;&gt;1915212539048 -->
<g id="edge4" class="edge"><title>1915212397648&#45;&gt;1915212539048</title>
<path fill="none" stroke="black" d="M192,-913.366C192,-905.152 192,-895.658 192,-886.725"/>
<polygon fill="black" stroke="black" points="195.5,-886.607 192,-876.607 188.5,-886.607 195.5,-886.607"/>
</g>
<!-- 1915212538432 -->
<g id="node5" class="node"><title>1915212538432</title>
<polygon fill="none" stroke="black" points="41,-747.5 41,-793.5 343,-793.5 343,-747.5 41,-747.5"/>
<text text-anchor="middle" x="104.5" y="-766.8" font-family="Times New Roman,serif" font-size="14.00">conv2d_3: Conv2D</text>
<polyline fill="none" stroke="black" points="168,-747.5 168,-793.5 "/>
<text text-anchor="middle" x="196" y="-778.3" font-family="Times New Roman,serif" font-size="14.00">input:</text>
<polyline fill="none" stroke="black" points="168,-770.5 224,-770.5 "/>
<text text-anchor="middle" x="196" y="-755.3" font-family="Times New Roman,serif" font-size="14.00">output:</text>
<polyline fill="none" stroke="black" points="224,-747.5 224,-793.5 "/>
<text text-anchor="middle" x="283.5" y="-778.3" font-family="Times New Roman,serif" font-size="14.00">(None, 14, 14, 64)</text>
<polyline fill="none" stroke="black" points="224,-770.5 343,-770.5 "/>
<text text-anchor="middle" x="283.5" y="-755.3" font-family="Times New Roman,serif" font-size="14.00">(None, 14, 14, 96)</text>
</g>
<!-- 1915212539048&#45;&gt;1915212538432 -->
<g id="edge5" class="edge"><title>1915212539048&#45;&gt;1915212538432</title>
<path fill="none" stroke="black" d="M192,-830.366C192,-822.152 192,-812.658 192,-803.725"/>
<polygon fill="black" stroke="black" points="195.5,-803.607 192,-793.607 188.5,-803.607 195.5,-803.607"/>
</g>
<!-- 1915212602392 -->
<g id="node6" class="node"><title>1915212602392</title>
<polygon fill="none" stroke="black" points="41,-664.5 41,-710.5 343,-710.5 343,-664.5 41,-664.5"/>
<text text-anchor="middle" x="104.5" y="-683.8" font-family="Times New Roman,serif" font-size="14.00">conv2d_4: Conv2D</text>
<polyline fill="none" stroke="black" points="168,-664.5 168,-710.5 "/>
<text text-anchor="middle" x="196" y="-695.3" font-family="Times New Roman,serif" font-size="14.00">input:</text>
<polyline fill="none" stroke="black" points="168,-687.5 224,-687.5 "/>
<text text-anchor="middle" x="196" y="-672.3" font-family="Times New Roman,serif" font-size="14.00">output:</text>
<polyline fill="none" stroke="black" points="224,-664.5 224,-710.5 "/>
<text text-anchor="middle" x="283.5" y="-695.3" font-family="Times New Roman,serif" font-size="14.00">(None, 14, 14, 96)</text>
<polyline fill="none" stroke="black" points="224,-687.5 343,-687.5 "/>
<text text-anchor="middle" x="283.5" y="-672.3" font-family="Times New Roman,serif" font-size="14.00">(None, 14, 14, 96)</text>
</g>
<!-- 1915212538432&#45;&gt;1915212602392 -->
<g id="edge6" class="edge"><title>1915212538432&#45;&gt;1915212602392</title>
<path fill="none" stroke="black" d="M192,-747.366C192,-739.152 192,-729.658 192,-720.725"/>
<polygon fill="black" stroke="black" points="195.5,-720.607 192,-710.607 188.5,-720.607 195.5,-720.607"/>
</g>
<!-- 1915212699016 -->
<g id="node7" class="node"><title>1915212699016</title>
<polygon fill="none" stroke="black" points="41,-581.5 41,-627.5 343,-627.5 343,-581.5 41,-581.5"/>
<text text-anchor="middle" x="104.5" y="-600.8" font-family="Times New Roman,serif" font-size="14.00">conv2d_5: Conv2D</text>
<polyline fill="none" stroke="black" points="168,-581.5 168,-627.5 "/>
<text text-anchor="middle" x="196" y="-612.3" font-family="Times New Roman,serif" font-size="14.00">input:</text>
<polyline fill="none" stroke="black" points="168,-604.5 224,-604.5 "/>
<text text-anchor="middle" x="196" y="-589.3" font-family="Times New Roman,serif" font-size="14.00">output:</text>
<polyline fill="none" stroke="black" points="224,-581.5 224,-627.5 "/>
<text text-anchor="middle" x="283.5" y="-612.3" font-family="Times New Roman,serif" font-size="14.00">(None, 14, 14, 96)</text>
<polyline fill="none" stroke="black" points="224,-604.5 343,-604.5 "/>
<text text-anchor="middle" x="283.5" y="-589.3" font-family="Times New Roman,serif" font-size="14.00">(None, 14, 14, 64)</text>
</g>
<!-- 1915212602392&#45;&gt;1915212699016 -->
<g id="edge7" class="edge"><title>1915212602392&#45;&gt;1915212699016</title>
<path fill="none" stroke="black" d="M192,-664.366C192,-656.152 192,-646.658 192,-637.725"/>
<polygon fill="black" stroke="black" points="195.5,-637.607 192,-627.607 188.5,-637.607 195.5,-637.607"/>
</g>
<!-- 1915212791704 -->
<g id="node8" class="node"><title>1915212791704</title>
<polygon fill="none" stroke="black" points="0,-498.5 0,-544.5 384,-544.5 384,-498.5 0,-498.5"/>
<text text-anchor="middle" x="104.5" y="-517.8" font-family="Times New Roman,serif" font-size="14.00">max_pooling2d_3: MaxPooling2D</text>
<polyline fill="none" stroke="black" points="209,-498.5 209,-544.5 "/>
<text text-anchor="middle" x="237" y="-529.3" font-family="Times New Roman,serif" font-size="14.00">input:</text>
<polyline fill="none" stroke="black" points="209,-521.5 265,-521.5 "/>
<text text-anchor="middle" x="237" y="-506.3" font-family="Times New Roman,serif" font-size="14.00">output:</text>
<polyline fill="none" stroke="black" points="265,-498.5 265,-544.5 "/>
<text text-anchor="middle" x="324.5" y="-529.3" font-family="Times New Roman,serif" font-size="14.00">(None, 14, 14, 64)</text>
<polyline fill="none" stroke="black" points="265,-521.5 384,-521.5 "/>
<text text-anchor="middle" x="324.5" y="-506.3" font-family="Times New Roman,serif" font-size="14.00">(None, 6, 6, 64)</text>
</g>
<!-- 1915212699016&#45;&gt;1915212791704 -->
<g id="edge8" class="edge"><title>1915212699016&#45;&gt;1915212791704</title>
<path fill="none" stroke="black" d="M192,-581.366C192,-573.152 192,-563.658 192,-554.725"/>
<polygon fill="black" stroke="black" points="195.5,-554.607 192,-544.607 188.5,-554.607 195.5,-554.607"/>
</g>
<!-- 1915212240600 -->
<g id="node9" class="node"><title>1915212240600</title>
<polygon fill="none" stroke="black" points="57,-415.5 57,-461.5 327,-461.5 327,-415.5 57,-415.5"/>
<text text-anchor="middle" x="111.5" y="-434.8" font-family="Times New Roman,serif" font-size="14.00">flatten_1: Flatten</text>
<polyline fill="none" stroke="black" points="166,-415.5 166,-461.5 "/>
<text text-anchor="middle" x="194" y="-446.3" font-family="Times New Roman,serif" font-size="14.00">input:</text>
<polyline fill="none" stroke="black" points="166,-438.5 222,-438.5 "/>
<text text-anchor="middle" x="194" y="-423.3" font-family="Times New Roman,serif" font-size="14.00">output:</text>
<polyline fill="none" stroke="black" points="222,-415.5 222,-461.5 "/>
<text text-anchor="middle" x="274.5" y="-446.3" font-family="Times New Roman,serif" font-size="14.00">(None, 6, 6, 64)</text>
<polyline fill="none" stroke="black" points="222,-438.5 327,-438.5 "/>
<text text-anchor="middle" x="274.5" y="-423.3" font-family="Times New Roman,serif" font-size="14.00">(None, 2304)</text>
</g>
<!-- 1915212791704&#45;&gt;1915212240600 -->
<g id="edge9" class="edge"><title>1915212791704&#45;&gt;1915212240600</title>
<path fill="none" stroke="black" d="M192,-498.366C192,-490.152 192,-480.658 192,-471.725"/>
<polygon fill="black" stroke="black" points="195.5,-471.607 192,-461.607 188.5,-471.607 195.5,-471.607"/>
</g>
<!-- 1915212868520 -->
<g id="node10" class="node"><title>1915212868520</title>
<polygon fill="none" stroke="black" points="67,-332.5 67,-378.5 317,-378.5 317,-332.5 67,-332.5"/>
<text text-anchor="middle" x="119" y="-351.8" font-family="Times New Roman,serif" font-size="14.00">dense_1: Dense</text>
<polyline fill="none" stroke="black" points="171,-332.5 171,-378.5 "/>
<text text-anchor="middle" x="199" y="-363.3" font-family="Times New Roman,serif" font-size="14.00">input:</text>
<polyline fill="none" stroke="black" points="171,-355.5 227,-355.5 "/>
<text text-anchor="middle" x="199" y="-340.3" font-family="Times New Roman,serif" font-size="14.00">output:</text>
<polyline fill="none" stroke="black" points="227,-332.5 227,-378.5 "/>
<text text-anchor="middle" x="272" y="-363.3" font-family="Times New Roman,serif" font-size="14.00">(None, 2304)</text>
<polyline fill="none" stroke="black" points="227,-355.5 317,-355.5 "/>
<text text-anchor="middle" x="272" y="-340.3" font-family="Times New Roman,serif" font-size="14.00">(None, 128)</text>
</g>
<!-- 1915212240600&#45;&gt;1915212868520 -->
<g id="edge10" class="edge"><title>1915212240600&#45;&gt;1915212868520</title>
<path fill="none" stroke="black" d="M192,-415.366C192,-407.152 192,-397.658 192,-388.725"/>
<polygon fill="black" stroke="black" points="195.5,-388.607 192,-378.607 188.5,-388.607 195.5,-388.607"/>
</g>
<!-- 1915212959584 -->
<g id="node11" class="node"><title>1915212959584</title>
<polygon fill="none" stroke="black" points="57.5,-249.5 57.5,-295.5 326.5,-295.5 326.5,-249.5 57.5,-249.5"/>
<text text-anchor="middle" x="122.5" y="-268.8" font-family="Times New Roman,serif" font-size="14.00">dropout_1: Dropout</text>
<polyline fill="none" stroke="black" points="187.5,-249.5 187.5,-295.5 "/>
<text text-anchor="middle" x="215.5" y="-280.3" font-family="Times New Roman,serif" font-size="14.00">input:</text>
<polyline fill="none" stroke="black" points="187.5,-272.5 243.5,-272.5 "/>
<text text-anchor="middle" x="215.5" y="-257.3" font-family="Times New Roman,serif" font-size="14.00">output:</text>
<polyline fill="none" stroke="black" points="243.5,-249.5 243.5,-295.5 "/>
<text text-anchor="middle" x="285" y="-280.3" font-family="Times New Roman,serif" font-size="14.00">(None, 128)</text>
<polyline fill="none" stroke="black" points="243.5,-272.5 326.5,-272.5 "/>
<text text-anchor="middle" x="285" y="-257.3" font-family="Times New Roman,serif" font-size="14.00">(None, 128)</text>
</g>
<!-- 1915212868520&#45;&gt;1915212959584 -->
<g id="edge11" class="edge"><title>1915212868520&#45;&gt;1915212959584</title>
<path fill="none" stroke="black" d="M192,-332.366C192,-324.152 192,-314.658 192,-305.725"/>
<polygon fill="black" stroke="black" points="195.5,-305.607 192,-295.607 188.5,-305.607 195.5,-305.607"/>
</g>
<!-- 1915212959360 -->
<g id="node12" class="node"><title>1915212959360</title>
<polygon fill="none" stroke="black" points="70.5,-166.5 70.5,-212.5 313.5,-212.5 313.5,-166.5 70.5,-166.5"/>
<text text-anchor="middle" x="122.5" y="-185.8" font-family="Times New Roman,serif" font-size="14.00">dense_2: Dense</text>
<polyline fill="none" stroke="black" points="174.5,-166.5 174.5,-212.5 "/>
<text text-anchor="middle" x="202.5" y="-197.3" font-family="Times New Roman,serif" font-size="14.00">input:</text>
<polyline fill="none" stroke="black" points="174.5,-189.5 230.5,-189.5 "/>
<text text-anchor="middle" x="202.5" y="-174.3" font-family="Times New Roman,serif" font-size="14.00">output:</text>
<polyline fill="none" stroke="black" points="230.5,-166.5 230.5,-212.5 "/>
<text text-anchor="middle" x="272" y="-197.3" font-family="Times New Roman,serif" font-size="14.00">(None, 128)</text>
<polyline fill="none" stroke="black" points="230.5,-189.5 313.5,-189.5 "/>
<text text-anchor="middle" x="272" y="-174.3" font-family="Times New Roman,serif" font-size="14.00">(None, 128)</text>
</g>
<!-- 1915212959584&#45;&gt;1915212959360 -->
<g id="edge12" class="edge"><title>1915212959584&#45;&gt;1915212959360</title>
<path fill="none" stroke="black" d="M192,-249.366C192,-241.152 192,-231.658 192,-222.725"/>
<polygon fill="black" stroke="black" points="195.5,-222.607 192,-212.607 188.5,-222.607 195.5,-222.607"/>
</g>
<!-- 1915212790976 -->
<g id="node13" class="node"><title>1915212790976</title>
<polygon fill="none" stroke="black" points="57.5,-83.5 57.5,-129.5 326.5,-129.5 326.5,-83.5 57.5,-83.5"/>
<text text-anchor="middle" x="122.5" y="-102.8" font-family="Times New Roman,serif" font-size="14.00">dropout_2: Dropout</text>
<polyline fill="none" stroke="black" points="187.5,-83.5 187.5,-129.5 "/>
<text text-anchor="middle" x="215.5" y="-114.3" font-family="Times New Roman,serif" font-size="14.00">input:</text>
<polyline fill="none" stroke="black" points="187.5,-106.5 243.5,-106.5 "/>
<text text-anchor="middle" x="215.5" y="-91.3" font-family="Times New Roman,serif" font-size="14.00">output:</text>
<polyline fill="none" stroke="black" points="243.5,-83.5 243.5,-129.5 "/>
<text text-anchor="middle" x="285" y="-114.3" font-family="Times New Roman,serif" font-size="14.00">(None, 128)</text>
<polyline fill="none" stroke="black" points="243.5,-106.5 326.5,-106.5 "/>
<text text-anchor="middle" x="285" y="-91.3" font-family="Times New Roman,serif" font-size="14.00">(None, 128)</text>
</g>
<!-- 1915212959360&#45;&gt;1915212790976 -->
<g id="edge13" class="edge"><title>1915212959360&#45;&gt;1915212790976</title>
<path fill="none" stroke="black" d="M192,-166.366C192,-158.152 192,-148.658 192,-139.725"/>
<polygon fill="black" stroke="black" points="195.5,-139.607 192,-129.607 188.5,-139.607 195.5,-139.607"/>
</g>
<!-- 1915113764960 -->
<g id="node14" class="node"><title>1915113764960</title>
<polygon fill="none" stroke="black" points="70.5,-0.5 70.5,-46.5 313.5,-46.5 313.5,-0.5 70.5,-0.5"/>
<text text-anchor="middle" x="122.5" y="-19.8" font-family="Times New Roman,serif" font-size="14.00">dense_3: Dense</text>
<polyline fill="none" stroke="black" points="174.5,-0.5 174.5,-46.5 "/>
<text text-anchor="middle" x="202.5" y="-31.3" font-family="Times New Roman,serif" font-size="14.00">input:</text>
<polyline fill="none" stroke="black" points="174.5,-23.5 230.5,-23.5 "/>
<text text-anchor="middle" x="202.5" y="-8.3" font-family="Times New Roman,serif" font-size="14.00">output:</text>
<polyline fill="none" stroke="black" points="230.5,-0.5 230.5,-46.5 "/>
<text text-anchor="middle" x="272" y="-31.3" font-family="Times New Roman,serif" font-size="14.00">(None, 128)</text>
<polyline fill="none" stroke="black" points="230.5,-23.5 313.5,-23.5 "/>
<text text-anchor="middle" x="272" y="-8.3" font-family="Times New Roman,serif" font-size="14.00">(None, 1)</text>
</g>
<!-- 1915212790976&#45;&gt;1915113764960 -->
<g id="edge14" class="edge"><title>1915212790976&#45;&gt;1915113764960</title>
<path fill="none" stroke="black" d="M192,-83.3664C192,-75.1516 192,-65.6579 192,-56.7252"/>
<polygon fill="black" stroke="black" points="195.5,-56.6068 192,-46.6068 188.5,-56.6069 195.5,-56.6068"/>
</g>
<!-- 1915212239368 -->
<g id="node15" class="node"><title>1915212239368</title>
<polygon fill="none" stroke="black" points="140,-1162.5 140,-1198.5 244,-1198.5 244,-1162.5 140,-1162.5"/>
<text text-anchor="middle" x="192" y="-1176.8" font-family="Times New Roman,serif" font-size="14.00">1915212239368</text>
</g>
<!-- 1915212239368&#45;&gt;1915212239312 -->
<g id="edge1" class="edge"><title>1915212239368&#45;&gt;1915212239312</title>
<path fill="none" stroke="black" d="M192,-1162.25C192,-1154.36 192,-1144.75 192,-1135.6"/>
<polygon fill="black" stroke="black" points="195.5,-1135.59 192,-1125.59 188.5,-1135.59 195.5,-1135.59"/>
</g>
</g>
</svg>
