<?xml version="1.0" encoding="UTF-8" standalone="no"?>
<!DOCTYPE svg PUBLIC "-//W3C//DTD SVG 1.1//EN"
 "http://www.w3.org/Graphics/SVG/1.1/DTD/svg11.dtd">
<!-- Generated by graphviz version 2.38.0 (20140413.2041)
 -->
<!-- Title: G Pages: 1 -->
<svg width="463pt" height="2047pt"
 viewBox="0.00 0.00 463.00 2047.00" xmlns="http://www.w3.org/2000/svg" xmlns:xlink="http://www.w3.org/1999/xlink">
<g id="graph0" class="graph" transform="scale(1 1) rotate(0) translate(4 2043)">
<title>G</title>
<polygon fill="white" stroke="none" points="-4,4 -4,-2043 459,-2043 459,4 -4,4"/>
<!-- 2235680777888 -->
<g id="node1" class="node"><title>2235680777888</title>
<polygon fill="none" stroke="black" points="74,-1992.5 74,-2038.5 381,-2038.5 381,-1992.5 74,-1992.5"/>
<text text-anchor="middle" x="137" y="-2011.8" font-family="Times New Roman,serif" font-size="14.00">input_1: InputLayer</text>
<polyline fill="none" stroke="black" points="200,-1992.5 200,-2038.5 "/>
<text text-anchor="middle" x="228" y="-2023.3" font-family="Times New Roman,serif" font-size="14.00">input:</text>
<polyline fill="none" stroke="black" points="200,-2015.5 256,-2015.5 "/>
<text text-anchor="middle" x="228" y="-2000.3" font-family="Times New Roman,serif" font-size="14.00">output:</text>
<polyline fill="none" stroke="black" points="256,-1992.5 256,-2038.5 "/>
<text text-anchor="middle" x="318.5" y="-2023.3" font-family="Times New Roman,serif" font-size="14.00">(None, 256, 256, 3)</text>
<polyline fill="none" stroke="black" points="256,-2015.5 381,-2015.5 "/>
<text text-anchor="middle" x="318.5" y="-2000.3" font-family="Times New Roman,serif" font-size="14.00">(None, 256, 256, 3)</text>
</g>
<!-- 2235680778000 -->
<g id="node2" class="node"><title>2235680778000</title>
<polygon fill="none" stroke="black" points="58,-1909.5 58,-1955.5 397,-1955.5 397,-1909.5 58,-1909.5"/>
<text text-anchor="middle" x="133.5" y="-1928.8" font-family="Times New Roman,serif" font-size="14.00">block1_conv1: Conv2D</text>
<polyline fill="none" stroke="black" points="209,-1909.5 209,-1955.5 "/>
<text text-anchor="middle" x="237" y="-1940.3" font-family="Times New Roman,serif" font-size="14.00">input:</text>
<polyline fill="none" stroke="black" points="209,-1932.5 265,-1932.5 "/>
<text text-anchor="middle" x="237" y="-1917.3" font-family="Times New Roman,serif" font-size="14.00">output:</text>
<polyline fill="none" stroke="black" points="265,-1909.5 265,-1955.5 "/>
<text text-anchor="middle" x="331" y="-1940.3" font-family="Times New Roman,serif" font-size="14.00">(None, 256, 256, 3)</text>
<polyline fill="none" stroke="black" points="265,-1932.5 397,-1932.5 "/>
<text text-anchor="middle" x="331" y="-1917.3" font-family="Times New Roman,serif" font-size="14.00">(None, 256, 256, 64)</text>
</g>
<!-- 2235680777888&#45;&gt;2235680778000 -->
<g id="edge1" class="edge"><title>2235680777888&#45;&gt;2235680778000</title>
<path fill="none" stroke="black" d="M227.5,-1992.37C227.5,-1984.15 227.5,-1974.66 227.5,-1965.73"/>
<polygon fill="black" stroke="black" points="231,-1965.61 227.5,-1955.61 224,-1965.61 231,-1965.61"/>
</g>
<!-- 2235680779400 -->
<g id="node3" class="node"><title>2235680779400</title>
<polygon fill="none" stroke="black" points="58,-1826.5 58,-1872.5 397,-1872.5 397,-1826.5 58,-1826.5"/>
<text text-anchor="middle" x="133.5" y="-1845.8" font-family="Times New Roman,serif" font-size="14.00">block1_conv2: Conv2D</text>
<polyline fill="none" stroke="black" points="209,-1826.5 209,-1872.5 "/>
<text text-anchor="middle" x="237" y="-1857.3" font-family="Times New Roman,serif" font-size="14.00">input:</text>
<polyline fill="none" stroke="black" points="209,-1849.5 265,-1849.5 "/>
<text text-anchor="middle" x="237" y="-1834.3" font-family="Times New Roman,serif" font-size="14.00">output:</text>
<polyline fill="none" stroke="black" points="265,-1826.5 265,-1872.5 "/>
<text text-anchor="middle" x="331" y="-1857.3" font-family="Times New Roman,serif" font-size="14.00">(None, 256, 256, 64)</text>
<polyline fill="none" stroke="black" points="265,-1849.5 397,-1849.5 "/>
<text text-anchor="middle" x="331" y="-1834.3" font-family="Times New Roman,serif" font-size="14.00">(None, 256, 256, 64)</text>
</g>
<!-- 2235680778000&#45;&gt;2235680779400 -->
<g id="edge2" class="edge"><title>2235680778000&#45;&gt;2235680779400</title>
<path fill="none" stroke="black" d="M227.5,-1909.37C227.5,-1901.15 227.5,-1891.66 227.5,-1882.73"/>
<polygon fill="black" stroke="black" points="231,-1882.61 227.5,-1872.61 224,-1882.61 231,-1882.61"/>
</g>
<!-- 2235680779008 -->
<g id="node4" class="node"><title>2235680779008</title>
<polygon fill="none" stroke="black" points="44,-1743.5 44,-1789.5 411,-1789.5 411,-1743.5 44,-1743.5"/>
<text text-anchor="middle" x="133.5" y="-1762.8" font-family="Times New Roman,serif" font-size="14.00">block1_pool: MaxPooling2D</text>
<polyline fill="none" stroke="black" points="223,-1743.5 223,-1789.5 "/>
<text text-anchor="middle" x="251" y="-1774.3" font-family="Times New Roman,serif" font-size="14.00">input:</text>
<polyline fill="none" stroke="black" points="223,-1766.5 279,-1766.5 "/>
<text text-anchor="middle" x="251" y="-1751.3" font-family="Times New Roman,serif" font-size="14.00">output:</text>
<polyline fill="none" stroke="black" points="279,-1743.5 279,-1789.5 "/>
<text text-anchor="middle" x="345" y="-1774.3" font-family="Times New Roman,serif" font-size="14.00">(None, 256, 256, 64)</text>
<polyline fill="none" stroke="black" points="279,-1766.5 411,-1766.5 "/>
<text text-anchor="middle" x="345" y="-1751.3" font-family="Times New Roman,serif" font-size="14.00">(None, 128, 128, 64)</text>
</g>
<!-- 2235680779400&#45;&gt;2235680779008 -->
<g id="edge3" class="edge"><title>2235680779400&#45;&gt;2235680779008</title>
<path fill="none" stroke="black" d="M227.5,-1826.37C227.5,-1818.15 227.5,-1808.66 227.5,-1799.73"/>
<polygon fill="black" stroke="black" points="231,-1799.61 227.5,-1789.61 224,-1799.61 231,-1799.61"/>
</g>
<!-- 2235680779848 -->
<g id="node5" class="node"><title>2235680779848</title>
<polygon fill="none" stroke="black" points="54.5,-1660.5 54.5,-1706.5 400.5,-1706.5 400.5,-1660.5 54.5,-1660.5"/>
<text text-anchor="middle" x="130" y="-1679.8" font-family="Times New Roman,serif" font-size="14.00">block2_conv1: Conv2D</text>
<polyline fill="none" stroke="black" points="205.5,-1660.5 205.5,-1706.5 "/>
<text text-anchor="middle" x="233.5" y="-1691.3" font-family="Times New Roman,serif" font-size="14.00">input:</text>
<polyline fill="none" stroke="black" points="205.5,-1683.5 261.5,-1683.5 "/>
<text text-anchor="middle" x="233.5" y="-1668.3" font-family="Times New Roman,serif" font-size="14.00">output:</text>
<polyline fill="none" stroke="black" points="261.5,-1660.5 261.5,-1706.5 "/>
<text text-anchor="middle" x="331" y="-1691.3" font-family="Times New Roman,serif" font-size="14.00">(None, 128, 128, 64)</text>
<polyline fill="none" stroke="black" points="261.5,-1683.5 400.5,-1683.5 "/>
<text text-anchor="middle" x="331" y="-1668.3" font-family="Times New Roman,serif" font-size="14.00">(None, 128, 128, 128)</text>
</g>
<!-- 2235680779008&#45;&gt;2235680779848 -->
<g id="edge4" class="edge"><title>2235680779008&#45;&gt;2235680779848</title>
<path fill="none" stroke="black" d="M227.5,-1743.37C227.5,-1735.15 227.5,-1725.66 227.5,-1716.73"/>
<polygon fill="black" stroke="black" points="231,-1716.61 227.5,-1706.61 224,-1716.61 231,-1716.61"/>
</g>
<!-- 2235680895160 -->
<g id="node6" class="node"><title>2235680895160</title>
<polygon fill="none" stroke="black" points="54.5,-1577.5 54.5,-1623.5 400.5,-1623.5 400.5,-1577.5 54.5,-1577.5"/>
<text text-anchor="middle" x="130" y="-1596.8" font-family="Times New Roman,serif" font-size="14.00">block2_conv2: Conv2D</text>
<polyline fill="none" stroke="black" points="205.5,-1577.5 205.5,-1623.5 "/>
<text text-anchor="middle" x="233.5" y="-1608.3" font-family="Times New Roman,serif" font-size="14.00">input:</text>
<polyline fill="none" stroke="black" points="205.5,-1600.5 261.5,-1600.5 "/>
<text text-anchor="middle" x="233.5" y="-1585.3" font-family="Times New Roman,serif" font-size="14.00">output:</text>
<polyline fill="none" stroke="black" points="261.5,-1577.5 261.5,-1623.5 "/>
<text text-anchor="middle" x="331" y="-1608.3" font-family="Times New Roman,serif" font-size="14.00">(None, 128, 128, 128)</text>
<polyline fill="none" stroke="black" points="261.5,-1600.5 400.5,-1600.5 "/>
<text text-anchor="middle" x="331" y="-1585.3" font-family="Times New Roman,serif" font-size="14.00">(None, 128, 128, 128)</text>
</g>
<!-- 2235680779848&#45;&gt;2235680895160 -->
<g id="edge5" class="edge"><title>2235680779848&#45;&gt;2235680895160</title>
<path fill="none" stroke="black" d="M227.5,-1660.37C227.5,-1652.15 227.5,-1642.66 227.5,-1633.73"/>
<polygon fill="black" stroke="black" points="231,-1633.61 227.5,-1623.61 224,-1633.61 231,-1633.61"/>
</g>
<!-- 2235680895552 -->
<g id="node7" class="node"><title>2235680895552</title>
<polygon fill="none" stroke="black" points="40.5,-1494.5 40.5,-1540.5 414.5,-1540.5 414.5,-1494.5 40.5,-1494.5"/>
<text text-anchor="middle" x="130" y="-1513.8" font-family="Times New Roman,serif" font-size="14.00">block2_pool: MaxPooling2D</text>
<polyline fill="none" stroke="black" points="219.5,-1494.5 219.5,-1540.5 "/>
<text text-anchor="middle" x="247.5" y="-1525.3" font-family="Times New Roman,serif" font-size="14.00">input:</text>
<polyline fill="none" stroke="black" points="219.5,-1517.5 275.5,-1517.5 "/>
<text text-anchor="middle" x="247.5" y="-1502.3" font-family="Times New Roman,serif" font-size="14.00">output:</text>
<polyline fill="none" stroke="black" points="275.5,-1494.5 275.5,-1540.5 "/>
<text text-anchor="middle" x="345" y="-1525.3" font-family="Times New Roman,serif" font-size="14.00">(None, 128, 128, 128)</text>
<polyline fill="none" stroke="black" points="275.5,-1517.5 414.5,-1517.5 "/>
<text text-anchor="middle" x="345" y="-1502.3" font-family="Times New Roman,serif" font-size="14.00">(None, 64, 64, 128)</text>
</g>
<!-- 2235680895160&#45;&gt;2235680895552 -->
<g id="edge6" class="edge"><title>2235680895160&#45;&gt;2235680895552</title>
<path fill="none" stroke="black" d="M227.5,-1577.37C227.5,-1569.15 227.5,-1559.66 227.5,-1550.73"/>
<polygon fill="black" stroke="black" points="231,-1550.61 227.5,-1540.61 224,-1550.61 231,-1550.61"/>
</g>
<!-- 2235680895720 -->
<g id="node8" class="node"><title>2235680895720</title>
<polygon fill="none" stroke="black" points="61.5,-1411.5 61.5,-1457.5 393.5,-1457.5 393.5,-1411.5 61.5,-1411.5"/>
<text text-anchor="middle" x="137" y="-1430.8" font-family="Times New Roman,serif" font-size="14.00">block3_conv1: Conv2D</text>
<polyline fill="none" stroke="black" points="212.5,-1411.5 212.5,-1457.5 "/>
<text text-anchor="middle" x="240.5" y="-1442.3" font-family="Times New Roman,serif" font-size="14.00">input:</text>
<polyline fill="none" stroke="black" points="212.5,-1434.5 268.5,-1434.5 "/>
<text text-anchor="middle" x="240.5" y="-1419.3" font-family="Times New Roman,serif" font-size="14.00">output:</text>
<polyline fill="none" stroke="black" points="268.5,-1411.5 268.5,-1457.5 "/>
<text text-anchor="middle" x="331" y="-1442.3" font-family="Times New Roman,serif" font-size="14.00">(None, 64, 64, 128)</text>
<polyline fill="none" stroke="black" points="268.5,-1434.5 393.5,-1434.5 "/>
<text text-anchor="middle" x="331" y="-1419.3" font-family="Times New Roman,serif" font-size="14.00">(None, 64, 64, 256)</text>
</g>
<!-- 2235680895552&#45;&gt;2235680895720 -->
<g id="edge7" class="edge"><title>2235680895552&#45;&gt;2235680895720</title>
<path fill="none" stroke="black" d="M227.5,-1494.37C227.5,-1486.15 227.5,-1476.66 227.5,-1467.73"/>
<polygon fill="black" stroke="black" points="231,-1467.61 227.5,-1457.61 224,-1467.61 231,-1467.61"/>
</g>
<!-- 2235680896112 -->
<g id="node9" class="node"><title>2235680896112</title>
<polygon fill="none" stroke="black" points="61.5,-1328.5 61.5,-1374.5 393.5,-1374.5 393.5,-1328.5 61.5,-1328.5"/>
<text text-anchor="middle" x="137" y="-1347.8" font-family="Times New Roman,serif" font-size="14.00">block3_conv2: Conv2D</text>
<polyline fill="none" stroke="black" points="212.5,-1328.5 212.5,-1374.5 "/>
<text text-anchor="middle" x="240.5" y="-1359.3" font-family="Times New Roman,serif" font-size="14.00">input:</text>
<polyline fill="none" stroke="black" points="212.5,-1351.5 268.5,-1351.5 "/>
<text text-anchor="middle" x="240.5" y="-1336.3" font-family="Times New Roman,serif" font-size="14.00">output:</text>
<polyline fill="none" stroke="black" points="268.5,-1328.5 268.5,-1374.5 "/>
<text text-anchor="middle" x="331" y="-1359.3" font-family="Times New Roman,serif" font-size="14.00">(None, 64, 64, 256)</text>
<polyline fill="none" stroke="black" points="268.5,-1351.5 393.5,-1351.5 "/>
<text text-anchor="middle" x="331" y="-1336.3" font-family="Times New Roman,serif" font-size="14.00">(None, 64, 64, 256)</text>
</g>
<!-- 2235680895720&#45;&gt;2235680896112 -->
<g id="edge8" class="edge"><title>2235680895720&#45;&gt;2235680896112</title>
<path fill="none" stroke="black" d="M227.5,-1411.37C227.5,-1403.15 227.5,-1393.66 227.5,-1384.73"/>
<polygon fill="black" stroke="black" points="231,-1384.61 227.5,-1374.61 224,-1384.61 231,-1384.61"/>
</g>
<!-- 2235680896504 -->
<g id="node10" class="node"><title>2235680896504</title>
<polygon fill="none" stroke="black" points="61.5,-1245.5 61.5,-1291.5 393.5,-1291.5 393.5,-1245.5 61.5,-1245.5"/>
<text text-anchor="middle" x="137" y="-1264.8" font-family="Times New Roman,serif" font-size="14.00">block3_conv3: Conv2D</text>
<polyline fill="none" stroke="black" points="212.5,-1245.5 212.5,-1291.5 "/>
<text text-anchor="middle" x="240.5" y="-1276.3" font-family="Times New Roman,serif" font-size="14.00">input:</text>
<polyline fill="none" stroke="black" points="212.5,-1268.5 268.5,-1268.5 "/>
<text text-anchor="middle" x="240.5" y="-1253.3" font-family="Times New Roman,serif" font-size="14.00">output:</text>
<polyline fill="none" stroke="black" points="268.5,-1245.5 268.5,-1291.5 "/>
<text text-anchor="middle" x="331" y="-1276.3" font-family="Times New Roman,serif" font-size="14.00">(None, 64, 64, 256)</text>
<polyline fill="none" stroke="black" points="268.5,-1268.5 393.5,-1268.5 "/>
<text text-anchor="middle" x="331" y="-1253.3" font-family="Times New Roman,serif" font-size="14.00">(None, 64, 64, 256)</text>
</g>
<!-- 2235680896112&#45;&gt;2235680896504 -->
<g id="edge9" class="edge"><title>2235680896112&#45;&gt;2235680896504</title>
<path fill="none" stroke="black" d="M227.5,-1328.37C227.5,-1320.15 227.5,-1310.66 227.5,-1301.73"/>
<polygon fill="black" stroke="black" points="231,-1301.61 227.5,-1291.61 224,-1301.61 231,-1301.61"/>
</g>
<!-- 2235680896896 -->
<g id="node11" class="node"><title>2235680896896</title>
<polygon fill="none" stroke="black" points="47.5,-1162.5 47.5,-1208.5 407.5,-1208.5 407.5,-1162.5 47.5,-1162.5"/>
<text text-anchor="middle" x="137" y="-1181.8" font-family="Times New Roman,serif" font-size="14.00">block3_pool: MaxPooling2D</text>
<polyline fill="none" stroke="black" points="226.5,-1162.5 226.5,-1208.5 "/>
<text text-anchor="middle" x="254.5" y="-1193.3" font-family="Times New Roman,serif" font-size="14.00">input:</text>
<polyline fill="none" stroke="black" points="226.5,-1185.5 282.5,-1185.5 "/>
<text text-anchor="middle" x="254.5" y="-1170.3" font-family="Times New Roman,serif" font-size="14.00">output:</text>
<polyline fill="none" stroke="black" points="282.5,-1162.5 282.5,-1208.5 "/>
<text text-anchor="middle" x="345" y="-1193.3" font-family="Times New Roman,serif" font-size="14.00">(None, 64, 64, 256)</text>
<polyline fill="none" stroke="black" points="282.5,-1185.5 407.5,-1185.5 "/>
<text text-anchor="middle" x="345" y="-1170.3" font-family="Times New Roman,serif" font-size="14.00">(None, 32, 32, 256)</text>
</g>
<!-- 2235680896504&#45;&gt;2235680896896 -->
<g id="edge10" class="edge"><title>2235680896504&#45;&gt;2235680896896</title>
<path fill="none" stroke="black" d="M227.5,-1245.37C227.5,-1237.15 227.5,-1227.66 227.5,-1218.73"/>
<polygon fill="black" stroke="black" points="231,-1218.61 227.5,-1208.61 224,-1218.61 231,-1218.61"/>
</g>
<!-- 2235680897064 -->
<g id="node12" class="node"><title>2235680897064</title>
<polygon fill="none" stroke="black" points="61.5,-1079.5 61.5,-1125.5 393.5,-1125.5 393.5,-1079.5 61.5,-1079.5"/>
<text text-anchor="middle" x="137" y="-1098.8" font-family="Times New Roman,serif" font-size="14.00">block4_conv1: Conv2D</text>
<polyline fill="none" stroke="black" points="212.5,-1079.5 212.5,-1125.5 "/>
<text text-anchor="middle" x="240.5" y="-1110.3" font-family="Times New Roman,serif" font-size="14.00">input:</text>
<polyline fill="none" stroke="black" points="212.5,-1102.5 268.5,-1102.5 "/>
<text text-anchor="middle" x="240.5" y="-1087.3" font-family="Times New Roman,serif" font-size="14.00">output:</text>
<polyline fill="none" stroke="black" points="268.5,-1079.5 268.5,-1125.5 "/>
<text text-anchor="middle" x="331" y="-1110.3" font-family="Times New Roman,serif" font-size="14.00">(None, 32, 32, 256)</text>
<polyline fill="none" stroke="black" points="268.5,-1102.5 393.5,-1102.5 "/>
<text text-anchor="middle" x="331" y="-1087.3" font-family="Times New Roman,serif" font-size="14.00">(None, 32, 32, 512)</text>
</g>
<!-- 2235680896896&#45;&gt;2235680897064 -->
<g id="edge11" class="edge"><title>2235680896896&#45;&gt;2235680897064</title>
<path fill="none" stroke="black" d="M227.5,-1162.37C227.5,-1154.15 227.5,-1144.66 227.5,-1135.73"/>
<polygon fill="black" stroke="black" points="231,-1135.61 227.5,-1125.61 224,-1135.61 231,-1135.61"/>
</g>
<!-- 2235680897456 -->
<g id="node13" class="node"><title>2235680897456</title>
<polygon fill="none" stroke="black" points="61.5,-996.5 61.5,-1042.5 393.5,-1042.5 393.5,-996.5 61.5,-996.5"/>
<text text-anchor="middle" x="137" y="-1015.8" font-family="Times New Roman,serif" font-size="14.00">block4_conv2: Conv2D</text>
<polyline fill="none" stroke="black" points="212.5,-996.5 212.5,-1042.5 "/>
<text text-anchor="middle" x="240.5" y="-1027.3" font-family="Times New Roman,serif" font-size="14.00">input:</text>
<polyline fill="none" stroke="black" points="212.5,-1019.5 268.5,-1019.5 "/>
<text text-anchor="middle" x="240.5" y="-1004.3" font-family="Times New Roman,serif" font-size="14.00">output:</text>
<polyline fill="none" stroke="black" points="268.5,-996.5 268.5,-1042.5 "/>
<text text-anchor="middle" x="331" y="-1027.3" font-family="Times New Roman,serif" font-size="14.00">(None, 32, 32, 512)</text>
<polyline fill="none" stroke="black" points="268.5,-1019.5 393.5,-1019.5 "/>
<text text-anchor="middle" x="331" y="-1004.3" font-family="Times New Roman,serif" font-size="14.00">(None, 32, 32, 512)</text>
</g>
<!-- 2235680897064&#45;&gt;2235680897456 -->
<g id="edge12" class="edge"><title>2235680897064&#45;&gt;2235680897456</title>
<path fill="none" stroke="black" d="M227.5,-1079.37C227.5,-1071.15 227.5,-1061.66 227.5,-1052.73"/>
<polygon fill="black" stroke="black" points="231,-1052.61 227.5,-1042.61 224,-1052.61 231,-1052.61"/>
</g>
<!-- 2235680897848 -->
<g id="node14" class="node"><title>2235680897848</title>
<polygon fill="none" stroke="black" points="61.5,-913.5 61.5,-959.5 393.5,-959.5 393.5,-913.5 61.5,-913.5"/>
<text text-anchor="middle" x="137" y="-932.8" font-family="Times New Roman,serif" font-size="14.00">block4_conv3: Conv2D</text>
<polyline fill="none" stroke="black" points="212.5,-913.5 212.5,-959.5 "/>
<text text-anchor="middle" x="240.5" y="-944.3" font-family="Times New Roman,serif" font-size="14.00">input:</text>
<polyline fill="none" stroke="black" points="212.5,-936.5 268.5,-936.5 "/>
<text text-anchor="middle" x="240.5" y="-921.3" font-family="Times New Roman,serif" font-size="14.00">output:</text>
<polyline fill="none" stroke="black" points="268.5,-913.5 268.5,-959.5 "/>
<text text-anchor="middle" x="331" y="-944.3" font-family="Times New Roman,serif" font-size="14.00">(None, 32, 32, 512)</text>
<polyline fill="none" stroke="black" points="268.5,-936.5 393.5,-936.5 "/>
<text text-anchor="middle" x="331" y="-921.3" font-family="Times New Roman,serif" font-size="14.00">(None, 32, 32, 512)</text>
</g>
<!-- 2235680897456&#45;&gt;2235680897848 -->
<g id="edge13" class="edge"><title>2235680897456&#45;&gt;2235680897848</title>
<path fill="none" stroke="black" d="M227.5,-996.366C227.5,-988.152 227.5,-978.658 227.5,-969.725"/>
<polygon fill="black" stroke="black" points="231,-969.607 227.5,-959.607 224,-969.607 231,-969.607"/>
</g>
<!-- 2235680898240 -->
<g id="node15" class="node"><title>2235680898240</title>
<polygon fill="none" stroke="black" points="47.5,-830.5 47.5,-876.5 407.5,-876.5 407.5,-830.5 47.5,-830.5"/>
<text text-anchor="middle" x="137" y="-849.8" font-family="Times New Roman,serif" font-size="14.00">block4_pool: MaxPooling2D</text>
<polyline fill="none" stroke="black" points="226.5,-830.5 226.5,-876.5 "/>
<text text-anchor="middle" x="254.5" y="-861.3" font-family="Times New Roman,serif" font-size="14.00">input:</text>
<polyline fill="none" stroke="black" points="226.5,-853.5 282.5,-853.5 "/>
<text text-anchor="middle" x="254.5" y="-838.3" font-family="Times New Roman,serif" font-size="14.00">output:</text>
<polyline fill="none" stroke="black" points="282.5,-830.5 282.5,-876.5 "/>
<text text-anchor="middle" x="345" y="-861.3" font-family="Times New Roman,serif" font-size="14.00">(None, 32, 32, 512)</text>
<polyline fill="none" stroke="black" points="282.5,-853.5 407.5,-853.5 "/>
<text text-anchor="middle" x="345" y="-838.3" font-family="Times New Roman,serif" font-size="14.00">(None, 16, 16, 512)</text>
</g>
<!-- 2235680897848&#45;&gt;2235680898240 -->
<g id="edge14" class="edge"><title>2235680897848&#45;&gt;2235680898240</title>
<path fill="none" stroke="black" d="M227.5,-913.366C227.5,-905.152 227.5,-895.658 227.5,-886.725"/>
<polygon fill="black" stroke="black" points="231,-886.607 227.5,-876.607 224,-886.607 231,-886.607"/>
</g>
<!-- 2235680898408 -->
<g id="node16" class="node"><title>2235680898408</title>
<polygon fill="none" stroke="black" points="61.5,-747.5 61.5,-793.5 393.5,-793.5 393.5,-747.5 61.5,-747.5"/>
<text text-anchor="middle" x="137" y="-766.8" font-family="Times New Roman,serif" font-size="14.00">block5_conv1: Conv2D</text>
<polyline fill="none" stroke="black" points="212.5,-747.5 212.5,-793.5 "/>
<text text-anchor="middle" x="240.5" y="-778.3" font-family="Times New Roman,serif" font-size="14.00">input:</text>
<polyline fill="none" stroke="black" points="212.5,-770.5 268.5,-770.5 "/>
<text text-anchor="middle" x="240.5" y="-755.3" font-family="Times New Roman,serif" font-size="14.00">output:</text>
<polyline fill="none" stroke="black" points="268.5,-747.5 268.5,-793.5 "/>
<text text-anchor="middle" x="331" y="-778.3" font-family="Times New Roman,serif" font-size="14.00">(None, 16, 16, 512)</text>
<polyline fill="none" stroke="black" points="268.5,-770.5 393.5,-770.5 "/>
<text text-anchor="middle" x="331" y="-755.3" font-family="Times New Roman,serif" font-size="14.00">(None, 16, 16, 512)</text>
</g>
<!-- 2235680898240&#45;&gt;2235680898408 -->
<g id="edge15" class="edge"><title>2235680898240&#45;&gt;2235680898408</title>
<path fill="none" stroke="black" d="M227.5,-830.366C227.5,-822.152 227.5,-812.658 227.5,-803.725"/>
<polygon fill="black" stroke="black" points="231,-803.607 227.5,-793.607 224,-803.607 231,-803.607"/>
</g>
<!-- 2235680898800 -->
<g id="node17" class="node"><title>2235680898800</title>
<polygon fill="none" stroke="black" points="61.5,-664.5 61.5,-710.5 393.5,-710.5 393.5,-664.5 61.5,-664.5"/>
<text text-anchor="middle" x="137" y="-683.8" font-family="Times New Roman,serif" font-size="14.00">block5_conv2: Conv2D</text>
<polyline fill="none" stroke="black" points="212.5,-664.5 212.5,-710.5 "/>
<text text-anchor="middle" x="240.5" y="-695.3" font-family="Times New Roman,serif" font-size="14.00">input:</text>
<polyline fill="none" stroke="black" points="212.5,-687.5 268.5,-687.5 "/>
<text text-anchor="middle" x="240.5" y="-672.3" font-family="Times New Roman,serif" font-size="14.00">output:</text>
<polyline fill="none" stroke="black" points="268.5,-664.5 268.5,-710.5 "/>
<text text-anchor="middle" x="331" y="-695.3" font-family="Times New Roman,serif" font-size="14.00">(None, 16, 16, 512)</text>
<polyline fill="none" stroke="black" points="268.5,-687.5 393.5,-687.5 "/>
<text text-anchor="middle" x="331" y="-672.3" font-family="Times New Roman,serif" font-size="14.00">(None, 16, 16, 512)</text>
</g>
<!-- 2235680898408&#45;&gt;2235680898800 -->
<g id="edge16" class="edge"><title>2235680898408&#45;&gt;2235680898800</title>
<path fill="none" stroke="black" d="M227.5,-747.366C227.5,-739.152 227.5,-729.658 227.5,-720.725"/>
<polygon fill="black" stroke="black" points="231,-720.607 227.5,-710.607 224,-720.607 231,-720.607"/>
</g>
<!-- 2235680919736 -->
<g id="node18" class="node"><title>2235680919736</title>
<polygon fill="none" stroke="black" points="61.5,-581.5 61.5,-627.5 393.5,-627.5 393.5,-581.5 61.5,-581.5"/>
<text text-anchor="middle" x="137" y="-600.8" font-family="Times New Roman,serif" font-size="14.00">block5_conv3: Conv2D</text>
<polyline fill="none" stroke="black" points="212.5,-581.5 212.5,-627.5 "/>
<text text-anchor="middle" x="240.5" y="-612.3" font-family="Times New Roman,serif" font-size="14.00">input:</text>
<polyline fill="none" stroke="black" points="212.5,-604.5 268.5,-604.5 "/>
<text text-anchor="middle" x="240.5" y="-589.3" font-family="Times New Roman,serif" font-size="14.00">output:</text>
<polyline fill="none" stroke="black" points="268.5,-581.5 268.5,-627.5 "/>
<text text-anchor="middle" x="331" y="-612.3" font-family="Times New Roman,serif" font-size="14.00">(None, 16, 16, 512)</text>
<polyline fill="none" stroke="black" points="268.5,-604.5 393.5,-604.5 "/>
<text text-anchor="middle" x="331" y="-589.3" font-family="Times New Roman,serif" font-size="14.00">(None, 16, 16, 512)</text>
</g>
<!-- 2235680898800&#45;&gt;2235680919736 -->
<g id="edge17" class="edge"><title>2235680898800&#45;&gt;2235680919736</title>
<path fill="none" stroke="black" d="M227.5,-664.366C227.5,-656.152 227.5,-646.658 227.5,-637.725"/>
<polygon fill="black" stroke="black" points="231,-637.607 227.5,-627.607 224,-637.607 231,-637.607"/>
</g>
<!-- 2235680920128 -->
<g id="node19" class="node"><title>2235680920128</title>
<polygon fill="none" stroke="black" points="47.5,-498.5 47.5,-544.5 407.5,-544.5 407.5,-498.5 47.5,-498.5"/>
<text text-anchor="middle" x="137" y="-517.8" font-family="Times New Roman,serif" font-size="14.00">block5_pool: MaxPooling2D</text>
<polyline fill="none" stroke="black" points="226.5,-498.5 226.5,-544.5 "/>
<text text-anchor="middle" x="254.5" y="-529.3" font-family="Times New Roman,serif" font-size="14.00">input:</text>
<polyline fill="none" stroke="black" points="226.5,-521.5 282.5,-521.5 "/>
<text text-anchor="middle" x="254.5" y="-506.3" font-family="Times New Roman,serif" font-size="14.00">output:</text>
<polyline fill="none" stroke="black" points="282.5,-498.5 282.5,-544.5 "/>
<text text-anchor="middle" x="345" y="-529.3" font-family="Times New Roman,serif" font-size="14.00">(None, 16, 16, 512)</text>
<polyline fill="none" stroke="black" points="282.5,-521.5 407.5,-521.5 "/>
<text text-anchor="middle" x="345" y="-506.3" font-family="Times New Roman,serif" font-size="14.00">(None, 8, 8, 512)</text>
</g>
<!-- 2235680919736&#45;&gt;2235680920128 -->
<g id="edge18" class="edge"><title>2235680919736&#45;&gt;2235680920128</title>
<path fill="none" stroke="black" d="M227.5,-581.366C227.5,-573.152 227.5,-563.658 227.5,-554.725"/>
<polygon fill="black" stroke="black" points="231,-554.607 227.5,-544.607 224,-554.607 231,-554.607"/>
</g>
<!-- 2235680920296 -->
<g id="node20" class="node"><title>2235680920296</title>
<polygon fill="none" stroke="black" points="0,-415.5 0,-461.5 455,-461.5 455,-415.5 0,-415.5"/>
<text text-anchor="middle" x="143.5" y="-434.8" font-family="Times New Roman,serif" font-size="14.00">global_max_pooling2d_1: GlobalMaxPooling2D</text>
<polyline fill="none" stroke="black" points="287,-415.5 287,-461.5 "/>
<text text-anchor="middle" x="315" y="-446.3" font-family="Times New Roman,serif" font-size="14.00">input:</text>
<polyline fill="none" stroke="black" points="287,-438.5 343,-438.5 "/>
<text text-anchor="middle" x="315" y="-423.3" font-family="Times New Roman,serif" font-size="14.00">output:</text>
<polyline fill="none" stroke="black" points="343,-415.5 343,-461.5 "/>
<text text-anchor="middle" x="399" y="-446.3" font-family="Times New Roman,serif" font-size="14.00">(None, 8, 8, 512)</text>
<polyline fill="none" stroke="black" points="343,-438.5 455,-438.5 "/>
<text text-anchor="middle" x="399" y="-423.3" font-family="Times New Roman,serif" font-size="14.00">(None, 512)</text>
</g>
<!-- 2235680920128&#45;&gt;2235680920296 -->
<g id="edge19" class="edge"><title>2235680920128&#45;&gt;2235680920296</title>
<path fill="none" stroke="black" d="M227.5,-498.366C227.5,-490.152 227.5,-480.658 227.5,-471.725"/>
<polygon fill="black" stroke="black" points="231,-471.607 227.5,-461.607 224,-471.607 231,-471.607"/>
</g>
<!-- 2235680920408 -->
<g id="node21" class="node"><title>2235680920408</title>
<polygon fill="none" stroke="black" points="102.5,-332.5 102.5,-378.5 352.5,-378.5 352.5,-332.5 102.5,-332.5"/>
<text text-anchor="middle" x="154.5" y="-351.8" font-family="Times New Roman,serif" font-size="14.00">dense_1: Dense</text>
<polyline fill="none" stroke="black" points="206.5,-332.5 206.5,-378.5 "/>
<text text-anchor="middle" x="234.5" y="-363.3" font-family="Times New Roman,serif" font-size="14.00">input:</text>
<polyline fill="none" stroke="black" points="206.5,-355.5 262.5,-355.5 "/>
<text text-anchor="middle" x="234.5" y="-340.3" font-family="Times New Roman,serif" font-size="14.00">output:</text>
<polyline fill="none" stroke="black" points="262.5,-332.5 262.5,-378.5 "/>
<text text-anchor="middle" x="307.5" y="-363.3" font-family="Times New Roman,serif" font-size="14.00">(None, 512)</text>
<polyline fill="none" stroke="black" points="262.5,-355.5 352.5,-355.5 "/>
<text text-anchor="middle" x="307.5" y="-340.3" font-family="Times New Roman,serif" font-size="14.00">(None, 4096)</text>
</g>
<!-- 2235680920296&#45;&gt;2235680920408 -->
<g id="edge20" class="edge"><title>2235680920296&#45;&gt;2235680920408</title>
<path fill="none" stroke="black" d="M227.5,-415.366C227.5,-407.152 227.5,-397.658 227.5,-388.725"/>
<polygon fill="black" stroke="black" points="231,-388.607 227.5,-378.607 224,-388.607 231,-388.607"/>
</g>
<!-- 2235680920744 -->
<g id="node22" class="node"><title>2235680920744</title>
<polygon fill="none" stroke="black" points="89.5,-249.5 89.5,-295.5 365.5,-295.5 365.5,-249.5 89.5,-249.5"/>
<text text-anchor="middle" x="154.5" y="-268.8" font-family="Times New Roman,serif" font-size="14.00">dropout_1: Dropout</text>
<polyline fill="none" stroke="black" points="219.5,-249.5 219.5,-295.5 "/>
<text text-anchor="middle" x="247.5" y="-280.3" font-family="Times New Roman,serif" font-size="14.00">input:</text>
<polyline fill="none" stroke="black" points="219.5,-272.5 275.5,-272.5 "/>
<text text-anchor="middle" x="247.5" y="-257.3" font-family="Times New Roman,serif" font-size="14.00">output:</text>
<polyline fill="none" stroke="black" points="275.5,-249.5 275.5,-295.5 "/>
<text text-anchor="middle" x="320.5" y="-280.3" font-family="Times New Roman,serif" font-size="14.00">(None, 4096)</text>
<polyline fill="none" stroke="black" points="275.5,-272.5 365.5,-272.5 "/>
<text text-anchor="middle" x="320.5" y="-257.3" font-family="Times New Roman,serif" font-size="14.00">(None, 4096)</text>
</g>
<!-- 2235680920408&#45;&gt;2235680920744 -->
<g id="edge21" class="edge"><title>2235680920408&#45;&gt;2235680920744</title>
<path fill="none" stroke="black" d="M227.5,-332.366C227.5,-324.152 227.5,-314.658 227.5,-305.725"/>
<polygon fill="black" stroke="black" points="231,-305.607 227.5,-295.607 224,-305.607 231,-305.607"/>
</g>
<!-- 2235680920800 -->
<g id="node23" class="node"><title>2235680920800</title>
<polygon fill="none" stroke="black" points="102.5,-166.5 102.5,-212.5 352.5,-212.5 352.5,-166.5 102.5,-166.5"/>
<text text-anchor="middle" x="154.5" y="-185.8" font-family="Times New Roman,serif" font-size="14.00">dense_2: Dense</text>
<polyline fill="none" stroke="black" points="206.5,-166.5 206.5,-212.5 "/>
<text text-anchor="middle" x="234.5" y="-197.3" font-family="Times New Roman,serif" font-size="14.00">input:</text>
<polyline fill="none" stroke="black" points="206.5,-189.5 262.5,-189.5 "/>
<text text-anchor="middle" x="234.5" y="-174.3" font-family="Times New Roman,serif" font-size="14.00">output:</text>
<polyline fill="none" stroke="black" points="262.5,-166.5 262.5,-212.5 "/>
<text text-anchor="middle" x="307.5" y="-197.3" font-family="Times New Roman,serif" font-size="14.00">(None, 4096)</text>
<polyline fill="none" stroke="black" points="262.5,-189.5 352.5,-189.5 "/>
<text text-anchor="middle" x="307.5" y="-174.3" font-family="Times New Roman,serif" font-size="14.00">(None, 4096)</text>
</g>
<!-- 2235680920744&#45;&gt;2235680920800 -->
<g id="edge22" class="edge"><title>2235680920744&#45;&gt;2235680920800</title>
<path fill="none" stroke="black" d="M227.5,-249.366C227.5,-241.152 227.5,-231.658 227.5,-222.725"/>
<polygon fill="black" stroke="black" points="231,-222.607 227.5,-212.607 224,-222.607 231,-222.607"/>
</g>
<!-- 2235680921136 -->
<g id="node24" class="node"><title>2235680921136</title>
<polygon fill="none" stroke="black" points="89.5,-83.5 89.5,-129.5 365.5,-129.5 365.5,-83.5 89.5,-83.5"/>
<text text-anchor="middle" x="154.5" y="-102.8" font-family="Times New Roman,serif" font-size="14.00">dropout_2: Dropout</text>
<polyline fill="none" stroke="black" points="219.5,-83.5 219.5,-129.5 "/>
<text text-anchor="middle" x="247.5" y="-114.3" font-family="Times New Roman,serif" font-size="14.00">input:</text>
<polyline fill="none" stroke="black" points="219.5,-106.5 275.5,-106.5 "/>
<text text-anchor="middle" x="247.5" y="-91.3" font-family="Times New Roman,serif" font-size="14.00">output:</text>
<polyline fill="none" stroke="black" points="275.5,-83.5 275.5,-129.5 "/>
<text text-anchor="middle" x="320.5" y="-114.3" font-family="Times New Roman,serif" font-size="14.00">(None, 4096)</text>
<polyline fill="none" stroke="black" points="275.5,-106.5 365.5,-106.5 "/>
<text text-anchor="middle" x="320.5" y="-91.3" font-family="Times New Roman,serif" font-size="14.00">(None, 4096)</text>
</g>
<!-- 2235680920800&#45;&gt;2235680921136 -->
<g id="edge23" class="edge"><title>2235680920800&#45;&gt;2235680921136</title>
<path fill="none" stroke="black" d="M227.5,-166.366C227.5,-158.152 227.5,-148.658 227.5,-139.725"/>
<polygon fill="black" stroke="black" points="231,-139.607 227.5,-129.607 224,-139.607 231,-139.607"/>
</g>
<!-- 2235680921192 -->
<g id="node25" class="node"><title>2235680921192</title>
<polygon fill="none" stroke="black" points="102.5,-0.5 102.5,-46.5 352.5,-46.5 352.5,-0.5 102.5,-0.5"/>
<text text-anchor="middle" x="154.5" y="-19.8" font-family="Times New Roman,serif" font-size="14.00">dense_3: Dense</text>
<polyline fill="none" stroke="black" points="206.5,-0.5 206.5,-46.5 "/>
<text text-anchor="middle" x="234.5" y="-31.3" font-family="Times New Roman,serif" font-size="14.00">input:</text>
<polyline fill="none" stroke="black" points="206.5,-23.5 262.5,-23.5 "/>
<text text-anchor="middle" x="234.5" y="-8.3" font-family="Times New Roman,serif" font-size="14.00">output:</text>
<polyline fill="none" stroke="black" points="262.5,-0.5 262.5,-46.5 "/>
<text text-anchor="middle" x="307.5" y="-31.3" font-family="Times New Roman,serif" font-size="14.00">(None, 4096)</text>
<polyline fill="none" stroke="black" points="262.5,-23.5 352.5,-23.5 "/>
<text text-anchor="middle" x="307.5" y="-8.3" font-family="Times New Roman,serif" font-size="14.00">(None, 1)</text>
</g>
<!-- 2235680921136&#45;&gt;2235680921192 -->
<g id="edge24" class="edge"><title>2235680921136&#45;&gt;2235680921192</title>
<path fill="none" stroke="black" d="M227.5,-83.3664C227.5,-75.1516 227.5,-65.6579 227.5,-56.7252"/>
<polygon fill="black" stroke="black" points="231,-56.6068 227.5,-46.6068 224,-56.6069 231,-56.6068"/>
</g>
</g>
</svg>
