<?xml version="1.0" encoding="UTF-8" standalone="no"?>
<!DOCTYPE svg PUBLIC "-//W3C//DTD SVG 1.1//EN"
 "http://www.w3.org/Graphics/SVG/1.1/DTD/svg11.dtd">
<!-- Generated by graphviz version 2.38.0 (20140413.2041)
 -->
<!-- Title: G Pages: 1 -->
<svg width="412pt" height="2037pt"
 viewBox="0.00 0.00 412.00 2037.00" xmlns="http://www.w3.org/2000/svg" xmlns:xlink="http://www.w3.org/1999/xlink">
<g id="graph0" class="graph" transform="scale(1 1) rotate(0) translate(4 2033)">
<title>G</title>
<polygon fill="white" stroke="none" points="-4,4 -4,-2033 408,-2033 408,4 -4,4"/>
<!-- 2388688936072 -->
<g id="node1" class="node"><title>2388688936072</title>
<polygon fill="none" stroke="black" points="44.5,-1909.5 44.5,-1955.5 359.5,-1955.5 359.5,-1909.5 44.5,-1909.5"/>
<text text-anchor="middle" x="108" y="-1928.8" font-family="Times New Roman,serif" font-size="14.00">conv2d_1: Conv2D</text>
<polyline fill="none" stroke="black" points="171.5,-1909.5 171.5,-1955.5 "/>
<text text-anchor="middle" x="199.5" y="-1940.3" font-family="Times New Roman,serif" font-size="14.00">input:</text>
<polyline fill="none" stroke="black" points="171.5,-1932.5 227.5,-1932.5 "/>
<text text-anchor="middle" x="199.5" y="-1917.3" font-family="Times New Roman,serif" font-size="14.00">output:</text>
<polyline fill="none" stroke="black" points="227.5,-1909.5 227.5,-1955.5 "/>
<text text-anchor="middle" x="293.5" y="-1940.3" font-family="Times New Roman,serif" font-size="14.00">(None, 224, 224, 3)</text>
<polyline fill="none" stroke="black" points="227.5,-1932.5 359.5,-1932.5 "/>
<text text-anchor="middle" x="293.5" y="-1917.3" font-family="Times New Roman,serif" font-size="14.00">(None, 224, 224, 64)</text>
</g>
<!-- 2388689003408 -->
<g id="node2" class="node"><title>2388689003408</title>
<polygon fill="none" stroke="black" points="44.5,-1826.5 44.5,-1872.5 359.5,-1872.5 359.5,-1826.5 44.5,-1826.5"/>
<text text-anchor="middle" x="108" y="-1845.8" font-family="Times New Roman,serif" font-size="14.00">conv2d_2: Conv2D</text>
<polyline fill="none" stroke="black" points="171.5,-1826.5 171.5,-1872.5 "/>
<text text-anchor="middle" x="199.5" y="-1857.3" font-family="Times New Roman,serif" font-size="14.00">input:</text>
<polyline fill="none" stroke="black" points="171.5,-1849.5 227.5,-1849.5 "/>
<text text-anchor="middle" x="199.5" y="-1834.3" font-family="Times New Roman,serif" font-size="14.00">output:</text>
<polyline fill="none" stroke="black" points="227.5,-1826.5 227.5,-1872.5 "/>
<text text-anchor="middle" x="293.5" y="-1857.3" font-family="Times New Roman,serif" font-size="14.00">(None, 224, 224, 64)</text>
<polyline fill="none" stroke="black" points="227.5,-1849.5 359.5,-1849.5 "/>
<text text-anchor="middle" x="293.5" y="-1834.3" font-family="Times New Roman,serif" font-size="14.00">(None, 224, 224, 64)</text>
</g>
<!-- 2388688936072&#45;&gt;2388689003408 -->
<g id="edge2" class="edge"><title>2388688936072&#45;&gt;2388689003408</title>
<path fill="none" stroke="black" d="M202,-1909.37C202,-1901.15 202,-1891.66 202,-1882.73"/>
<polygon fill="black" stroke="black" points="205.5,-1882.61 202,-1872.61 198.5,-1882.61 205.5,-1882.61"/>
</g>
<!-- 2388689156584 -->
<g id="node3" class="node"><title>2388689156584</title>
<polygon fill="none" stroke="black" points="3.5,-1743.5 3.5,-1789.5 400.5,-1789.5 400.5,-1743.5 3.5,-1743.5"/>
<text text-anchor="middle" x="108" y="-1762.8" font-family="Times New Roman,serif" font-size="14.00">max_pooling2d_1: MaxPooling2D</text>
<polyline fill="none" stroke="black" points="212.5,-1743.5 212.5,-1789.5 "/>
<text text-anchor="middle" x="240.5" y="-1774.3" font-family="Times New Roman,serif" font-size="14.00">input:</text>
<polyline fill="none" stroke="black" points="212.5,-1766.5 268.5,-1766.5 "/>
<text text-anchor="middle" x="240.5" y="-1751.3" font-family="Times New Roman,serif" font-size="14.00">output:</text>
<polyline fill="none" stroke="black" points="268.5,-1743.5 268.5,-1789.5 "/>
<text text-anchor="middle" x="334.5" y="-1774.3" font-family="Times New Roman,serif" font-size="14.00">(None, 224, 224, 64)</text>
<polyline fill="none" stroke="black" points="268.5,-1766.5 400.5,-1766.5 "/>
<text text-anchor="middle" x="334.5" y="-1751.3" font-family="Times New Roman,serif" font-size="14.00">(None, 112, 112, 64)</text>
</g>
<!-- 2388689003408&#45;&gt;2388689156584 -->
<g id="edge3" class="edge"><title>2388689003408&#45;&gt;2388689156584</title>
<path fill="none" stroke="black" d="M202,-1826.37C202,-1818.15 202,-1808.66 202,-1799.73"/>
<polygon fill="black" stroke="black" points="205.5,-1799.61 202,-1789.61 198.5,-1799.61 205.5,-1799.61"/>
</g>
<!-- 2388689002960 -->
<g id="node4" class="node"><title>2388689002960</title>
<polygon fill="none" stroke="black" points="41,-1660.5 41,-1706.5 363,-1706.5 363,-1660.5 41,-1660.5"/>
<text text-anchor="middle" x="104.5" y="-1679.8" font-family="Times New Roman,serif" font-size="14.00">conv2d_3: Conv2D</text>
<polyline fill="none" stroke="black" points="168,-1660.5 168,-1706.5 "/>
<text text-anchor="middle" x="196" y="-1691.3" font-family="Times New Roman,serif" font-size="14.00">input:</text>
<polyline fill="none" stroke="black" points="168,-1683.5 224,-1683.5 "/>
<text text-anchor="middle" x="196" y="-1668.3" font-family="Times New Roman,serif" font-size="14.00">output:</text>
<polyline fill="none" stroke="black" points="224,-1660.5 224,-1706.5 "/>
<text text-anchor="middle" x="293.5" y="-1691.3" font-family="Times New Roman,serif" font-size="14.00">(None, 112, 112, 64)</text>
<polyline fill="none" stroke="black" points="224,-1683.5 363,-1683.5 "/>
<text text-anchor="middle" x="293.5" y="-1668.3" font-family="Times New Roman,serif" font-size="14.00">(None, 112, 112, 128)</text>
</g>
<!-- 2388689156584&#45;&gt;2388689002960 -->
<g id="edge4" class="edge"><title>2388689156584&#45;&gt;2388689002960</title>
<path fill="none" stroke="black" d="M202,-1743.37C202,-1735.15 202,-1725.66 202,-1716.73"/>
<polygon fill="black" stroke="black" points="205.5,-1716.61 202,-1706.61 198.5,-1716.61 205.5,-1716.61"/>
</g>
<!-- 2388689274416 -->
<g id="node5" class="node"><title>2388689274416</title>
<polygon fill="none" stroke="black" points="41,-1577.5 41,-1623.5 363,-1623.5 363,-1577.5 41,-1577.5"/>
<text text-anchor="middle" x="104.5" y="-1596.8" font-family="Times New Roman,serif" font-size="14.00">conv2d_4: Conv2D</text>
<polyline fill="none" stroke="black" points="168,-1577.5 168,-1623.5 "/>
<text text-anchor="middle" x="196" y="-1608.3" font-family="Times New Roman,serif" font-size="14.00">input:</text>
<polyline fill="none" stroke="black" points="168,-1600.5 224,-1600.5 "/>
<text text-anchor="middle" x="196" y="-1585.3" font-family="Times New Roman,serif" font-size="14.00">output:</text>
<polyline fill="none" stroke="black" points="224,-1577.5 224,-1623.5 "/>
<text text-anchor="middle" x="293.5" y="-1608.3" font-family="Times New Roman,serif" font-size="14.00">(None, 112, 112, 128)</text>
<polyline fill="none" stroke="black" points="224,-1600.5 363,-1600.5 "/>
<text text-anchor="middle" x="293.5" y="-1585.3" font-family="Times New Roman,serif" font-size="14.00">(None, 112, 112, 128)</text>
</g>
<!-- 2388689002960&#45;&gt;2388689274416 -->
<g id="edge5" class="edge"><title>2388689002960&#45;&gt;2388689274416</title>
<path fill="none" stroke="black" d="M202,-1660.37C202,-1652.15 202,-1642.66 202,-1633.73"/>
<polygon fill="black" stroke="black" points="205.5,-1633.61 202,-1623.61 198.5,-1633.61 205.5,-1633.61"/>
</g>
<!-- 2388689370528 -->
<g id="node6" class="node"><title>2388689370528</title>
<polygon fill="none" stroke="black" points="0,-1494.5 0,-1540.5 404,-1540.5 404,-1494.5 0,-1494.5"/>
<text text-anchor="middle" x="104.5" y="-1513.8" font-family="Times New Roman,serif" font-size="14.00">max_pooling2d_2: MaxPooling2D</text>
<polyline fill="none" stroke="black" points="209,-1494.5 209,-1540.5 "/>
<text text-anchor="middle" x="237" y="-1525.3" font-family="Times New Roman,serif" font-size="14.00">input:</text>
<polyline fill="none" stroke="black" points="209,-1517.5 265,-1517.5 "/>
<text text-anchor="middle" x="237" y="-1502.3" font-family="Times New Roman,serif" font-size="14.00">output:</text>
<polyline fill="none" stroke="black" points="265,-1494.5 265,-1540.5 "/>
<text text-anchor="middle" x="334.5" y="-1525.3" font-family="Times New Roman,serif" font-size="14.00">(None, 112, 112, 128)</text>
<polyline fill="none" stroke="black" points="265,-1517.5 404,-1517.5 "/>
<text text-anchor="middle" x="334.5" y="-1502.3" font-family="Times New Roman,serif" font-size="14.00">(None, 56, 56, 128)</text>
</g>
<!-- 2388689274416&#45;&gt;2388689370528 -->
<g id="edge6" class="edge"><title>2388689274416&#45;&gt;2388689370528</title>
<path fill="none" stroke="black" d="M202,-1577.37C202,-1569.15 202,-1559.66 202,-1550.73"/>
<polygon fill="black" stroke="black" points="205.5,-1550.61 202,-1540.61 198.5,-1550.61 205.5,-1550.61"/>
</g>
<!-- 2388689154568 -->
<g id="node7" class="node"><title>2388689154568</title>
<polygon fill="none" stroke="black" points="48,-1411.5 48,-1457.5 356,-1457.5 356,-1411.5 48,-1411.5"/>
<text text-anchor="middle" x="111.5" y="-1430.8" font-family="Times New Roman,serif" font-size="14.00">conv2d_5: Conv2D</text>
<polyline fill="none" stroke="black" points="175,-1411.5 175,-1457.5 "/>
<text text-anchor="middle" x="203" y="-1442.3" font-family="Times New Roman,serif" font-size="14.00">input:</text>
<polyline fill="none" stroke="black" points="175,-1434.5 231,-1434.5 "/>
<text text-anchor="middle" x="203" y="-1419.3" font-family="Times New Roman,serif" font-size="14.00">output:</text>
<polyline fill="none" stroke="black" points="231,-1411.5 231,-1457.5 "/>
<text text-anchor="middle" x="293.5" y="-1442.3" font-family="Times New Roman,serif" font-size="14.00">(None, 56, 56, 128)</text>
<polyline fill="none" stroke="black" points="231,-1434.5 356,-1434.5 "/>
<text text-anchor="middle" x="293.5" y="-1419.3" font-family="Times New Roman,serif" font-size="14.00">(None, 56, 56, 256)</text>
</g>
<!-- 2388689370528&#45;&gt;2388689154568 -->
<g id="edge7" class="edge"><title>2388689370528&#45;&gt;2388689154568</title>
<path fill="none" stroke="black" d="M202,-1494.37C202,-1486.15 202,-1476.66 202,-1467.73"/>
<polygon fill="black" stroke="black" points="205.5,-1467.61 202,-1457.61 198.5,-1467.61 205.5,-1467.61"/>
</g>
<!-- 2388689538968 -->
<g id="node8" class="node"><title>2388689538968</title>
<polygon fill="none" stroke="black" points="48,-1328.5 48,-1374.5 356,-1374.5 356,-1328.5 48,-1328.5"/>
<text text-anchor="middle" x="111.5" y="-1347.8" font-family="Times New Roman,serif" font-size="14.00">conv2d_6: Conv2D</text>
<polyline fill="none" stroke="black" points="175,-1328.5 175,-1374.5 "/>
<text text-anchor="middle" x="203" y="-1359.3" font-family="Times New Roman,serif" font-size="14.00">input:</text>
<polyline fill="none" stroke="black" points="175,-1351.5 231,-1351.5 "/>
<text text-anchor="middle" x="203" y="-1336.3" font-family="Times New Roman,serif" font-size="14.00">output:</text>
<polyline fill="none" stroke="black" points="231,-1328.5 231,-1374.5 "/>
<text text-anchor="middle" x="293.5" y="-1359.3" font-family="Times New Roman,serif" font-size="14.00">(None, 56, 56, 256)</text>
<polyline fill="none" stroke="black" points="231,-1351.5 356,-1351.5 "/>
<text text-anchor="middle" x="293.5" y="-1336.3" font-family="Times New Roman,serif" font-size="14.00">(None, 56, 56, 256)</text>
</g>
<!-- 2388689154568&#45;&gt;2388689538968 -->
<g id="edge8" class="edge"><title>2388689154568&#45;&gt;2388689538968</title>
<path fill="none" stroke="black" d="M202,-1411.37C202,-1403.15 202,-1393.66 202,-1384.73"/>
<polygon fill="black" stroke="black" points="205.5,-1384.61 202,-1374.61 198.5,-1384.61 205.5,-1384.61"/>
</g>
<!-- 2388689619432 -->
<g id="node9" class="node"><title>2388689619432</title>
<polygon fill="none" stroke="black" points="48,-1245.5 48,-1291.5 356,-1291.5 356,-1245.5 48,-1245.5"/>
<text text-anchor="middle" x="111.5" y="-1264.8" font-family="Times New Roman,serif" font-size="14.00">conv2d_7: Conv2D</text>
<polyline fill="none" stroke="black" points="175,-1245.5 175,-1291.5 "/>
<text text-anchor="middle" x="203" y="-1276.3" font-family="Times New Roman,serif" font-size="14.00">input:</text>
<polyline fill="none" stroke="black" points="175,-1268.5 231,-1268.5 "/>
<text text-anchor="middle" x="203" y="-1253.3" font-family="Times New Roman,serif" font-size="14.00">output:</text>
<polyline fill="none" stroke="black" points="231,-1245.5 231,-1291.5 "/>
<text text-anchor="middle" x="293.5" y="-1276.3" font-family="Times New Roman,serif" font-size="14.00">(None, 56, 56, 256)</text>
<polyline fill="none" stroke="black" points="231,-1268.5 356,-1268.5 "/>
<text text-anchor="middle" x="293.5" y="-1253.3" font-family="Times New Roman,serif" font-size="14.00">(None, 56, 56, 256)</text>
</g>
<!-- 2388689538968&#45;&gt;2388689619432 -->
<g id="edge9" class="edge"><title>2388689538968&#45;&gt;2388689619432</title>
<path fill="none" stroke="black" d="M202,-1328.37C202,-1320.15 202,-1310.66 202,-1301.73"/>
<polygon fill="black" stroke="black" points="205.5,-1301.61 202,-1291.61 198.5,-1301.61 205.5,-1301.61"/>
</g>
<!-- 2388689710496 -->
<g id="node10" class="node"><title>2388689710496</title>
<polygon fill="none" stroke="black" points="7,-1162.5 7,-1208.5 397,-1208.5 397,-1162.5 7,-1162.5"/>
<text text-anchor="middle" x="111.5" y="-1181.8" font-family="Times New Roman,serif" font-size="14.00">max_pooling2d_3: MaxPooling2D</text>
<polyline fill="none" stroke="black" points="216,-1162.5 216,-1208.5 "/>
<text text-anchor="middle" x="244" y="-1193.3" font-family="Times New Roman,serif" font-size="14.00">input:</text>
<polyline fill="none" stroke="black" points="216,-1185.5 272,-1185.5 "/>
<text text-anchor="middle" x="244" y="-1170.3" font-family="Times New Roman,serif" font-size="14.00">output:</text>
<polyline fill="none" stroke="black" points="272,-1162.5 272,-1208.5 "/>
<text text-anchor="middle" x="334.5" y="-1193.3" font-family="Times New Roman,serif" font-size="14.00">(None, 56, 56, 256)</text>
<polyline fill="none" stroke="black" points="272,-1185.5 397,-1185.5 "/>
<text text-anchor="middle" x="334.5" y="-1170.3" font-family="Times New Roman,serif" font-size="14.00">(None, 28, 28, 256)</text>
</g>
<!-- 2388689619432&#45;&gt;2388689710496 -->
<g id="edge10" class="edge"><title>2388689619432&#45;&gt;2388689710496</title>
<path fill="none" stroke="black" d="M202,-1245.37C202,-1237.15 202,-1227.66 202,-1218.73"/>
<polygon fill="black" stroke="black" points="205.5,-1218.61 202,-1208.61 198.5,-1218.61 205.5,-1218.61"/>
</g>
<!-- 2388689370808 -->
<g id="node11" class="node"><title>2388689370808</title>
<polygon fill="none" stroke="black" points="48,-1079.5 48,-1125.5 356,-1125.5 356,-1079.5 48,-1079.5"/>
<text text-anchor="middle" x="111.5" y="-1098.8" font-family="Times New Roman,serif" font-size="14.00">conv2d_8: Conv2D</text>
<polyline fill="none" stroke="black" points="175,-1079.5 175,-1125.5 "/>
<text text-anchor="middle" x="203" y="-1110.3" font-family="Times New Roman,serif" font-size="14.00">input:</text>
<polyline fill="none" stroke="black" points="175,-1102.5 231,-1102.5 "/>
<text text-anchor="middle" x="203" y="-1087.3" font-family="Times New Roman,serif" font-size="14.00">output:</text>
<polyline fill="none" stroke="black" points="231,-1079.5 231,-1125.5 "/>
<text text-anchor="middle" x="293.5" y="-1110.3" font-family="Times New Roman,serif" font-size="14.00">(None, 28, 28, 256)</text>
<polyline fill="none" stroke="black" points="231,-1102.5 356,-1102.5 "/>
<text text-anchor="middle" x="293.5" y="-1087.3" font-family="Times New Roman,serif" font-size="14.00">(None, 28, 28, 512)</text>
</g>
<!-- 2388689710496&#45;&gt;2388689370808 -->
<g id="edge11" class="edge"><title>2388689710496&#45;&gt;2388689370808</title>
<path fill="none" stroke="black" d="M202,-1162.37C202,-1154.15 202,-1144.66 202,-1135.73"/>
<polygon fill="black" stroke="black" points="205.5,-1135.61 202,-1125.61 198.5,-1135.61 205.5,-1135.61"/>
</g>
<!-- 2388689899416 -->
<g id="node12" class="node"><title>2388689899416</title>
<polygon fill="none" stroke="black" points="48,-996.5 48,-1042.5 356,-1042.5 356,-996.5 48,-996.5"/>
<text text-anchor="middle" x="111.5" y="-1015.8" font-family="Times New Roman,serif" font-size="14.00">conv2d_9: Conv2D</text>
<polyline fill="none" stroke="black" points="175,-996.5 175,-1042.5 "/>
<text text-anchor="middle" x="203" y="-1027.3" font-family="Times New Roman,serif" font-size="14.00">input:</text>
<polyline fill="none" stroke="black" points="175,-1019.5 231,-1019.5 "/>
<text text-anchor="middle" x="203" y="-1004.3" font-family="Times New Roman,serif" font-size="14.00">output:</text>
<polyline fill="none" stroke="black" points="231,-996.5 231,-1042.5 "/>
<text text-anchor="middle" x="293.5" y="-1027.3" font-family="Times New Roman,serif" font-size="14.00">(None, 28, 28, 512)</text>
<polyline fill="none" stroke="black" points="231,-1019.5 356,-1019.5 "/>
<text text-anchor="middle" x="293.5" y="-1004.3" font-family="Times New Roman,serif" font-size="14.00">(None, 28, 28, 512)</text>
</g>
<!-- 2388689370808&#45;&gt;2388689899416 -->
<g id="edge12" class="edge"><title>2388689370808&#45;&gt;2388689899416</title>
<path fill="none" stroke="black" d="M202,-1079.37C202,-1071.15 202,-1061.66 202,-1052.73"/>
<polygon fill="black" stroke="black" points="205.5,-1052.61 202,-1042.61 198.5,-1052.61 205.5,-1052.61"/>
</g>
<!-- 2388689983976 -->
<g id="node13" class="node"><title>2388689983976</title>
<polygon fill="none" stroke="black" points="44.5,-913.5 44.5,-959.5 359.5,-959.5 359.5,-913.5 44.5,-913.5"/>
<text text-anchor="middle" x="111.5" y="-932.8" font-family="Times New Roman,serif" font-size="14.00">conv2d_10: Conv2D</text>
<polyline fill="none" stroke="black" points="178.5,-913.5 178.5,-959.5 "/>
<text text-anchor="middle" x="206.5" y="-944.3" font-family="Times New Roman,serif" font-size="14.00">input:</text>
<polyline fill="none" stroke="black" points="178.5,-936.5 234.5,-936.5 "/>
<text text-anchor="middle" x="206.5" y="-921.3" font-family="Times New Roman,serif" font-size="14.00">output:</text>
<polyline fill="none" stroke="black" points="234.5,-913.5 234.5,-959.5 "/>
<text text-anchor="middle" x="297" y="-944.3" font-family="Times New Roman,serif" font-size="14.00">(None, 28, 28, 512)</text>
<polyline fill="none" stroke="black" points="234.5,-936.5 359.5,-936.5 "/>
<text text-anchor="middle" x="297" y="-921.3" font-family="Times New Roman,serif" font-size="14.00">(None, 28, 28, 512)</text>
</g>
<!-- 2388689899416&#45;&gt;2388689983976 -->
<g id="edge13" class="edge"><title>2388689899416&#45;&gt;2388689983976</title>
<path fill="none" stroke="black" d="M202,-996.366C202,-988.152 202,-978.658 202,-969.725"/>
<polygon fill="black" stroke="black" points="205.5,-969.607 202,-959.607 198.5,-969.607 205.5,-969.607"/>
</g>
<!-- 2388690066848 -->
<g id="node14" class="node"><title>2388690066848</title>
<polygon fill="none" stroke="black" points="7,-830.5 7,-876.5 397,-876.5 397,-830.5 7,-830.5"/>
<text text-anchor="middle" x="111.5" y="-849.8" font-family="Times New Roman,serif" font-size="14.00">max_pooling2d_4: MaxPooling2D</text>
<polyline fill="none" stroke="black" points="216,-830.5 216,-876.5 "/>
<text text-anchor="middle" x="244" y="-861.3" font-family="Times New Roman,serif" font-size="14.00">input:</text>
<polyline fill="none" stroke="black" points="216,-853.5 272,-853.5 "/>
<text text-anchor="middle" x="244" y="-838.3" font-family="Times New Roman,serif" font-size="14.00">output:</text>
<polyline fill="none" stroke="black" points="272,-830.5 272,-876.5 "/>
<text text-anchor="middle" x="334.5" y="-861.3" font-family="Times New Roman,serif" font-size="14.00">(None, 28, 28, 512)</text>
<polyline fill="none" stroke="black" points="272,-853.5 397,-853.5 "/>
<text text-anchor="middle" x="334.5" y="-838.3" font-family="Times New Roman,serif" font-size="14.00">(None, 14, 14, 512)</text>
</g>
<!-- 2388689983976&#45;&gt;2388690066848 -->
<g id="edge14" class="edge"><title>2388689983976&#45;&gt;2388690066848</title>
<path fill="none" stroke="black" d="M202,-913.366C202,-905.152 202,-895.658 202,-886.725"/>
<polygon fill="black" stroke="black" points="205.5,-886.607 202,-876.607 198.5,-886.607 205.5,-886.607"/>
</g>
<!-- 2388689710776 -->
<g id="node15" class="node"><title>2388689710776</title>
<polygon fill="none" stroke="black" points="44.5,-747.5 44.5,-793.5 359.5,-793.5 359.5,-747.5 44.5,-747.5"/>
<text text-anchor="middle" x="111.5" y="-766.8" font-family="Times New Roman,serif" font-size="14.00">conv2d_11: Conv2D</text>
<polyline fill="none" stroke="black" points="178.5,-747.5 178.5,-793.5 "/>
<text text-anchor="middle" x="206.5" y="-778.3" font-family="Times New Roman,serif" font-size="14.00">input:</text>
<polyline fill="none" stroke="black" points="178.5,-770.5 234.5,-770.5 "/>
<text text-anchor="middle" x="206.5" y="-755.3" font-family="Times New Roman,serif" font-size="14.00">output:</text>
<polyline fill="none" stroke="black" points="234.5,-747.5 234.5,-793.5 "/>
<text text-anchor="middle" x="297" y="-778.3" font-family="Times New Roman,serif" font-size="14.00">(None, 14, 14, 512)</text>
<polyline fill="none" stroke="black" points="234.5,-770.5 359.5,-770.5 "/>
<text text-anchor="middle" x="297" y="-755.3" font-family="Times New Roman,serif" font-size="14.00">(None, 14, 14, 512)</text>
</g>
<!-- 2388690066848&#45;&gt;2388689710776 -->
<g id="edge15" class="edge"><title>2388690066848&#45;&gt;2388689710776</title>
<path fill="none" stroke="black" d="M202,-830.366C202,-822.152 202,-812.658 202,-803.725"/>
<polygon fill="black" stroke="black" points="205.5,-803.607 202,-793.607 198.5,-803.607 205.5,-803.607"/>
</g>
<!-- 2388690259864 -->
<g id="node16" class="node"><title>2388690259864</title>
<polygon fill="none" stroke="black" points="44.5,-664.5 44.5,-710.5 359.5,-710.5 359.5,-664.5 44.5,-664.5"/>
<text text-anchor="middle" x="111.5" y="-683.8" font-family="Times New Roman,serif" font-size="14.00">conv2d_12: Conv2D</text>
<polyline fill="none" stroke="black" points="178.5,-664.5 178.5,-710.5 "/>
<text text-anchor="middle" x="206.5" y="-695.3" font-family="Times New Roman,serif" font-size="14.00">input:</text>
<polyline fill="none" stroke="black" points="178.5,-687.5 234.5,-687.5 "/>
<text text-anchor="middle" x="206.5" y="-672.3" font-family="Times New Roman,serif" font-size="14.00">output:</text>
<polyline fill="none" stroke="black" points="234.5,-664.5 234.5,-710.5 "/>
<text text-anchor="middle" x="297" y="-695.3" font-family="Times New Roman,serif" font-size="14.00">(None, 14, 14, 512)</text>
<polyline fill="none" stroke="black" points="234.5,-687.5 359.5,-687.5 "/>
<text text-anchor="middle" x="297" y="-672.3" font-family="Times New Roman,serif" font-size="14.00">(None, 14, 14, 512)</text>
</g>
<!-- 2388689710776&#45;&gt;2388690259864 -->
<g id="edge16" class="edge"><title>2388689710776&#45;&gt;2388690259864</title>
<path fill="none" stroke="black" d="M202,-747.366C202,-739.152 202,-729.658 202,-720.725"/>
<polygon fill="black" stroke="black" points="205.5,-720.607 202,-710.607 198.5,-720.607 205.5,-720.607"/>
</g>
<!-- 2388690336232 -->
<g id="node17" class="node"><title>2388690336232</title>
<polygon fill="none" stroke="black" points="44.5,-581.5 44.5,-627.5 359.5,-627.5 359.5,-581.5 44.5,-581.5"/>
<text text-anchor="middle" x="111.5" y="-600.8" font-family="Times New Roman,serif" font-size="14.00">conv2d_13: Conv2D</text>
<polyline fill="none" stroke="black" points="178.5,-581.5 178.5,-627.5 "/>
<text text-anchor="middle" x="206.5" y="-612.3" font-family="Times New Roman,serif" font-size="14.00">input:</text>
<polyline fill="none" stroke="black" points="178.5,-604.5 234.5,-604.5 "/>
<text text-anchor="middle" x="206.5" y="-589.3" font-family="Times New Roman,serif" font-size="14.00">output:</text>
<polyline fill="none" stroke="black" points="234.5,-581.5 234.5,-627.5 "/>
<text text-anchor="middle" x="297" y="-612.3" font-family="Times New Roman,serif" font-size="14.00">(None, 14, 14, 512)</text>
<polyline fill="none" stroke="black" points="234.5,-604.5 359.5,-604.5 "/>
<text text-anchor="middle" x="297" y="-589.3" font-family="Times New Roman,serif" font-size="14.00">(None, 14, 14, 512)</text>
</g>
<!-- 2388690259864&#45;&gt;2388690336232 -->
<g id="edge17" class="edge"><title>2388690259864&#45;&gt;2388690336232</title>
<path fill="none" stroke="black" d="M202,-664.366C202,-656.152 202,-646.658 202,-637.725"/>
<polygon fill="black" stroke="black" points="205.5,-637.607 202,-627.607 198.5,-637.607 205.5,-637.607"/>
</g>
<!-- 2388690419104 -->
<g id="node18" class="node"><title>2388690419104</title>
<polygon fill="none" stroke="black" points="7,-498.5 7,-544.5 397,-544.5 397,-498.5 7,-498.5"/>
<text text-anchor="middle" x="111.5" y="-517.8" font-family="Times New Roman,serif" font-size="14.00">max_pooling2d_5: MaxPooling2D</text>
<polyline fill="none" stroke="black" points="216,-498.5 216,-544.5 "/>
<text text-anchor="middle" x="244" y="-529.3" font-family="Times New Roman,serif" font-size="14.00">input:</text>
<polyline fill="none" stroke="black" points="216,-521.5 272,-521.5 "/>
<text text-anchor="middle" x="244" y="-506.3" font-family="Times New Roman,serif" font-size="14.00">output:</text>
<polyline fill="none" stroke="black" points="272,-498.5 272,-544.5 "/>
<text text-anchor="middle" x="334.5" y="-529.3" font-family="Times New Roman,serif" font-size="14.00">(None, 14, 14, 512)</text>
<polyline fill="none" stroke="black" points="272,-521.5 397,-521.5 "/>
<text text-anchor="middle" x="334.5" y="-506.3" font-family="Times New Roman,serif" font-size="14.00">(None, 7, 7, 512)</text>
</g>
<!-- 2388690336232&#45;&gt;2388690419104 -->
<g id="edge18" class="edge"><title>2388690336232&#45;&gt;2388690419104</title>
<path fill="none" stroke="black" d="M202,-581.366C202,-573.152 202,-563.658 202,-554.725"/>
<polygon fill="black" stroke="black" points="205.5,-554.607 202,-544.607 198.5,-554.607 205.5,-554.607"/>
</g>
<!-- 2388690067128 -->
<g id="node19" class="node"><title>2388690067128</title>
<polygon fill="none" stroke="black" points="63.5,-415.5 63.5,-461.5 340.5,-461.5 340.5,-415.5 63.5,-415.5"/>
<text text-anchor="middle" x="118" y="-434.8" font-family="Times New Roman,serif" font-size="14.00">flatten_1: Flatten</text>
<polyline fill="none" stroke="black" points="172.5,-415.5 172.5,-461.5 "/>
<text text-anchor="middle" x="200.5" y="-446.3" font-family="Times New Roman,serif" font-size="14.00">input:</text>
<polyline fill="none" stroke="black" points="172.5,-438.5 228.5,-438.5 "/>
<text text-anchor="middle" x="200.5" y="-423.3" font-family="Times New Roman,serif" font-size="14.00">output:</text>
<polyline fill="none" stroke="black" points="228.5,-415.5 228.5,-461.5 "/>
<text text-anchor="middle" x="284.5" y="-446.3" font-family="Times New Roman,serif" font-size="14.00">(None, 7, 7, 512)</text>
<polyline fill="none" stroke="black" points="228.5,-438.5 340.5,-438.5 "/>
<text text-anchor="middle" x="284.5" y="-423.3" font-family="Times New Roman,serif" font-size="14.00">(None, 25088)</text>
</g>
<!-- 2388690419104&#45;&gt;2388690067128 -->
<g id="edge19" class="edge"><title>2388690419104&#45;&gt;2388690067128</title>
<path fill="none" stroke="black" d="M202,-498.366C202,-490.152 202,-480.658 202,-471.725"/>
<polygon fill="black" stroke="black" points="205.5,-471.607 202,-461.607 198.5,-471.607 205.5,-471.607"/>
</g>
<!-- 2388690592488 -->
<g id="node20" class="node"><title>2388690592488</title>
<polygon fill="none" stroke="black" points="73.5,-332.5 73.5,-378.5 330.5,-378.5 330.5,-332.5 73.5,-332.5"/>
<text text-anchor="middle" x="125.5" y="-351.8" font-family="Times New Roman,serif" font-size="14.00">dense_1: Dense</text>
<polyline fill="none" stroke="black" points="177.5,-332.5 177.5,-378.5 "/>
<text text-anchor="middle" x="205.5" y="-363.3" font-family="Times New Roman,serif" font-size="14.00">input:</text>
<polyline fill="none" stroke="black" points="177.5,-355.5 233.5,-355.5 "/>
<text text-anchor="middle" x="205.5" y="-340.3" font-family="Times New Roman,serif" font-size="14.00">output:</text>
<polyline fill="none" stroke="black" points="233.5,-332.5 233.5,-378.5 "/>
<text text-anchor="middle" x="282" y="-363.3" font-family="Times New Roman,serif" font-size="14.00">(None, 25088)</text>
<polyline fill="none" stroke="black" points="233.5,-355.5 330.5,-355.5 "/>
<text text-anchor="middle" x="282" y="-340.3" font-family="Times New Roman,serif" font-size="14.00">(None, 4096)</text>
</g>
<!-- 2388690067128&#45;&gt;2388690592488 -->
<g id="edge20" class="edge"><title>2388690067128&#45;&gt;2388690592488</title>
<path fill="none" stroke="black" d="M202,-415.366C202,-407.152 202,-397.658 202,-388.725"/>
<polygon fill="black" stroke="black" points="205.5,-388.607 202,-378.607 198.5,-388.607 205.5,-388.607"/>
</g>
<!-- 2388690678840 -->
<g id="node21" class="node"><title>2388690678840</title>
<polygon fill="none" stroke="black" points="64,-249.5 64,-295.5 340,-295.5 340,-249.5 64,-249.5"/>
<text text-anchor="middle" x="129" y="-268.8" font-family="Times New Roman,serif" font-size="14.00">dropout_1: Dropout</text>
<polyline fill="none" stroke="black" points="194,-249.5 194,-295.5 "/>
<text text-anchor="middle" x="222" y="-280.3" font-family="Times New Roman,serif" font-size="14.00">input:</text>
<polyline fill="none" stroke="black" points="194,-272.5 250,-272.5 "/>
<text text-anchor="middle" x="222" y="-257.3" font-family="Times New Roman,serif" font-size="14.00">output:</text>
<polyline fill="none" stroke="black" points="250,-249.5 250,-295.5 "/>
<text text-anchor="middle" x="295" y="-280.3" font-family="Times New Roman,serif" font-size="14.00">(None, 4096)</text>
<polyline fill="none" stroke="black" points="250,-272.5 340,-272.5 "/>
<text text-anchor="middle" x="295" y="-257.3" font-family="Times New Roman,serif" font-size="14.00">(None, 4096)</text>
</g>
<!-- 2388690592488&#45;&gt;2388690678840 -->
<g id="edge21" class="edge"><title>2388690592488&#45;&gt;2388690678840</title>
<path fill="none" stroke="black" d="M202,-332.366C202,-324.152 202,-314.658 202,-305.725"/>
<polygon fill="black" stroke="black" points="205.5,-305.607 202,-295.607 198.5,-305.607 205.5,-305.607"/>
</g>
<!-- 2388690680296 -->
<g id="node22" class="node"><title>2388690680296</title>
<polygon fill="none" stroke="black" points="77,-166.5 77,-212.5 327,-212.5 327,-166.5 77,-166.5"/>
<text text-anchor="middle" x="129" y="-185.8" font-family="Times New Roman,serif" font-size="14.00">dense_2: Dense</text>
<polyline fill="none" stroke="black" points="181,-166.5 181,-212.5 "/>
<text text-anchor="middle" x="209" y="-197.3" font-family="Times New Roman,serif" font-size="14.00">input:</text>
<polyline fill="none" stroke="black" points="181,-189.5 237,-189.5 "/>
<text text-anchor="middle" x="209" y="-174.3" font-family="Times New Roman,serif" font-size="14.00">output:</text>
<polyline fill="none" stroke="black" points="237,-166.5 237,-212.5 "/>
<text text-anchor="middle" x="282" y="-197.3" font-family="Times New Roman,serif" font-size="14.00">(None, 4096)</text>
<polyline fill="none" stroke="black" points="237,-189.5 327,-189.5 "/>
<text text-anchor="middle" x="282" y="-174.3" font-family="Times New Roman,serif" font-size="14.00">(None, 4096)</text>
</g>
<!-- 2388690678840&#45;&gt;2388690680296 -->
<g id="edge22" class="edge"><title>2388690678840&#45;&gt;2388690680296</title>
<path fill="none" stroke="black" d="M202,-249.366C202,-241.152 202,-231.658 202,-222.725"/>
<polygon fill="black" stroke="black" points="205.5,-222.607 202,-212.607 198.5,-222.607 205.5,-222.607"/>
</g>
<!-- 2388690419384 -->
<g id="node23" class="node"><title>2388690419384</title>
<polygon fill="none" stroke="black" points="64,-83.5 64,-129.5 340,-129.5 340,-83.5 64,-83.5"/>
<text text-anchor="middle" x="129" y="-102.8" font-family="Times New Roman,serif" font-size="14.00">dropout_2: Dropout</text>
<polyline fill="none" stroke="black" points="194,-83.5 194,-129.5 "/>
<text text-anchor="middle" x="222" y="-114.3" font-family="Times New Roman,serif" font-size="14.00">input:</text>
<polyline fill="none" stroke="black" points="194,-106.5 250,-106.5 "/>
<text text-anchor="middle" x="222" y="-91.3" font-family="Times New Roman,serif" font-size="14.00">output:</text>
<polyline fill="none" stroke="black" points="250,-83.5 250,-129.5 "/>
<text text-anchor="middle" x="295" y="-114.3" font-family="Times New Roman,serif" font-size="14.00">(None, 4096)</text>
<polyline fill="none" stroke="black" points="250,-106.5 340,-106.5 "/>
<text text-anchor="middle" x="295" y="-91.3" font-family="Times New Roman,serif" font-size="14.00">(None, 4096)</text>
</g>
<!-- 2388690680296&#45;&gt;2388690419384 -->
<g id="edge23" class="edge"><title>2388690680296&#45;&gt;2388690419384</title>
<path fill="none" stroke="black" d="M202,-166.366C202,-158.152 202,-148.658 202,-139.725"/>
<polygon fill="black" stroke="black" points="205.5,-139.607 202,-129.607 198.5,-139.607 205.5,-139.607"/>
</g>
<!-- 2388690797288 -->
<g id="node24" class="node"><title>2388690797288</title>
<polygon fill="none" stroke="black" points="77,-0.5 77,-46.5 327,-46.5 327,-0.5 77,-0.5"/>
<text text-anchor="middle" x="129" y="-19.8" font-family="Times New Roman,serif" font-size="14.00">dense_3: Dense</text>
<polyline fill="none" stroke="black" points="181,-0.5 181,-46.5 "/>
<text text-anchor="middle" x="209" y="-31.3" font-family="Times New Roman,serif" font-size="14.00">input:</text>
<polyline fill="none" stroke="black" points="181,-23.5 237,-23.5 "/>
<text text-anchor="middle" x="209" y="-8.3" font-family="Times New Roman,serif" font-size="14.00">output:</text>
<polyline fill="none" stroke="black" points="237,-0.5 237,-46.5 "/>
<text text-anchor="middle" x="282" y="-31.3" font-family="Times New Roman,serif" font-size="14.00">(None, 4096)</text>
<polyline fill="none" stroke="black" points="237,-23.5 327,-23.5 "/>
<text text-anchor="middle" x="282" y="-8.3" font-family="Times New Roman,serif" font-size="14.00">(None, 1)</text>
</g>
<!-- 2388690419384&#45;&gt;2388690797288 -->
<g id="edge24" class="edge"><title>2388690419384&#45;&gt;2388690797288</title>
<path fill="none" stroke="black" d="M202,-83.3664C202,-75.1516 202,-65.6579 202,-56.7252"/>
<polygon fill="black" stroke="black" points="205.5,-56.6068 202,-46.6068 198.5,-56.6069 205.5,-56.6068"/>
</g>
<!-- 2388688936128 -->
<g id="node25" class="node"><title>2388688936128</title>
<polygon fill="none" stroke="black" points="150,-1992.5 150,-2028.5 254,-2028.5 254,-1992.5 150,-1992.5"/>
<text text-anchor="middle" x="202" y="-2006.8" font-family="Times New Roman,serif" font-size="14.00">2388688936128</text>
</g>
<!-- 2388688936128&#45;&gt;2388688936072 -->
<g id="edge1" class="edge"><title>2388688936128&#45;&gt;2388688936072</title>
<path fill="none" stroke="black" d="M202,-1992.25C202,-1984.36 202,-1974.75 202,-1965.6"/>
<polygon fill="black" stroke="black" points="205.5,-1965.59 202,-1955.59 198.5,-1965.59 205.5,-1965.59"/>
</g>
</g>
</svg>
