<?xml version="1.0" encoding="UTF-8" standalone="no"?>
<!DOCTYPE svg PUBLIC "-//W3C//DTD SVG 1.1//EN"
 "http://www.w3.org/Graphics/SVG/1.1/DTD/svg11.dtd">
<!-- Generated by graphviz version 2.38.0 (20140413.2041)
 -->
<!-- Title: G Pages: 1 -->
<svg width="405pt" height="2037pt"
 viewBox="0.00 0.00 405.00 2037.00" xmlns="http://www.w3.org/2000/svg" xmlns:xlink="http://www.w3.org/1999/xlink">
<g id="graph0" class="graph" transform="scale(1 1) rotate(0) translate(4 2033)">
<title>G</title>
<polygon fill="white" stroke="none" points="-4,4 -4,-2033 401,-2033 401,4 -4,4"/>
<!-- 2009453835488 -->
<g id="node1" class="node"><title>2009453835488</title>
<polygon fill="none" stroke="black" points="41,-1909.5 41,-1955.5 356,-1955.5 356,-1909.5 41,-1909.5"/>
<text text-anchor="middle" x="104.5" y="-1928.8" font-family="Times New Roman,serif" font-size="14.00">conv2d_1: Conv2D</text>
<polyline fill="none" stroke="black" points="168,-1909.5 168,-1955.5 "/>
<text text-anchor="middle" x="196" y="-1940.3" font-family="Times New Roman,serif" font-size="14.00">input:</text>
<polyline fill="none" stroke="black" points="168,-1932.5 224,-1932.5 "/>
<text text-anchor="middle" x="196" y="-1917.3" font-family="Times New Roman,serif" font-size="14.00">output:</text>
<polyline fill="none" stroke="black" points="224,-1909.5 224,-1955.5 "/>
<text text-anchor="middle" x="290" y="-1940.3" font-family="Times New Roman,serif" font-size="14.00">(None, 256, 256, 3)</text>
<polyline fill="none" stroke="black" points="224,-1932.5 356,-1932.5 "/>
<text text-anchor="middle" x="290" y="-1917.3" font-family="Times New Roman,serif" font-size="14.00">(None, 256, 256, 16)</text>
</g>
<!-- 2009453837224 -->
<g id="node2" class="node"><title>2009453837224</title>
<polygon fill="none" stroke="black" points="41,-1826.5 41,-1872.5 356,-1872.5 356,-1826.5 41,-1826.5"/>
<text text-anchor="middle" x="104.5" y="-1845.8" font-family="Times New Roman,serif" font-size="14.00">conv2d_2: Conv2D</text>
<polyline fill="none" stroke="black" points="168,-1826.5 168,-1872.5 "/>
<text text-anchor="middle" x="196" y="-1857.3" font-family="Times New Roman,serif" font-size="14.00">input:</text>
<polyline fill="none" stroke="black" points="168,-1849.5 224,-1849.5 "/>
<text text-anchor="middle" x="196" y="-1834.3" font-family="Times New Roman,serif" font-size="14.00">output:</text>
<polyline fill="none" stroke="black" points="224,-1826.5 224,-1872.5 "/>
<text text-anchor="middle" x="290" y="-1857.3" font-family="Times New Roman,serif" font-size="14.00">(None, 256, 256, 16)</text>
<polyline fill="none" stroke="black" points="224,-1849.5 356,-1849.5 "/>
<text text-anchor="middle" x="290" y="-1834.3" font-family="Times New Roman,serif" font-size="14.00">(None, 256, 256, 16)</text>
</g>
<!-- 2009453835488&#45;&gt;2009453837224 -->
<g id="edge2" class="edge"><title>2009453835488&#45;&gt;2009453837224</title>
<path fill="none" stroke="black" d="M198.5,-1909.37C198.5,-1901.15 198.5,-1891.66 198.5,-1882.73"/>
<polygon fill="black" stroke="black" points="202,-1882.61 198.5,-1872.61 195,-1882.61 202,-1882.61"/>
</g>
<!-- 2009453985408 -->
<g id="node3" class="node"><title>2009453985408</title>
<polygon fill="none" stroke="black" points="0,-1743.5 0,-1789.5 397,-1789.5 397,-1743.5 0,-1743.5"/>
<text text-anchor="middle" x="104.5" y="-1762.8" font-family="Times New Roman,serif" font-size="14.00">max_pooling2d_1: MaxPooling2D</text>
<polyline fill="none" stroke="black" points="209,-1743.5 209,-1789.5 "/>
<text text-anchor="middle" x="237" y="-1774.3" font-family="Times New Roman,serif" font-size="14.00">input:</text>
<polyline fill="none" stroke="black" points="209,-1766.5 265,-1766.5 "/>
<text text-anchor="middle" x="237" y="-1751.3" font-family="Times New Roman,serif" font-size="14.00">output:</text>
<polyline fill="none" stroke="black" points="265,-1743.5 265,-1789.5 "/>
<text text-anchor="middle" x="331" y="-1774.3" font-family="Times New Roman,serif" font-size="14.00">(None, 256, 256, 16)</text>
<polyline fill="none" stroke="black" points="265,-1766.5 397,-1766.5 "/>
<text text-anchor="middle" x="331" y="-1751.3" font-family="Times New Roman,serif" font-size="14.00">(None, 128, 128, 16)</text>
</g>
<!-- 2009453837224&#45;&gt;2009453985408 -->
<g id="edge3" class="edge"><title>2009453837224&#45;&gt;2009453985408</title>
<path fill="none" stroke="black" d="M198.5,-1826.37C198.5,-1818.15 198.5,-1808.66 198.5,-1799.73"/>
<polygon fill="black" stroke="black" points="202,-1799.61 198.5,-1789.61 195,-1799.61 202,-1799.61"/>
</g>
<!-- 2009453836776 -->
<g id="node4" class="node"><title>2009453836776</title>
<polygon fill="none" stroke="black" points="41,-1660.5 41,-1706.5 356,-1706.5 356,-1660.5 41,-1660.5"/>
<text text-anchor="middle" x="104.5" y="-1679.8" font-family="Times New Roman,serif" font-size="14.00">conv2d_3: Conv2D</text>
<polyline fill="none" stroke="black" points="168,-1660.5 168,-1706.5 "/>
<text text-anchor="middle" x="196" y="-1691.3" font-family="Times New Roman,serif" font-size="14.00">input:</text>
<polyline fill="none" stroke="black" points="168,-1683.5 224,-1683.5 "/>
<text text-anchor="middle" x="196" y="-1668.3" font-family="Times New Roman,serif" font-size="14.00">output:</text>
<polyline fill="none" stroke="black" points="224,-1660.5 224,-1706.5 "/>
<text text-anchor="middle" x="290" y="-1691.3" font-family="Times New Roman,serif" font-size="14.00">(None, 128, 128, 16)</text>
<polyline fill="none" stroke="black" points="224,-1683.5 356,-1683.5 "/>
<text text-anchor="middle" x="290" y="-1668.3" font-family="Times New Roman,serif" font-size="14.00">(None, 128, 128, 32)</text>
</g>
<!-- 2009453985408&#45;&gt;2009453836776 -->
<g id="edge4" class="edge"><title>2009453985408&#45;&gt;2009453836776</title>
<path fill="none" stroke="black" d="M198.5,-1743.37C198.5,-1735.15 198.5,-1725.66 198.5,-1716.73"/>
<polygon fill="black" stroke="black" points="202,-1716.61 198.5,-1706.61 195,-1716.61 202,-1716.61"/>
</g>
<!-- 2009454185552 -->
<g id="node5" class="node"><title>2009454185552</title>
<polygon fill="none" stroke="black" points="41,-1577.5 41,-1623.5 356,-1623.5 356,-1577.5 41,-1577.5"/>
<text text-anchor="middle" x="104.5" y="-1596.8" font-family="Times New Roman,serif" font-size="14.00">conv2d_4: Conv2D</text>
<polyline fill="none" stroke="black" points="168,-1577.5 168,-1623.5 "/>
<text text-anchor="middle" x="196" y="-1608.3" font-family="Times New Roman,serif" font-size="14.00">input:</text>
<polyline fill="none" stroke="black" points="168,-1600.5 224,-1600.5 "/>
<text text-anchor="middle" x="196" y="-1585.3" font-family="Times New Roman,serif" font-size="14.00">output:</text>
<polyline fill="none" stroke="black" points="224,-1577.5 224,-1623.5 "/>
<text text-anchor="middle" x="290" y="-1608.3" font-family="Times New Roman,serif" font-size="14.00">(None, 128, 128, 32)</text>
<polyline fill="none" stroke="black" points="224,-1600.5 356,-1600.5 "/>
<text text-anchor="middle" x="290" y="-1585.3" font-family="Times New Roman,serif" font-size="14.00">(None, 128, 128, 32)</text>
</g>
<!-- 2009453836776&#45;&gt;2009454185552 -->
<g id="edge5" class="edge"><title>2009453836776&#45;&gt;2009454185552</title>
<path fill="none" stroke="black" d="M198.5,-1660.37C198.5,-1652.15 198.5,-1642.66 198.5,-1633.73"/>
<polygon fill="black" stroke="black" points="202,-1633.61 198.5,-1623.61 195,-1633.61 202,-1633.61"/>
</g>
<!-- 2009454269944 -->
<g id="node6" class="node"><title>2009454269944</title>
<polygon fill="none" stroke="black" points="0,-1494.5 0,-1540.5 397,-1540.5 397,-1494.5 0,-1494.5"/>
<text text-anchor="middle" x="104.5" y="-1513.8" font-family="Times New Roman,serif" font-size="14.00">max_pooling2d_2: MaxPooling2D</text>
<polyline fill="none" stroke="black" points="209,-1494.5 209,-1540.5 "/>
<text text-anchor="middle" x="237" y="-1525.3" font-family="Times New Roman,serif" font-size="14.00">input:</text>
<polyline fill="none" stroke="black" points="209,-1517.5 265,-1517.5 "/>
<text text-anchor="middle" x="237" y="-1502.3" font-family="Times New Roman,serif" font-size="14.00">output:</text>
<polyline fill="none" stroke="black" points="265,-1494.5 265,-1540.5 "/>
<text text-anchor="middle" x="331" y="-1525.3" font-family="Times New Roman,serif" font-size="14.00">(None, 128, 128, 32)</text>
<polyline fill="none" stroke="black" points="265,-1517.5 397,-1517.5 "/>
<text text-anchor="middle" x="331" y="-1502.3" font-family="Times New Roman,serif" font-size="14.00">(None, 64, 64, 32)</text>
</g>
<!-- 2009454185552&#45;&gt;2009454269944 -->
<g id="edge6" class="edge"><title>2009454185552&#45;&gt;2009454269944</title>
<path fill="none" stroke="black" d="M198.5,-1577.37C198.5,-1569.15 198.5,-1559.66 198.5,-1550.73"/>
<polygon fill="black" stroke="black" points="202,-1550.61 198.5,-1540.61 195,-1550.61 202,-1550.61"/>
</g>
<!-- 2009453985240 -->
<g id="node7" class="node"><title>2009453985240</title>
<polygon fill="none" stroke="black" points="47.5,-1411.5 47.5,-1457.5 349.5,-1457.5 349.5,-1411.5 47.5,-1411.5"/>
<text text-anchor="middle" x="111" y="-1430.8" font-family="Times New Roman,serif" font-size="14.00">conv2d_5: Conv2D</text>
<polyline fill="none" stroke="black" points="174.5,-1411.5 174.5,-1457.5 "/>
<text text-anchor="middle" x="202.5" y="-1442.3" font-family="Times New Roman,serif" font-size="14.00">input:</text>
<polyline fill="none" stroke="black" points="174.5,-1434.5 230.5,-1434.5 "/>
<text text-anchor="middle" x="202.5" y="-1419.3" font-family="Times New Roman,serif" font-size="14.00">output:</text>
<polyline fill="none" stroke="black" points="230.5,-1411.5 230.5,-1457.5 "/>
<text text-anchor="middle" x="290" y="-1442.3" font-family="Times New Roman,serif" font-size="14.00">(None, 64, 64, 32)</text>
<polyline fill="none" stroke="black" points="230.5,-1434.5 349.5,-1434.5 "/>
<text text-anchor="middle" x="290" y="-1419.3" font-family="Times New Roman,serif" font-size="14.00">(None, 64, 64, 64)</text>
</g>
<!-- 2009454269944&#45;&gt;2009453985240 -->
<g id="edge7" class="edge"><title>2009454269944&#45;&gt;2009453985240</title>
<path fill="none" stroke="black" d="M198.5,-1494.37C198.5,-1486.15 198.5,-1476.66 198.5,-1467.73"/>
<polygon fill="black" stroke="black" points="202,-1467.61 198.5,-1457.61 195,-1467.61 202,-1467.61"/>
</g>
<!-- 2009454442592 -->
<g id="node8" class="node"><title>2009454442592</title>
<polygon fill="none" stroke="black" points="47.5,-1328.5 47.5,-1374.5 349.5,-1374.5 349.5,-1328.5 47.5,-1328.5"/>
<text text-anchor="middle" x="111" y="-1347.8" font-family="Times New Roman,serif" font-size="14.00">conv2d_6: Conv2D</text>
<polyline fill="none" stroke="black" points="174.5,-1328.5 174.5,-1374.5 "/>
<text text-anchor="middle" x="202.5" y="-1359.3" font-family="Times New Roman,serif" font-size="14.00">input:</text>
<polyline fill="none" stroke="black" points="174.5,-1351.5 230.5,-1351.5 "/>
<text text-anchor="middle" x="202.5" y="-1336.3" font-family="Times New Roman,serif" font-size="14.00">output:</text>
<polyline fill="none" stroke="black" points="230.5,-1328.5 230.5,-1374.5 "/>
<text text-anchor="middle" x="290" y="-1359.3" font-family="Times New Roman,serif" font-size="14.00">(None, 64, 64, 64)</text>
<polyline fill="none" stroke="black" points="230.5,-1351.5 349.5,-1351.5 "/>
<text text-anchor="middle" x="290" y="-1336.3" font-family="Times New Roman,serif" font-size="14.00">(None, 64, 64, 64)</text>
</g>
<!-- 2009453985240&#45;&gt;2009454442592 -->
<g id="edge8" class="edge"><title>2009453985240&#45;&gt;2009454442592</title>
<path fill="none" stroke="black" d="M198.5,-1411.37C198.5,-1403.15 198.5,-1393.66 198.5,-1384.73"/>
<polygon fill="black" stroke="black" points="202,-1384.61 198.5,-1374.61 195,-1384.61 202,-1384.61"/>
</g>
<!-- 2009454535064 -->
<g id="node9" class="node"><title>2009454535064</title>
<polygon fill="none" stroke="black" points="47.5,-1245.5 47.5,-1291.5 349.5,-1291.5 349.5,-1245.5 47.5,-1245.5"/>
<text text-anchor="middle" x="111" y="-1264.8" font-family="Times New Roman,serif" font-size="14.00">conv2d_7: Conv2D</text>
<polyline fill="none" stroke="black" points="174.5,-1245.5 174.5,-1291.5 "/>
<text text-anchor="middle" x="202.5" y="-1276.3" font-family="Times New Roman,serif" font-size="14.00">input:</text>
<polyline fill="none" stroke="black" points="174.5,-1268.5 230.5,-1268.5 "/>
<text text-anchor="middle" x="202.5" y="-1253.3" font-family="Times New Roman,serif" font-size="14.00">output:</text>
<polyline fill="none" stroke="black" points="230.5,-1245.5 230.5,-1291.5 "/>
<text text-anchor="middle" x="290" y="-1276.3" font-family="Times New Roman,serif" font-size="14.00">(None, 64, 64, 64)</text>
<polyline fill="none" stroke="black" points="230.5,-1268.5 349.5,-1268.5 "/>
<text text-anchor="middle" x="290" y="-1253.3" font-family="Times New Roman,serif" font-size="14.00">(None, 64, 64, 64)</text>
</g>
<!-- 2009454442592&#45;&gt;2009454535064 -->
<g id="edge9" class="edge"><title>2009454442592&#45;&gt;2009454535064</title>
<path fill="none" stroke="black" d="M198.5,-1328.37C198.5,-1320.15 198.5,-1310.66 198.5,-1301.73"/>
<polygon fill="black" stroke="black" points="202,-1301.61 198.5,-1291.61 195,-1301.61 202,-1301.61"/>
</g>
<!-- 2009454622200 -->
<g id="node10" class="node"><title>2009454622200</title>
<polygon fill="none" stroke="black" points="6.5,-1162.5 6.5,-1208.5 390.5,-1208.5 390.5,-1162.5 6.5,-1162.5"/>
<text text-anchor="middle" x="111" y="-1181.8" font-family="Times New Roman,serif" font-size="14.00">max_pooling2d_3: MaxPooling2D</text>
<polyline fill="none" stroke="black" points="215.5,-1162.5 215.5,-1208.5 "/>
<text text-anchor="middle" x="243.5" y="-1193.3" font-family="Times New Roman,serif" font-size="14.00">input:</text>
<polyline fill="none" stroke="black" points="215.5,-1185.5 271.5,-1185.5 "/>
<text text-anchor="middle" x="243.5" y="-1170.3" font-family="Times New Roman,serif" font-size="14.00">output:</text>
<polyline fill="none" stroke="black" points="271.5,-1162.5 271.5,-1208.5 "/>
<text text-anchor="middle" x="331" y="-1193.3" font-family="Times New Roman,serif" font-size="14.00">(None, 64, 64, 64)</text>
<polyline fill="none" stroke="black" points="271.5,-1185.5 390.5,-1185.5 "/>
<text text-anchor="middle" x="331" y="-1170.3" font-family="Times New Roman,serif" font-size="14.00">(None, 32, 32, 64)</text>
</g>
<!-- 2009454535064&#45;&gt;2009454622200 -->
<g id="edge10" class="edge"><title>2009454535064&#45;&gt;2009454622200</title>
<path fill="none" stroke="black" d="M198.5,-1245.37C198.5,-1237.15 198.5,-1227.66 198.5,-1218.73"/>
<polygon fill="black" stroke="black" points="202,-1218.61 198.5,-1208.61 195,-1218.61 202,-1218.61"/>
</g>
<!-- 2009454270336 -->
<g id="node11" class="node"><title>2009454270336</title>
<polygon fill="none" stroke="black" points="44.5,-1079.5 44.5,-1125.5 352.5,-1125.5 352.5,-1079.5 44.5,-1079.5"/>
<text text-anchor="middle" x="108" y="-1098.8" font-family="Times New Roman,serif" font-size="14.00">conv2d_8: Conv2D</text>
<polyline fill="none" stroke="black" points="171.5,-1079.5 171.5,-1125.5 "/>
<text text-anchor="middle" x="199.5" y="-1110.3" font-family="Times New Roman,serif" font-size="14.00">input:</text>
<polyline fill="none" stroke="black" points="171.5,-1102.5 227.5,-1102.5 "/>
<text text-anchor="middle" x="199.5" y="-1087.3" font-family="Times New Roman,serif" font-size="14.00">output:</text>
<polyline fill="none" stroke="black" points="227.5,-1079.5 227.5,-1125.5 "/>
<text text-anchor="middle" x="290" y="-1110.3" font-family="Times New Roman,serif" font-size="14.00">(None, 32, 32, 64)</text>
<polyline fill="none" stroke="black" points="227.5,-1102.5 352.5,-1102.5 "/>
<text text-anchor="middle" x="290" y="-1087.3" font-family="Times New Roman,serif" font-size="14.00">(None, 32, 32, 128)</text>
</g>
<!-- 2009454622200&#45;&gt;2009454270336 -->
<g id="edge11" class="edge"><title>2009454622200&#45;&gt;2009454270336</title>
<path fill="none" stroke="black" d="M198.5,-1162.37C198.5,-1154.15 198.5,-1144.66 198.5,-1135.73"/>
<polygon fill="black" stroke="black" points="202,-1135.61 198.5,-1125.61 195,-1135.61 202,-1135.61"/>
</g>
<!-- 2009454782560 -->
<g id="node12" class="node"><title>2009454782560</title>
<polygon fill="none" stroke="black" points="44.5,-996.5 44.5,-1042.5 352.5,-1042.5 352.5,-996.5 44.5,-996.5"/>
<text text-anchor="middle" x="108" y="-1015.8" font-family="Times New Roman,serif" font-size="14.00">conv2d_9: Conv2D</text>
<polyline fill="none" stroke="black" points="171.5,-996.5 171.5,-1042.5 "/>
<text text-anchor="middle" x="199.5" y="-1027.3" font-family="Times New Roman,serif" font-size="14.00">input:</text>
<polyline fill="none" stroke="black" points="171.5,-1019.5 227.5,-1019.5 "/>
<text text-anchor="middle" x="199.5" y="-1004.3" font-family="Times New Roman,serif" font-size="14.00">output:</text>
<polyline fill="none" stroke="black" points="227.5,-996.5 227.5,-1042.5 "/>
<text text-anchor="middle" x="290" y="-1027.3" font-family="Times New Roman,serif" font-size="14.00">(None, 32, 32, 128)</text>
<polyline fill="none" stroke="black" points="227.5,-1019.5 352.5,-1019.5 "/>
<text text-anchor="middle" x="290" y="-1004.3" font-family="Times New Roman,serif" font-size="14.00">(None, 32, 32, 128)</text>
</g>
<!-- 2009454270336&#45;&gt;2009454782560 -->
<g id="edge12" class="edge"><title>2009454270336&#45;&gt;2009454782560</title>
<path fill="none" stroke="black" d="M198.5,-1079.37C198.5,-1071.15 198.5,-1061.66 198.5,-1052.73"/>
<polygon fill="black" stroke="black" points="202,-1052.61 198.5,-1042.61 195,-1052.61 202,-1052.61"/>
</g>
<!-- 2009454862744 -->
<g id="node13" class="node"><title>2009454862744</title>
<polygon fill="none" stroke="black" points="41,-913.5 41,-959.5 356,-959.5 356,-913.5 41,-913.5"/>
<text text-anchor="middle" x="108" y="-932.8" font-family="Times New Roman,serif" font-size="14.00">conv2d_10: Conv2D</text>
<polyline fill="none" stroke="black" points="175,-913.5 175,-959.5 "/>
<text text-anchor="middle" x="203" y="-944.3" font-family="Times New Roman,serif" font-size="14.00">input:</text>
<polyline fill="none" stroke="black" points="175,-936.5 231,-936.5 "/>
<text text-anchor="middle" x="203" y="-921.3" font-family="Times New Roman,serif" font-size="14.00">output:</text>
<polyline fill="none" stroke="black" points="231,-913.5 231,-959.5 "/>
<text text-anchor="middle" x="293.5" y="-944.3" font-family="Times New Roman,serif" font-size="14.00">(None, 32, 32, 128)</text>
<polyline fill="none" stroke="black" points="231,-936.5 356,-936.5 "/>
<text text-anchor="middle" x="293.5" y="-921.3" font-family="Times New Roman,serif" font-size="14.00">(None, 32, 32, 128)</text>
</g>
<!-- 2009454782560&#45;&gt;2009454862744 -->
<g id="edge13" class="edge"><title>2009454782560&#45;&gt;2009454862744</title>
<path fill="none" stroke="black" d="M198.5,-996.366C198.5,-988.152 198.5,-978.658 198.5,-969.725"/>
<polygon fill="black" stroke="black" points="202,-969.607 198.5,-959.607 195,-969.607 202,-969.607"/>
</g>
<!-- 2009454962168 -->
<g id="node14" class="node"><title>2009454962168</title>
<polygon fill="none" stroke="black" points="3.5,-830.5 3.5,-876.5 393.5,-876.5 393.5,-830.5 3.5,-830.5"/>
<text text-anchor="middle" x="108" y="-849.8" font-family="Times New Roman,serif" font-size="14.00">max_pooling2d_4: MaxPooling2D</text>
<polyline fill="none" stroke="black" points="212.5,-830.5 212.5,-876.5 "/>
<text text-anchor="middle" x="240.5" y="-861.3" font-family="Times New Roman,serif" font-size="14.00">input:</text>
<polyline fill="none" stroke="black" points="212.5,-853.5 268.5,-853.5 "/>
<text text-anchor="middle" x="240.5" y="-838.3" font-family="Times New Roman,serif" font-size="14.00">output:</text>
<polyline fill="none" stroke="black" points="268.5,-830.5 268.5,-876.5 "/>
<text text-anchor="middle" x="331" y="-861.3" font-family="Times New Roman,serif" font-size="14.00">(None, 32, 32, 128)</text>
<polyline fill="none" stroke="black" points="268.5,-853.5 393.5,-853.5 "/>
<text text-anchor="middle" x="331" y="-838.3" font-family="Times New Roman,serif" font-size="14.00">(None, 16, 16, 128)</text>
</g>
<!-- 2009454862744&#45;&gt;2009454962168 -->
<g id="edge14" class="edge"><title>2009454862744&#45;&gt;2009454962168</title>
<path fill="none" stroke="black" d="M198.5,-913.366C198.5,-905.152 198.5,-895.658 198.5,-886.725"/>
<polygon fill="black" stroke="black" points="202,-886.607 198.5,-876.607 195,-886.607 202,-886.607"/>
</g>
<!-- 2009454622592 -->
<g id="node15" class="node"><title>2009454622592</title>
<polygon fill="none" stroke="black" points="41,-747.5 41,-793.5 356,-793.5 356,-747.5 41,-747.5"/>
<text text-anchor="middle" x="108" y="-766.8" font-family="Times New Roman,serif" font-size="14.00">conv2d_11: Conv2D</text>
<polyline fill="none" stroke="black" points="175,-747.5 175,-793.5 "/>
<text text-anchor="middle" x="203" y="-778.3" font-family="Times New Roman,serif" font-size="14.00">input:</text>
<polyline fill="none" stroke="black" points="175,-770.5 231,-770.5 "/>
<text text-anchor="middle" x="203" y="-755.3" font-family="Times New Roman,serif" font-size="14.00">output:</text>
<polyline fill="none" stroke="black" points="231,-747.5 231,-793.5 "/>
<text text-anchor="middle" x="293.5" y="-778.3" font-family="Times New Roman,serif" font-size="14.00">(None, 16, 16, 128)</text>
<polyline fill="none" stroke="black" points="231,-770.5 356,-770.5 "/>
<text text-anchor="middle" x="293.5" y="-755.3" font-family="Times New Roman,serif" font-size="14.00">(None, 16, 16, 256)</text>
</g>
<!-- 2009454962168&#45;&gt;2009454622592 -->
<g id="edge15" class="edge"><title>2009454962168&#45;&gt;2009454622592</title>
<path fill="none" stroke="black" d="M198.5,-830.366C198.5,-822.152 198.5,-812.658 198.5,-803.725"/>
<polygon fill="black" stroke="black" points="202,-803.607 198.5,-793.607 195,-803.607 202,-803.607"/>
</g>
<!-- 2009455122528 -->
<g id="node16" class="node"><title>2009455122528</title>
<polygon fill="none" stroke="black" points="41,-664.5 41,-710.5 356,-710.5 356,-664.5 41,-664.5"/>
<text text-anchor="middle" x="108" y="-683.8" font-family="Times New Roman,serif" font-size="14.00">conv2d_12: Conv2D</text>
<polyline fill="none" stroke="black" points="175,-664.5 175,-710.5 "/>
<text text-anchor="middle" x="203" y="-695.3" font-family="Times New Roman,serif" font-size="14.00">input:</text>
<polyline fill="none" stroke="black" points="175,-687.5 231,-687.5 "/>
<text text-anchor="middle" x="203" y="-672.3" font-family="Times New Roman,serif" font-size="14.00">output:</text>
<polyline fill="none" stroke="black" points="231,-664.5 231,-710.5 "/>
<text text-anchor="middle" x="293.5" y="-695.3" font-family="Times New Roman,serif" font-size="14.00">(None, 16, 16, 256)</text>
<polyline fill="none" stroke="black" points="231,-687.5 356,-687.5 "/>
<text text-anchor="middle" x="293.5" y="-672.3" font-family="Times New Roman,serif" font-size="14.00">(None, 16, 16, 256)</text>
</g>
<!-- 2009454622592&#45;&gt;2009455122528 -->
<g id="edge16" class="edge"><title>2009454622592&#45;&gt;2009455122528</title>
<path fill="none" stroke="black" d="M198.5,-747.366C198.5,-739.152 198.5,-729.658 198.5,-720.725"/>
<polygon fill="black" stroke="black" points="202,-720.607 198.5,-710.607 195,-720.607 202,-720.607"/>
</g>
<!-- 2009455219096 -->
<g id="node17" class="node"><title>2009455219096</title>
<polygon fill="none" stroke="black" points="41,-581.5 41,-627.5 356,-627.5 356,-581.5 41,-581.5"/>
<text text-anchor="middle" x="108" y="-600.8" font-family="Times New Roman,serif" font-size="14.00">conv2d_13: Conv2D</text>
<polyline fill="none" stroke="black" points="175,-581.5 175,-627.5 "/>
<text text-anchor="middle" x="203" y="-612.3" font-family="Times New Roman,serif" font-size="14.00">input:</text>
<polyline fill="none" stroke="black" points="175,-604.5 231,-604.5 "/>
<text text-anchor="middle" x="203" y="-589.3" font-family="Times New Roman,serif" font-size="14.00">output:</text>
<polyline fill="none" stroke="black" points="231,-581.5 231,-627.5 "/>
<text text-anchor="middle" x="293.5" y="-612.3" font-family="Times New Roman,serif" font-size="14.00">(None, 16, 16, 256)</text>
<polyline fill="none" stroke="black" points="231,-604.5 356,-604.5 "/>
<text text-anchor="middle" x="293.5" y="-589.3" font-family="Times New Roman,serif" font-size="14.00">(None, 16, 16, 256)</text>
</g>
<!-- 2009455122528&#45;&gt;2009455219096 -->
<g id="edge17" class="edge"><title>2009455122528&#45;&gt;2009455219096</title>
<path fill="none" stroke="black" d="M198.5,-664.366C198.5,-656.152 198.5,-646.658 198.5,-637.725"/>
<polygon fill="black" stroke="black" points="202,-637.607 198.5,-627.607 195,-637.607 202,-637.607"/>
</g>
<!-- 2009455298040 -->
<g id="node18" class="node"><title>2009455298040</title>
<polygon fill="none" stroke="black" points="3.5,-498.5 3.5,-544.5 393.5,-544.5 393.5,-498.5 3.5,-498.5"/>
<text text-anchor="middle" x="108" y="-517.8" font-family="Times New Roman,serif" font-size="14.00">max_pooling2d_5: MaxPooling2D</text>
<polyline fill="none" stroke="black" points="212.5,-498.5 212.5,-544.5 "/>
<text text-anchor="middle" x="240.5" y="-529.3" font-family="Times New Roman,serif" font-size="14.00">input:</text>
<polyline fill="none" stroke="black" points="212.5,-521.5 268.5,-521.5 "/>
<text text-anchor="middle" x="240.5" y="-506.3" font-family="Times New Roman,serif" font-size="14.00">output:</text>
<polyline fill="none" stroke="black" points="268.5,-498.5 268.5,-544.5 "/>
<text text-anchor="middle" x="331" y="-529.3" font-family="Times New Roman,serif" font-size="14.00">(None, 16, 16, 256)</text>
<polyline fill="none" stroke="black" points="268.5,-521.5 393.5,-521.5 "/>
<text text-anchor="middle" x="331" y="-506.3" font-family="Times New Roman,serif" font-size="14.00">(None, 8, 8, 256)</text>
</g>
<!-- 2009455219096&#45;&gt;2009455298040 -->
<g id="edge18" class="edge"><title>2009455219096&#45;&gt;2009455298040</title>
<path fill="none" stroke="black" d="M198.5,-581.366C198.5,-573.152 198.5,-563.658 198.5,-554.725"/>
<polygon fill="black" stroke="black" points="202,-554.607 198.5,-544.607 195,-554.607 202,-554.607"/>
</g>
<!-- 2009454962560 -->
<g id="node19" class="node"><title>2009454962560</title>
<polygon fill="none" stroke="black" points="60,-415.5 60,-461.5 337,-461.5 337,-415.5 60,-415.5"/>
<text text-anchor="middle" x="114.5" y="-434.8" font-family="Times New Roman,serif" font-size="14.00">flatten_1: Flatten</text>
<polyline fill="none" stroke="black" points="169,-415.5 169,-461.5 "/>
<text text-anchor="middle" x="197" y="-446.3" font-family="Times New Roman,serif" font-size="14.00">input:</text>
<polyline fill="none" stroke="black" points="169,-438.5 225,-438.5 "/>
<text text-anchor="middle" x="197" y="-423.3" font-family="Times New Roman,serif" font-size="14.00">output:</text>
<polyline fill="none" stroke="black" points="225,-415.5 225,-461.5 "/>
<text text-anchor="middle" x="281" y="-446.3" font-family="Times New Roman,serif" font-size="14.00">(None, 8, 8, 256)</text>
<polyline fill="none" stroke="black" points="225,-438.5 337,-438.5 "/>
<text text-anchor="middle" x="281" y="-423.3" font-family="Times New Roman,serif" font-size="14.00">(None, 16384)</text>
</g>
<!-- 2009455298040&#45;&gt;2009454962560 -->
<g id="edge19" class="edge"><title>2009455298040&#45;&gt;2009454962560</title>
<path fill="none" stroke="black" d="M198.5,-498.366C198.5,-490.152 198.5,-480.658 198.5,-471.725"/>
<polygon fill="black" stroke="black" points="202,-471.607 198.5,-461.607 195,-471.607 202,-471.607"/>
</g>
<!-- 2009455381192 -->
<g id="node20" class="node"><title>2009455381192</title>
<polygon fill="none" stroke="black" points="70,-332.5 70,-378.5 327,-378.5 327,-332.5 70,-332.5"/>
<text text-anchor="middle" x="122" y="-351.8" font-family="Times New Roman,serif" font-size="14.00">dense_1: Dense</text>
<polyline fill="none" stroke="black" points="174,-332.5 174,-378.5 "/>
<text text-anchor="middle" x="202" y="-363.3" font-family="Times New Roman,serif" font-size="14.00">input:</text>
<polyline fill="none" stroke="black" points="174,-355.5 230,-355.5 "/>
<text text-anchor="middle" x="202" y="-340.3" font-family="Times New Roman,serif" font-size="14.00">output:</text>
<polyline fill="none" stroke="black" points="230,-332.5 230,-378.5 "/>
<text text-anchor="middle" x="278.5" y="-363.3" font-family="Times New Roman,serif" font-size="14.00">(None, 16384)</text>
<polyline fill="none" stroke="black" points="230,-355.5 327,-355.5 "/>
<text text-anchor="middle" x="278.5" y="-340.3" font-family="Times New Roman,serif" font-size="14.00">(None, 256)</text>
</g>
<!-- 2009454962560&#45;&gt;2009455381192 -->
<g id="edge20" class="edge"><title>2009454962560&#45;&gt;2009455381192</title>
<path fill="none" stroke="black" d="M198.5,-415.366C198.5,-407.152 198.5,-397.658 198.5,-388.725"/>
<polygon fill="black" stroke="black" points="202,-388.607 198.5,-378.607 195,-388.607 202,-388.607"/>
</g>
<!-- 2009455459688 -->
<g id="node21" class="node"><title>2009455459688</title>
<polygon fill="none" stroke="black" points="64,-249.5 64,-295.5 333,-295.5 333,-249.5 64,-249.5"/>
<text text-anchor="middle" x="129" y="-268.8" font-family="Times New Roman,serif" font-size="14.00">dropout_1: Dropout</text>
<polyline fill="none" stroke="black" points="194,-249.5 194,-295.5 "/>
<text text-anchor="middle" x="222" y="-280.3" font-family="Times New Roman,serif" font-size="14.00">input:</text>
<polyline fill="none" stroke="black" points="194,-272.5 250,-272.5 "/>
<text text-anchor="middle" x="222" y="-257.3" font-family="Times New Roman,serif" font-size="14.00">output:</text>
<polyline fill="none" stroke="black" points="250,-249.5 250,-295.5 "/>
<text text-anchor="middle" x="291.5" y="-280.3" font-family="Times New Roman,serif" font-size="14.00">(None, 256)</text>
<polyline fill="none" stroke="black" points="250,-272.5 333,-272.5 "/>
<text text-anchor="middle" x="291.5" y="-257.3" font-family="Times New Roman,serif" font-size="14.00">(None, 256)</text>
</g>
<!-- 2009455381192&#45;&gt;2009455459688 -->
<g id="edge21" class="edge"><title>2009455381192&#45;&gt;2009455459688</title>
<path fill="none" stroke="black" d="M198.5,-332.366C198.5,-324.152 198.5,-314.658 198.5,-305.725"/>
<polygon fill="black" stroke="black" points="202,-305.607 198.5,-295.607 195,-305.607 202,-305.607"/>
</g>
<!-- 2009455459072 -->
<g id="node22" class="node"><title>2009455459072</title>
<polygon fill="none" stroke="black" points="77,-166.5 77,-212.5 320,-212.5 320,-166.5 77,-166.5"/>
<text text-anchor="middle" x="129" y="-185.8" font-family="Times New Roman,serif" font-size="14.00">dense_2: Dense</text>
<polyline fill="none" stroke="black" points="181,-166.5 181,-212.5 "/>
<text text-anchor="middle" x="209" y="-197.3" font-family="Times New Roman,serif" font-size="14.00">input:</text>
<polyline fill="none" stroke="black" points="181,-189.5 237,-189.5 "/>
<text text-anchor="middle" x="209" y="-174.3" font-family="Times New Roman,serif" font-size="14.00">output:</text>
<polyline fill="none" stroke="black" points="237,-166.5 237,-212.5 "/>
<text text-anchor="middle" x="278.5" y="-197.3" font-family="Times New Roman,serif" font-size="14.00">(None, 256)</text>
<polyline fill="none" stroke="black" points="237,-189.5 320,-189.5 "/>
<text text-anchor="middle" x="278.5" y="-174.3" font-family="Times New Roman,serif" font-size="14.00">(None, 128)</text>
</g>
<!-- 2009455459688&#45;&gt;2009455459072 -->
<g id="edge22" class="edge"><title>2009455459688&#45;&gt;2009455459072</title>
<path fill="none" stroke="black" d="M198.5,-249.366C198.5,-241.152 198.5,-231.658 198.5,-222.725"/>
<polygon fill="black" stroke="black" points="202,-222.607 198.5,-212.607 195,-222.607 202,-222.607"/>
</g>
<!-- 2009455298432 -->
<g id="node23" class="node"><title>2009455298432</title>
<polygon fill="none" stroke="black" points="64,-83.5 64,-129.5 333,-129.5 333,-83.5 64,-83.5"/>
<text text-anchor="middle" x="129" y="-102.8" font-family="Times New Roman,serif" font-size="14.00">dropout_2: Dropout</text>
<polyline fill="none" stroke="black" points="194,-83.5 194,-129.5 "/>
<text text-anchor="middle" x="222" y="-114.3" font-family="Times New Roman,serif" font-size="14.00">input:</text>
<polyline fill="none" stroke="black" points="194,-106.5 250,-106.5 "/>
<text text-anchor="middle" x="222" y="-91.3" font-family="Times New Roman,serif" font-size="14.00">output:</text>
<polyline fill="none" stroke="black" points="250,-83.5 250,-129.5 "/>
<text text-anchor="middle" x="291.5" y="-114.3" font-family="Times New Roman,serif" font-size="14.00">(None, 128)</text>
<polyline fill="none" stroke="black" points="250,-106.5 333,-106.5 "/>
<text text-anchor="middle" x="291.5" y="-91.3" font-family="Times New Roman,serif" font-size="14.00">(None, 128)</text>
</g>
<!-- 2009455459072&#45;&gt;2009455298432 -->
<g id="edge23" class="edge"><title>2009455459072&#45;&gt;2009455298432</title>
<path fill="none" stroke="black" d="M198.5,-166.366C198.5,-158.152 198.5,-148.658 198.5,-139.725"/>
<polygon fill="black" stroke="black" points="202,-139.607 198.5,-129.607 195,-139.607 202,-139.607"/>
</g>
<!-- 2009455560072 -->
<g id="node24" class="node"><title>2009455560072</title>
<polygon fill="none" stroke="black" points="77,-0.5 77,-46.5 320,-46.5 320,-0.5 77,-0.5"/>
<text text-anchor="middle" x="129" y="-19.8" font-family="Times New Roman,serif" font-size="14.00">dense_3: Dense</text>
<polyline fill="none" stroke="black" points="181,-0.5 181,-46.5 "/>
<text text-anchor="middle" x="209" y="-31.3" font-family="Times New Roman,serif" font-size="14.00">input:</text>
<polyline fill="none" stroke="black" points="181,-23.5 237,-23.5 "/>
<text text-anchor="middle" x="209" y="-8.3" font-family="Times New Roman,serif" font-size="14.00">output:</text>
<polyline fill="none" stroke="black" points="237,-0.5 237,-46.5 "/>
<text text-anchor="middle" x="278.5" y="-31.3" font-family="Times New Roman,serif" font-size="14.00">(None, 128)</text>
<polyline fill="none" stroke="black" points="237,-23.5 320,-23.5 "/>
<text text-anchor="middle" x="278.5" y="-8.3" font-family="Times New Roman,serif" font-size="14.00">(None, 1)</text>
</g>
<!-- 2009455298432&#45;&gt;2009455560072 -->
<g id="edge24" class="edge"><title>2009455298432&#45;&gt;2009455560072</title>
<path fill="none" stroke="black" d="M198.5,-83.3664C198.5,-75.1516 198.5,-65.6579 198.5,-56.7252"/>
<polygon fill="black" stroke="black" points="202,-56.6068 198.5,-46.6068 195,-56.6069 202,-56.6068"/>
</g>
<!-- 2009453835544 -->
<g id="node25" class="node"><title>2009453835544</title>
<polygon fill="none" stroke="black" points="146.5,-1992.5 146.5,-2028.5 250.5,-2028.5 250.5,-1992.5 146.5,-1992.5"/>
<text text-anchor="middle" x="198.5" y="-2006.8" font-family="Times New Roman,serif" font-size="14.00">2009453835544</text>
</g>
<!-- 2009453835544&#45;&gt;2009453835488 -->
<g id="edge1" class="edge"><title>2009453835544&#45;&gt;2009453835488</title>
<path fill="none" stroke="black" d="M198.5,-1992.25C198.5,-1984.36 198.5,-1974.75 198.5,-1965.6"/>
<polygon fill="black" stroke="black" points="202,-1965.59 198.5,-1955.59 195,-1965.59 202,-1965.59"/>
</g>
</g>
</svg>
