<?xml version="1.0" encoding="UTF-8" standalone="no"?>
<!DOCTYPE svg PUBLIC "-//W3C//DTD SVG 1.1//EN"
 "http://www.w3.org/Graphics/SVG/1.1/DTD/svg11.dtd">
<!-- Generated by graphviz version 2.38.0 (20140413.2041)
 -->
<!-- Title: G Pages: 1 -->
<svg width="398pt" height="1207pt"
 viewBox="0.00 0.00 398.00 1207.00" xmlns="http://www.w3.org/2000/svg" xmlns:xlink="http://www.w3.org/1999/xlink">
<g id="graph0" class="graph" transform="scale(1 1) rotate(0) translate(4 1203)">
<title>G</title>
<polygon fill="white" stroke="none" points="-4,4 -4,-1203 394,-1203 394,4 -4,4"/>
<!-- 1889868241216 -->
<g id="node1" class="node"><title>1889868241216</title>
<polygon fill="none" stroke="black" points="41,-1079.5 41,-1125.5 349,-1125.5 349,-1079.5 41,-1079.5"/>
<text text-anchor="middle" x="104.5" y="-1098.8" font-family="Times New Roman,serif" font-size="14.00">conv2d_1: Conv2D</text>
<polyline fill="none" stroke="black" points="168,-1079.5 168,-1125.5 "/>
<text text-anchor="middle" x="196" y="-1110.3" font-family="Times New Roman,serif" font-size="14.00">input:</text>
<polyline fill="none" stroke="black" points="168,-1102.5 224,-1102.5 "/>
<text text-anchor="middle" x="196" y="-1087.3" font-family="Times New Roman,serif" font-size="14.00">output:</text>
<polyline fill="none" stroke="black" points="224,-1079.5 224,-1125.5 "/>
<text text-anchor="middle" x="286.5" y="-1110.3" font-family="Times New Roman,serif" font-size="14.00">(None, 256, 256, 3)</text>
<polyline fill="none" stroke="black" points="224,-1102.5 349,-1102.5 "/>
<text text-anchor="middle" x="286.5" y="-1087.3" font-family="Times New Roman,serif" font-size="14.00">(None, 62, 62, 96)</text>
</g>
<!-- 1889868242280 -->
<g id="node2" class="node"><title>1889868242280</title>
<polygon fill="none" stroke="black" points="3,-996.5 3,-1042.5 387,-1042.5 387,-996.5 3,-996.5"/>
<text text-anchor="middle" x="107.5" y="-1015.8" font-family="Times New Roman,serif" font-size="14.00">max_pooling2d_1: MaxPooling2D</text>
<polyline fill="none" stroke="black" points="212,-996.5 212,-1042.5 "/>
<text text-anchor="middle" x="240" y="-1027.3" font-family="Times New Roman,serif" font-size="14.00">input:</text>
<polyline fill="none" stroke="black" points="212,-1019.5 268,-1019.5 "/>
<text text-anchor="middle" x="240" y="-1004.3" font-family="Times New Roman,serif" font-size="14.00">output:</text>
<polyline fill="none" stroke="black" points="268,-996.5 268,-1042.5 "/>
<text text-anchor="middle" x="327.5" y="-1027.3" font-family="Times New Roman,serif" font-size="14.00">(None, 62, 62, 96)</text>
<polyline fill="none" stroke="black" points="268,-1019.5 387,-1019.5 "/>
<text text-anchor="middle" x="327.5" y="-1004.3" font-family="Times New Roman,serif" font-size="14.00">(None, 30, 30, 96)</text>
</g>
<!-- 1889868241216&#45;&gt;1889868242280 -->
<g id="edge2" class="edge"><title>1889868241216&#45;&gt;1889868242280</title>
<path fill="none" stroke="black" d="M195,-1079.37C195,-1071.15 195,-1061.66 195,-1052.73"/>
<polygon fill="black" stroke="black" points="198.5,-1052.61 195,-1042.61 191.5,-1052.61 198.5,-1052.61"/>
</g>
<!-- 1889868320048 -->
<g id="node3" class="node"><title>1889868320048</title>
<polygon fill="none" stroke="black" points="41,-913.5 41,-959.5 349,-959.5 349,-913.5 41,-913.5"/>
<text text-anchor="middle" x="104.5" y="-932.8" font-family="Times New Roman,serif" font-size="14.00">conv2d_2: Conv2D</text>
<polyline fill="none" stroke="black" points="168,-913.5 168,-959.5 "/>
<text text-anchor="middle" x="196" y="-944.3" font-family="Times New Roman,serif" font-size="14.00">input:</text>
<polyline fill="none" stroke="black" points="168,-936.5 224,-936.5 "/>
<text text-anchor="middle" x="196" y="-921.3" font-family="Times New Roman,serif" font-size="14.00">output:</text>
<polyline fill="none" stroke="black" points="224,-913.5 224,-959.5 "/>
<text text-anchor="middle" x="286.5" y="-944.3" font-family="Times New Roman,serif" font-size="14.00">(None, 30, 30, 96)</text>
<polyline fill="none" stroke="black" points="224,-936.5 349,-936.5 "/>
<text text-anchor="middle" x="286.5" y="-921.3" font-family="Times New Roman,serif" font-size="14.00">(None, 30, 30, 256)</text>
</g>
<!-- 1889868242280&#45;&gt;1889868320048 -->
<g id="edge3" class="edge"><title>1889868242280&#45;&gt;1889868320048</title>
<path fill="none" stroke="black" d="M195,-996.366C195,-988.152 195,-978.658 195,-969.725"/>
<polygon fill="black" stroke="black" points="198.5,-969.607 195,-959.607 191.5,-969.607 198.5,-969.607"/>
</g>
<!-- 1889868475472 -->
<g id="node4" class="node"><title>1889868475472</title>
<polygon fill="none" stroke="black" points="0,-830.5 0,-876.5 390,-876.5 390,-830.5 0,-830.5"/>
<text text-anchor="middle" x="104.5" y="-849.8" font-family="Times New Roman,serif" font-size="14.00">max_pooling2d_2: MaxPooling2D</text>
<polyline fill="none" stroke="black" points="209,-830.5 209,-876.5 "/>
<text text-anchor="middle" x="237" y="-861.3" font-family="Times New Roman,serif" font-size="14.00">input:</text>
<polyline fill="none" stroke="black" points="209,-853.5 265,-853.5 "/>
<text text-anchor="middle" x="237" y="-838.3" font-family="Times New Roman,serif" font-size="14.00">output:</text>
<polyline fill="none" stroke="black" points="265,-830.5 265,-876.5 "/>
<text text-anchor="middle" x="327.5" y="-861.3" font-family="Times New Roman,serif" font-size="14.00">(None, 30, 30, 256)</text>
<polyline fill="none" stroke="black" points="265,-853.5 390,-853.5 "/>
<text text-anchor="middle" x="327.5" y="-838.3" font-family="Times New Roman,serif" font-size="14.00">(None, 14, 14, 256)</text>
</g>
<!-- 1889868320048&#45;&gt;1889868475472 -->
<g id="edge4" class="edge"><title>1889868320048&#45;&gt;1889868475472</title>
<path fill="none" stroke="black" d="M195,-913.366C195,-905.152 195,-895.658 195,-886.725"/>
<polygon fill="black" stroke="black" points="198.5,-886.607 195,-876.607 191.5,-886.607 198.5,-886.607"/>
</g>
<!-- 1889868242728 -->
<g id="node5" class="node"><title>1889868242728</title>
<polygon fill="none" stroke="black" points="41,-747.5 41,-793.5 349,-793.5 349,-747.5 41,-747.5"/>
<text text-anchor="middle" x="104.5" y="-766.8" font-family="Times New Roman,serif" font-size="14.00">conv2d_3: Conv2D</text>
<polyline fill="none" stroke="black" points="168,-747.5 168,-793.5 "/>
<text text-anchor="middle" x="196" y="-778.3" font-family="Times New Roman,serif" font-size="14.00">input:</text>
<polyline fill="none" stroke="black" points="168,-770.5 224,-770.5 "/>
<text text-anchor="middle" x="196" y="-755.3" font-family="Times New Roman,serif" font-size="14.00">output:</text>
<polyline fill="none" stroke="black" points="224,-747.5 224,-793.5 "/>
<text text-anchor="middle" x="286.5" y="-778.3" font-family="Times New Roman,serif" font-size="14.00">(None, 14, 14, 256)</text>
<polyline fill="none" stroke="black" points="224,-770.5 349,-770.5 "/>
<text text-anchor="middle" x="286.5" y="-755.3" font-family="Times New Roman,serif" font-size="14.00">(None, 14, 14, 384)</text>
</g>
<!-- 1889868475472&#45;&gt;1889868242728 -->
<g id="edge5" class="edge"><title>1889868475472&#45;&gt;1889868242728</title>
<path fill="none" stroke="black" d="M195,-830.366C195,-822.152 195,-812.658 195,-803.725"/>
<polygon fill="black" stroke="black" points="198.5,-803.607 195,-793.607 191.5,-803.607 198.5,-803.607"/>
</g>
<!-- 1889868576304 -->
<g id="node6" class="node"><title>1889868576304</title>
<polygon fill="none" stroke="black" points="41,-664.5 41,-710.5 349,-710.5 349,-664.5 41,-664.5"/>
<text text-anchor="middle" x="104.5" y="-683.8" font-family="Times New Roman,serif" font-size="14.00">conv2d_4: Conv2D</text>
<polyline fill="none" stroke="black" points="168,-664.5 168,-710.5 "/>
<text text-anchor="middle" x="196" y="-695.3" font-family="Times New Roman,serif" font-size="14.00">input:</text>
<polyline fill="none" stroke="black" points="168,-687.5 224,-687.5 "/>
<text text-anchor="middle" x="196" y="-672.3" font-family="Times New Roman,serif" font-size="14.00">output:</text>
<polyline fill="none" stroke="black" points="224,-664.5 224,-710.5 "/>
<text text-anchor="middle" x="286.5" y="-695.3" font-family="Times New Roman,serif" font-size="14.00">(None, 14, 14, 384)</text>
<polyline fill="none" stroke="black" points="224,-687.5 349,-687.5 "/>
<text text-anchor="middle" x="286.5" y="-672.3" font-family="Times New Roman,serif" font-size="14.00">(None, 14, 14, 384)</text>
</g>
<!-- 1889868242728&#45;&gt;1889868576304 -->
<g id="edge6" class="edge"><title>1889868242728&#45;&gt;1889868576304</title>
<path fill="none" stroke="black" d="M195,-747.366C195,-739.152 195,-729.658 195,-720.725"/>
<polygon fill="black" stroke="black" points="198.5,-720.607 195,-710.607 191.5,-720.607 198.5,-720.607"/>
</g>
<!-- 1889868660240 -->
<g id="node7" class="node"><title>1889868660240</title>
<polygon fill="none" stroke="black" points="41,-581.5 41,-627.5 349,-627.5 349,-581.5 41,-581.5"/>
<text text-anchor="middle" x="104.5" y="-600.8" font-family="Times New Roman,serif" font-size="14.00">conv2d_5: Conv2D</text>
<polyline fill="none" stroke="black" points="168,-581.5 168,-627.5 "/>
<text text-anchor="middle" x="196" y="-612.3" font-family="Times New Roman,serif" font-size="14.00">input:</text>
<polyline fill="none" stroke="black" points="168,-604.5 224,-604.5 "/>
<text text-anchor="middle" x="196" y="-589.3" font-family="Times New Roman,serif" font-size="14.00">output:</text>
<polyline fill="none" stroke="black" points="224,-581.5 224,-627.5 "/>
<text text-anchor="middle" x="286.5" y="-612.3" font-family="Times New Roman,serif" font-size="14.00">(None, 14, 14, 384)</text>
<polyline fill="none" stroke="black" points="224,-604.5 349,-604.5 "/>
<text text-anchor="middle" x="286.5" y="-589.3" font-family="Times New Roman,serif" font-size="14.00">(None, 14, 14, 256)</text>
</g>
<!-- 1889868576304&#45;&gt;1889868660240 -->
<g id="edge7" class="edge"><title>1889868576304&#45;&gt;1889868660240</title>
<path fill="none" stroke="black" d="M195,-664.366C195,-656.152 195,-646.658 195,-637.725"/>
<polygon fill="black" stroke="black" points="198.5,-637.607 195,-627.607 191.5,-637.607 198.5,-637.607"/>
</g>
<!-- 1889868829080 -->
<g id="node8" class="node"><title>1889868829080</title>
<polygon fill="none" stroke="black" points="0,-498.5 0,-544.5 390,-544.5 390,-498.5 0,-498.5"/>
<text text-anchor="middle" x="104.5" y="-517.8" font-family="Times New Roman,serif" font-size="14.00">max_pooling2d_3: MaxPooling2D</text>
<polyline fill="none" stroke="black" points="209,-498.5 209,-544.5 "/>
<text text-anchor="middle" x="237" y="-529.3" font-family="Times New Roman,serif" font-size="14.00">input:</text>
<polyline fill="none" stroke="black" points="209,-521.5 265,-521.5 "/>
<text text-anchor="middle" x="237" y="-506.3" font-family="Times New Roman,serif" font-size="14.00">output:</text>
<polyline fill="none" stroke="black" points="265,-498.5 265,-544.5 "/>
<text text-anchor="middle" x="327.5" y="-529.3" font-family="Times New Roman,serif" font-size="14.00">(None, 14, 14, 256)</text>
<polyline fill="none" stroke="black" points="265,-521.5 390,-521.5 "/>
<text text-anchor="middle" x="327.5" y="-506.3" font-family="Times New Roman,serif" font-size="14.00">(None, 6, 6, 256)</text>
</g>
<!-- 1889868660240&#45;&gt;1889868829080 -->
<g id="edge8" class="edge"><title>1889868660240&#45;&gt;1889868829080</title>
<path fill="none" stroke="black" d="M195,-581.366C195,-573.152 195,-563.658 195,-554.725"/>
<polygon fill="black" stroke="black" points="198.5,-554.607 195,-544.607 191.5,-554.607 198.5,-554.607"/>
</g>
<!-- 1889868474464 -->
<g id="node9" class="node"><title>1889868474464</title>
<polygon fill="none" stroke="black" points="56.5,-415.5 56.5,-461.5 333.5,-461.5 333.5,-415.5 56.5,-415.5"/>
<text text-anchor="middle" x="111" y="-434.8" font-family="Times New Roman,serif" font-size="14.00">flatten_1: Flatten</text>
<polyline fill="none" stroke="black" points="165.5,-415.5 165.5,-461.5 "/>
<text text-anchor="middle" x="193.5" y="-446.3" font-family="Times New Roman,serif" font-size="14.00">input:</text>
<polyline fill="none" stroke="black" points="165.5,-438.5 221.5,-438.5 "/>
<text text-anchor="middle" x="193.5" y="-423.3" font-family="Times New Roman,serif" font-size="14.00">output:</text>
<polyline fill="none" stroke="black" points="221.5,-415.5 221.5,-461.5 "/>
<text text-anchor="middle" x="277.5" y="-446.3" font-family="Times New Roman,serif" font-size="14.00">(None, 6, 6, 256)</text>
<polyline fill="none" stroke="black" points="221.5,-438.5 333.5,-438.5 "/>
<text text-anchor="middle" x="277.5" y="-423.3" font-family="Times New Roman,serif" font-size="14.00">(None, 9216)</text>
</g>
<!-- 1889868829080&#45;&gt;1889868474464 -->
<g id="edge9" class="edge"><title>1889868829080&#45;&gt;1889868474464</title>
<path fill="none" stroke="black" d="M195,-498.366C195,-490.152 195,-480.658 195,-471.725"/>
<polygon fill="black" stroke="black" points="198.5,-471.607 195,-461.607 191.5,-471.607 198.5,-471.607"/>
</g>
<!-- 1889868920480 -->
<g id="node10" class="node"><title>1889868920480</title>
<polygon fill="none" stroke="black" points="70,-332.5 70,-378.5 320,-378.5 320,-332.5 70,-332.5"/>
<text text-anchor="middle" x="122" y="-351.8" font-family="Times New Roman,serif" font-size="14.00">dense_1: Dense</text>
<polyline fill="none" stroke="black" points="174,-332.5 174,-378.5 "/>
<text text-anchor="middle" x="202" y="-363.3" font-family="Times New Roman,serif" font-size="14.00">input:</text>
<polyline fill="none" stroke="black" points="174,-355.5 230,-355.5 "/>
<text text-anchor="middle" x="202" y="-340.3" font-family="Times New Roman,serif" font-size="14.00">output:</text>
<polyline fill="none" stroke="black" points="230,-332.5 230,-378.5 "/>
<text text-anchor="middle" x="275" y="-363.3" font-family="Times New Roman,serif" font-size="14.00">(None, 9216)</text>
<polyline fill="none" stroke="black" points="230,-355.5 320,-355.5 "/>
<text text-anchor="middle" x="275" y="-340.3" font-family="Times New Roman,serif" font-size="14.00">(None, 128)</text>
</g>
<!-- 1889868474464&#45;&gt;1889868920480 -->
<g id="edge10" class="edge"><title>1889868474464&#45;&gt;1889868920480</title>
<path fill="none" stroke="black" d="M195,-415.366C195,-407.152 195,-397.658 195,-388.725"/>
<polygon fill="black" stroke="black" points="198.5,-388.607 195,-378.607 191.5,-388.607 198.5,-388.607"/>
</g>
<!-- 1889869002904 -->
<g id="node11" class="node"><title>1889869002904</title>
<polygon fill="none" stroke="black" points="60.5,-249.5 60.5,-295.5 329.5,-295.5 329.5,-249.5 60.5,-249.5"/>
<text text-anchor="middle" x="125.5" y="-268.8" font-family="Times New Roman,serif" font-size="14.00">dropout_1: Dropout</text>
<polyline fill="none" stroke="black" points="190.5,-249.5 190.5,-295.5 "/>
<text text-anchor="middle" x="218.5" y="-280.3" font-family="Times New Roman,serif" font-size="14.00">input:</text>
<polyline fill="none" stroke="black" points="190.5,-272.5 246.5,-272.5 "/>
<text text-anchor="middle" x="218.5" y="-257.3" font-family="Times New Roman,serif" font-size="14.00">output:</text>
<polyline fill="none" stroke="black" points="246.5,-249.5 246.5,-295.5 "/>
<text text-anchor="middle" x="288" y="-280.3" font-family="Times New Roman,serif" font-size="14.00">(None, 128)</text>
<polyline fill="none" stroke="black" points="246.5,-272.5 329.5,-272.5 "/>
<text text-anchor="middle" x="288" y="-257.3" font-family="Times New Roman,serif" font-size="14.00">(None, 128)</text>
</g>
<!-- 1889868920480&#45;&gt;1889869002904 -->
<g id="edge11" class="edge"><title>1889868920480&#45;&gt;1889869002904</title>
<path fill="none" stroke="black" d="M195,-332.366C195,-324.152 195,-314.658 195,-305.725"/>
<polygon fill="black" stroke="black" points="198.5,-305.607 195,-295.607 191.5,-305.607 198.5,-305.607"/>
</g>
<!-- 1889869000888 -->
<g id="node12" class="node"><title>1889869000888</title>
<polygon fill="none" stroke="black" points="73.5,-166.5 73.5,-212.5 316.5,-212.5 316.5,-166.5 73.5,-166.5"/>
<text text-anchor="middle" x="125.5" y="-185.8" font-family="Times New Roman,serif" font-size="14.00">dense_2: Dense</text>
<polyline fill="none" stroke="black" points="177.5,-166.5 177.5,-212.5 "/>
<text text-anchor="middle" x="205.5" y="-197.3" font-family="Times New Roman,serif" font-size="14.00">input:</text>
<polyline fill="none" stroke="black" points="177.5,-189.5 233.5,-189.5 "/>
<text text-anchor="middle" x="205.5" y="-174.3" font-family="Times New Roman,serif" font-size="14.00">output:</text>
<polyline fill="none" stroke="black" points="233.5,-166.5 233.5,-212.5 "/>
<text text-anchor="middle" x="275" y="-197.3" font-family="Times New Roman,serif" font-size="14.00">(None, 128)</text>
<polyline fill="none" stroke="black" points="233.5,-189.5 316.5,-189.5 "/>
<text text-anchor="middle" x="275" y="-174.3" font-family="Times New Roman,serif" font-size="14.00">(None, 128)</text>
</g>
<!-- 1889869002904&#45;&gt;1889869000888 -->
<g id="edge12" class="edge"><title>1889869002904&#45;&gt;1889869000888</title>
<path fill="none" stroke="black" d="M195,-249.366C195,-241.152 195,-231.658 195,-222.725"/>
<polygon fill="black" stroke="black" points="198.5,-222.607 195,-212.607 191.5,-222.607 198.5,-222.607"/>
</g>
<!-- 1889868829472 -->
<g id="node13" class="node"><title>1889868829472</title>
<polygon fill="none" stroke="black" points="60.5,-83.5 60.5,-129.5 329.5,-129.5 329.5,-83.5 60.5,-83.5"/>
<text text-anchor="middle" x="125.5" y="-102.8" font-family="Times New Roman,serif" font-size="14.00">dropout_2: Dropout</text>
<polyline fill="none" stroke="black" points="190.5,-83.5 190.5,-129.5 "/>
<text text-anchor="middle" x="218.5" y="-114.3" font-family="Times New Roman,serif" font-size="14.00">input:</text>
<polyline fill="none" stroke="black" points="190.5,-106.5 246.5,-106.5 "/>
<text text-anchor="middle" x="218.5" y="-91.3" font-family="Times New Roman,serif" font-size="14.00">output:</text>
<polyline fill="none" stroke="black" points="246.5,-83.5 246.5,-129.5 "/>
<text text-anchor="middle" x="288" y="-114.3" font-family="Times New Roman,serif" font-size="14.00">(None, 128)</text>
<polyline fill="none" stroke="black" points="246.5,-106.5 329.5,-106.5 "/>
<text text-anchor="middle" x="288" y="-91.3" font-family="Times New Roman,serif" font-size="14.00">(None, 128)</text>
</g>
<!-- 1889869000888&#45;&gt;1889868829472 -->
<g id="edge13" class="edge"><title>1889869000888&#45;&gt;1889868829472</title>
<path fill="none" stroke="black" d="M195,-166.366C195,-158.152 195,-148.658 195,-139.725"/>
<polygon fill="black" stroke="black" points="198.5,-139.607 195,-129.607 191.5,-139.607 198.5,-139.607"/>
</g>
<!-- 1889869095152 -->
<g id="node14" class="node"><title>1889869095152</title>
<polygon fill="none" stroke="black" points="73.5,-0.5 73.5,-46.5 316.5,-46.5 316.5,-0.5 73.5,-0.5"/>
<text text-anchor="middle" x="125.5" y="-19.8" font-family="Times New Roman,serif" font-size="14.00">dense_3: Dense</text>
<polyline fill="none" stroke="black" points="177.5,-0.5 177.5,-46.5 "/>
<text text-anchor="middle" x="205.5" y="-31.3" font-family="Times New Roman,serif" font-size="14.00">input:</text>
<polyline fill="none" stroke="black" points="177.5,-23.5 233.5,-23.5 "/>
<text text-anchor="middle" x="205.5" y="-8.3" font-family="Times New Roman,serif" font-size="14.00">output:</text>
<polyline fill="none" stroke="black" points="233.5,-0.5 233.5,-46.5 "/>
<text text-anchor="middle" x="275" y="-31.3" font-family="Times New Roman,serif" font-size="14.00">(None, 128)</text>
<polyline fill="none" stroke="black" points="233.5,-23.5 316.5,-23.5 "/>
<text text-anchor="middle" x="275" y="-8.3" font-family="Times New Roman,serif" font-size="14.00">(None, 1)</text>
</g>
<!-- 1889868829472&#45;&gt;1889869095152 -->
<g id="edge14" class="edge"><title>1889868829472&#45;&gt;1889869095152</title>
<path fill="none" stroke="black" d="M195,-83.3664C195,-75.1516 195,-65.6579 195,-56.7252"/>
<polygon fill="black" stroke="black" points="198.5,-56.6068 195,-46.6068 191.5,-56.6069 198.5,-56.6068"/>
</g>
<!-- 1889868241272 -->
<g id="node15" class="node"><title>1889868241272</title>
<polygon fill="none" stroke="black" points="143,-1162.5 143,-1198.5 247,-1198.5 247,-1162.5 143,-1162.5"/>
<text text-anchor="middle" x="195" y="-1176.8" font-family="Times New Roman,serif" font-size="14.00">1889868241272</text>
</g>
<!-- 1889868241272&#45;&gt;1889868241216 -->
<g id="edge1" class="edge"><title>1889868241272&#45;&gt;1889868241216</title>
<path fill="none" stroke="black" d="M195,-1162.25C195,-1154.36 195,-1144.75 195,-1135.6"/>
<polygon fill="black" stroke="black" points="198.5,-1135.59 195,-1125.59 191.5,-1135.59 198.5,-1135.59"/>
</g>
</g>
</svg>
