<?xml version="1.0" encoding="UTF-8" standalone="no"?>
<!DOCTYPE svg PUBLIC "-//W3C//DTD SVG 1.1//EN"
 "http://www.w3.org/Graphics/SVG/1.1/DTD/svg11.dtd">
<!-- Generated by graphviz version 2.38.0 (20140413.2041)
 -->
<!-- Title: G Pages: 1 -->
<svg width="405pt" height="792pt"
 viewBox="0.00 0.00 405.00 792.00" xmlns="http://www.w3.org/2000/svg" xmlns:xlink="http://www.w3.org/1999/xlink">
<g id="graph0" class="graph" transform="scale(1 1) rotate(0) translate(4 788)">
<title>G</title>
<polygon fill="white" stroke="none" points="-4,4 -4,-788 401,-788 401,4 -4,4"/>
<!-- 2200358081592 -->
<g id="node1" class="node"><title>2200358081592</title>
<polygon fill="none" stroke="black" points="41,-664.5 41,-710.5 356,-710.5 356,-664.5 41,-664.5"/>
<text text-anchor="middle" x="104.5" y="-683.8" font-family="Times New Roman,serif" font-size="14.00">conv2d_1: Conv2D</text>
<polyline fill="none" stroke="black" points="168,-664.5 168,-710.5 "/>
<text text-anchor="middle" x="196" y="-695.3" font-family="Times New Roman,serif" font-size="14.00">input:</text>
<polyline fill="none" stroke="black" points="168,-687.5 224,-687.5 "/>
<text text-anchor="middle" x="196" y="-672.3" font-family="Times New Roman,serif" font-size="14.00">output:</text>
<polyline fill="none" stroke="black" points="224,-664.5 224,-710.5 "/>
<text text-anchor="middle" x="290" y="-695.3" font-family="Times New Roman,serif" font-size="14.00">(None, 256, 256, 3)</text>
<polyline fill="none" stroke="black" points="224,-687.5 356,-687.5 "/>
<text text-anchor="middle" x="290" y="-672.3" font-family="Times New Roman,serif" font-size="14.00">(None, 254, 254, 32)</text>
</g>
<!-- 2200358083328 -->
<g id="node2" class="node"><title>2200358083328</title>
<polygon fill="none" stroke="black" points="0,-581.5 0,-627.5 397,-627.5 397,-581.5 0,-581.5"/>
<text text-anchor="middle" x="104.5" y="-600.8" font-family="Times New Roman,serif" font-size="14.00">max_pooling2d_1: MaxPooling2D</text>
<polyline fill="none" stroke="black" points="209,-581.5 209,-627.5 "/>
<text text-anchor="middle" x="237" y="-612.3" font-family="Times New Roman,serif" font-size="14.00">input:</text>
<polyline fill="none" stroke="black" points="209,-604.5 265,-604.5 "/>
<text text-anchor="middle" x="237" y="-589.3" font-family="Times New Roman,serif" font-size="14.00">output:</text>
<polyline fill="none" stroke="black" points="265,-581.5 265,-627.5 "/>
<text text-anchor="middle" x="331" y="-612.3" font-family="Times New Roman,serif" font-size="14.00">(None, 254, 254, 32)</text>
<polyline fill="none" stroke="black" points="265,-604.5 397,-604.5 "/>
<text text-anchor="middle" x="331" y="-589.3" font-family="Times New Roman,serif" font-size="14.00">(None, 127, 127, 32)</text>
</g>
<!-- 2200358081592&#45;&gt;2200358083328 -->
<g id="edge2" class="edge"><title>2200358081592&#45;&gt;2200358083328</title>
<path fill="none" stroke="black" d="M198.5,-664.366C198.5,-656.152 198.5,-646.658 198.5,-637.725"/>
<polygon fill="black" stroke="black" points="202,-637.607 198.5,-627.607 195,-637.607 202,-637.607"/>
</g>
<!-- 2200358223320 -->
<g id="node3" class="node"><title>2200358223320</title>
<polygon fill="none" stroke="black" points="41,-498.5 41,-544.5 356,-544.5 356,-498.5 41,-498.5"/>
<text text-anchor="middle" x="104.5" y="-517.8" font-family="Times New Roman,serif" font-size="14.00">conv2d_2: Conv2D</text>
<polyline fill="none" stroke="black" points="168,-498.5 168,-544.5 "/>
<text text-anchor="middle" x="196" y="-529.3" font-family="Times New Roman,serif" font-size="14.00">input:</text>
<polyline fill="none" stroke="black" points="168,-521.5 224,-521.5 "/>
<text text-anchor="middle" x="196" y="-506.3" font-family="Times New Roman,serif" font-size="14.00">output:</text>
<polyline fill="none" stroke="black" points="224,-498.5 224,-544.5 "/>
<text text-anchor="middle" x="290" y="-529.3" font-family="Times New Roman,serif" font-size="14.00">(None, 127, 127, 32)</text>
<polyline fill="none" stroke="black" points="224,-521.5 356,-521.5 "/>
<text text-anchor="middle" x="290" y="-506.3" font-family="Times New Roman,serif" font-size="14.00">(None, 125, 125, 32)</text>
</g>
<!-- 2200358083328&#45;&gt;2200358223320 -->
<g id="edge3" class="edge"><title>2200358083328&#45;&gt;2200358223320</title>
<path fill="none" stroke="black" d="M198.5,-581.366C198.5,-573.152 198.5,-563.658 198.5,-554.725"/>
<polygon fill="black" stroke="black" points="202,-554.607 198.5,-544.607 195,-554.607 202,-554.607"/>
</g>
<!-- 2200358344464 -->
<g id="node4" class="node"><title>2200358344464</title>
<polygon fill="none" stroke="black" points="0,-415.5 0,-461.5 397,-461.5 397,-415.5 0,-415.5"/>
<text text-anchor="middle" x="104.5" y="-434.8" font-family="Times New Roman,serif" font-size="14.00">max_pooling2d_2: MaxPooling2D</text>
<polyline fill="none" stroke="black" points="209,-415.5 209,-461.5 "/>
<text text-anchor="middle" x="237" y="-446.3" font-family="Times New Roman,serif" font-size="14.00">input:</text>
<polyline fill="none" stroke="black" points="209,-438.5 265,-438.5 "/>
<text text-anchor="middle" x="237" y="-423.3" font-family="Times New Roman,serif" font-size="14.00">output:</text>
<polyline fill="none" stroke="black" points="265,-415.5 265,-461.5 "/>
<text text-anchor="middle" x="331" y="-446.3" font-family="Times New Roman,serif" font-size="14.00">(None, 125, 125, 32)</text>
<polyline fill="none" stroke="black" points="265,-438.5 397,-438.5 "/>
<text text-anchor="middle" x="331" y="-423.3" font-family="Times New Roman,serif" font-size="14.00">(None, 62, 62, 32)</text>
</g>
<!-- 2200358223320&#45;&gt;2200358344464 -->
<g id="edge4" class="edge"><title>2200358223320&#45;&gt;2200358344464</title>
<path fill="none" stroke="black" d="M198.5,-498.366C198.5,-490.152 198.5,-480.658 198.5,-471.725"/>
<polygon fill="black" stroke="black" points="202,-471.607 198.5,-461.607 195,-471.607 202,-471.607"/>
</g>
<!-- 2200358343512 -->
<g id="node5" class="node"><title>2200358343512</title>
<polygon fill="none" stroke="black" points="47.5,-332.5 47.5,-378.5 349.5,-378.5 349.5,-332.5 47.5,-332.5"/>
<text text-anchor="middle" x="111" y="-351.8" font-family="Times New Roman,serif" font-size="14.00">conv2d_3: Conv2D</text>
<polyline fill="none" stroke="black" points="174.5,-332.5 174.5,-378.5 "/>
<text text-anchor="middle" x="202.5" y="-363.3" font-family="Times New Roman,serif" font-size="14.00">input:</text>
<polyline fill="none" stroke="black" points="174.5,-355.5 230.5,-355.5 "/>
<text text-anchor="middle" x="202.5" y="-340.3" font-family="Times New Roman,serif" font-size="14.00">output:</text>
<polyline fill="none" stroke="black" points="230.5,-332.5 230.5,-378.5 "/>
<text text-anchor="middle" x="290" y="-363.3" font-family="Times New Roman,serif" font-size="14.00">(None, 62, 62, 32)</text>
<polyline fill="none" stroke="black" points="230.5,-355.5 349.5,-355.5 "/>
<text text-anchor="middle" x="290" y="-340.3" font-family="Times New Roman,serif" font-size="14.00">(None, 60, 60, 32)</text>
</g>
<!-- 2200358344464&#45;&gt;2200358343512 -->
<g id="edge5" class="edge"><title>2200358344464&#45;&gt;2200358343512</title>
<path fill="none" stroke="black" d="M198.5,-415.366C198.5,-407.152 198.5,-397.658 198.5,-388.725"/>
<polygon fill="black" stroke="black" points="202,-388.607 198.5,-378.607 195,-388.607 202,-388.607"/>
</g>
<!-- 2200358440576 -->
<g id="node6" class="node"><title>2200358440576</title>
<polygon fill="none" stroke="black" points="6.5,-249.5 6.5,-295.5 390.5,-295.5 390.5,-249.5 6.5,-249.5"/>
<text text-anchor="middle" x="111" y="-268.8" font-family="Times New Roman,serif" font-size="14.00">max_pooling2d_3: MaxPooling2D</text>
<polyline fill="none" stroke="black" points="215.5,-249.5 215.5,-295.5 "/>
<text text-anchor="middle" x="243.5" y="-280.3" font-family="Times New Roman,serif" font-size="14.00">input:</text>
<polyline fill="none" stroke="black" points="215.5,-272.5 271.5,-272.5 "/>
<text text-anchor="middle" x="243.5" y="-257.3" font-family="Times New Roman,serif" font-size="14.00">output:</text>
<polyline fill="none" stroke="black" points="271.5,-249.5 271.5,-295.5 "/>
<text text-anchor="middle" x="331" y="-280.3" font-family="Times New Roman,serif" font-size="14.00">(None, 60, 60, 32)</text>
<polyline fill="none" stroke="black" points="271.5,-272.5 390.5,-272.5 "/>
<text text-anchor="middle" x="331" y="-257.3" font-family="Times New Roman,serif" font-size="14.00">(None, 30, 30, 32)</text>
</g>
<!-- 2200358343512&#45;&gt;2200358440576 -->
<g id="edge6" class="edge"><title>2200358343512&#45;&gt;2200358440576</title>
<path fill="none" stroke="black" d="M198.5,-332.366C198.5,-324.152 198.5,-314.658 198.5,-305.725"/>
<polygon fill="black" stroke="black" points="202,-305.607 198.5,-295.607 195,-305.607 202,-305.607"/>
</g>
<!-- 2200358082880 -->
<g id="node7" class="node"><title>2200358082880</title>
<polygon fill="none" stroke="black" points="56.5,-166.5 56.5,-212.5 340.5,-212.5 340.5,-166.5 56.5,-166.5"/>
<text text-anchor="middle" x="111" y="-185.8" font-family="Times New Roman,serif" font-size="14.00">flatten_1: Flatten</text>
<polyline fill="none" stroke="black" points="165.5,-166.5 165.5,-212.5 "/>
<text text-anchor="middle" x="193.5" y="-197.3" font-family="Times New Roman,serif" font-size="14.00">input:</text>
<polyline fill="none" stroke="black" points="165.5,-189.5 221.5,-189.5 "/>
<text text-anchor="middle" x="193.5" y="-174.3" font-family="Times New Roman,serif" font-size="14.00">output:</text>
<polyline fill="none" stroke="black" points="221.5,-166.5 221.5,-212.5 "/>
<text text-anchor="middle" x="281" y="-197.3" font-family="Times New Roman,serif" font-size="14.00">(None, 30, 30, 32)</text>
<polyline fill="none" stroke="black" points="221.5,-189.5 340.5,-189.5 "/>
<text text-anchor="middle" x="281" y="-174.3" font-family="Times New Roman,serif" font-size="14.00">(None, 28800)</text>
</g>
<!-- 2200358440576&#45;&gt;2200358082880 -->
<g id="edge7" class="edge"><title>2200358440576&#45;&gt;2200358082880</title>
<path fill="none" stroke="black" d="M198.5,-249.366C198.5,-241.152 198.5,-231.658 198.5,-222.725"/>
<polygon fill="black" stroke="black" points="202,-222.607 198.5,-212.607 195,-222.607 202,-222.607"/>
</g>
<!-- 2200358526312 -->
<g id="node8" class="node"><title>2200358526312</title>
<polygon fill="none" stroke="black" points="70,-83.5 70,-129.5 327,-129.5 327,-83.5 70,-83.5"/>
<text text-anchor="middle" x="122" y="-102.8" font-family="Times New Roman,serif" font-size="14.00">dense_1: Dense</text>
<polyline fill="none" stroke="black" points="174,-83.5 174,-129.5 "/>
<text text-anchor="middle" x="202" y="-114.3" font-family="Times New Roman,serif" font-size="14.00">input:</text>
<polyline fill="none" stroke="black" points="174,-106.5 230,-106.5 "/>
<text text-anchor="middle" x="202" y="-91.3" font-family="Times New Roman,serif" font-size="14.00">output:</text>
<polyline fill="none" stroke="black" points="230,-83.5 230,-129.5 "/>
<text text-anchor="middle" x="278.5" y="-114.3" font-family="Times New Roman,serif" font-size="14.00">(None, 28800)</text>
<polyline fill="none" stroke="black" points="230,-106.5 327,-106.5 "/>
<text text-anchor="middle" x="278.5" y="-91.3" font-family="Times New Roman,serif" font-size="14.00">(None, 128)</text>
</g>
<!-- 2200358082880&#45;&gt;2200358526312 -->
<g id="edge8" class="edge"><title>2200358082880&#45;&gt;2200358526312</title>
<path fill="none" stroke="black" d="M198.5,-166.366C198.5,-158.152 198.5,-148.658 198.5,-139.725"/>
<polygon fill="black" stroke="black" points="202,-139.607 198.5,-129.607 195,-139.607 202,-139.607"/>
</g>
<!-- 2200358603128 -->
<g id="node9" class="node"><title>2200358603128</title>
<polygon fill="none" stroke="black" points="77,-0.5 77,-46.5 320,-46.5 320,-0.5 77,-0.5"/>
<text text-anchor="middle" x="129" y="-19.8" font-family="Times New Roman,serif" font-size="14.00">dense_2: Dense</text>
<polyline fill="none" stroke="black" points="181,-0.5 181,-46.5 "/>
<text text-anchor="middle" x="209" y="-31.3" font-family="Times New Roman,serif" font-size="14.00">input:</text>
<polyline fill="none" stroke="black" points="181,-23.5 237,-23.5 "/>
<text text-anchor="middle" x="209" y="-8.3" font-family="Times New Roman,serif" font-size="14.00">output:</text>
<polyline fill="none" stroke="black" points="237,-0.5 237,-46.5 "/>
<text text-anchor="middle" x="278.5" y="-31.3" font-family="Times New Roman,serif" font-size="14.00">(None, 128)</text>
<polyline fill="none" stroke="black" points="237,-23.5 320,-23.5 "/>
<text text-anchor="middle" x="278.5" y="-8.3" font-family="Times New Roman,serif" font-size="14.00">(None, 1)</text>
</g>
<!-- 2200358526312&#45;&gt;2200358603128 -->
<g id="edge9" class="edge"><title>2200358526312&#45;&gt;2200358603128</title>
<path fill="none" stroke="black" d="M198.5,-83.3664C198.5,-75.1516 198.5,-65.6579 198.5,-56.7252"/>
<polygon fill="black" stroke="black" points="202,-56.6068 198.5,-46.6068 195,-56.6069 202,-56.6068"/>
</g>
<!-- 2200358081648 -->
<g id="node10" class="node"><title>2200358081648</title>
<polygon fill="none" stroke="black" points="146.5,-747.5 146.5,-783.5 250.5,-783.5 250.5,-747.5 146.5,-747.5"/>
<text text-anchor="middle" x="198.5" y="-761.8" font-family="Times New Roman,serif" font-size="14.00">2200358081648</text>
</g>
<!-- 2200358081648&#45;&gt;2200358081592 -->
<g id="edge1" class="edge"><title>2200358081648&#45;&gt;2200358081592</title>
<path fill="none" stroke="black" d="M198.5,-747.254C198.5,-739.363 198.5,-729.749 198.5,-720.602"/>
<polygon fill="black" stroke="black" points="202,-720.591 198.5,-710.591 195,-720.591 202,-720.591"/>
</g>
</g>
</svg>
