<?xml version="1.0" encoding="UTF-8" standalone="no"?>
<!DOCTYPE svg PUBLIC "-//W3C//DTD SVG 1.1//EN"
 "http://www.w3.org/Graphics/SVG/1.1/DTD/svg11.dtd">
<!-- Generated by graphviz version 2.38.0 (20140413.2041)
 -->
<!-- Title: G Pages: 1 -->
<svg width="405pt" height="1207pt"
 viewBox="0.00 0.00 405.00 1207.00" xmlns="http://www.w3.org/2000/svg" xmlns:xlink="http://www.w3.org/1999/xlink">
<g id="graph0" class="graph" transform="scale(1 1) rotate(0) translate(4 1203)">
<title>G</title>
<polygon fill="white" stroke="none" points="-4,4 -4,-1203 401,-1203 401,4 -4,4"/>
<!-- 2535700140440 -->
<g id="node1" class="node"><title>2535700140440</title>
<polygon fill="none" stroke="black" points="41,-1079.5 41,-1125.5 356,-1125.5 356,-1079.5 41,-1079.5"/>
<text text-anchor="middle" x="104.5" y="-1098.8" font-family="Times New Roman,serif" font-size="14.00">conv2d_1: Conv2D</text>
<polyline fill="none" stroke="black" points="168,-1079.5 168,-1125.5 "/>
<text text-anchor="middle" x="196" y="-1110.3" font-family="Times New Roman,serif" font-size="14.00">input:</text>
<polyline fill="none" stroke="black" points="168,-1102.5 224,-1102.5 "/>
<text text-anchor="middle" x="196" y="-1087.3" font-family="Times New Roman,serif" font-size="14.00">output:</text>
<polyline fill="none" stroke="black" points="224,-1079.5 224,-1125.5 "/>
<text text-anchor="middle" x="290" y="-1110.3" font-family="Times New Roman,serif" font-size="14.00">(None, 256, 256, 3)</text>
<polyline fill="none" stroke="black" points="224,-1102.5 356,-1102.5 "/>
<text text-anchor="middle" x="290" y="-1087.3" font-family="Times New Roman,serif" font-size="14.00">(None, 254, 254, 24)</text>
</g>
<!-- 2535700142176 -->
<g id="node2" class="node"><title>2535700142176</title>
<polygon fill="none" stroke="black" points="0,-996.5 0,-1042.5 397,-1042.5 397,-996.5 0,-996.5"/>
<text text-anchor="middle" x="104.5" y="-1015.8" font-family="Times New Roman,serif" font-size="14.00">max_pooling2d_1: MaxPooling2D</text>
<polyline fill="none" stroke="black" points="209,-996.5 209,-1042.5 "/>
<text text-anchor="middle" x="237" y="-1027.3" font-family="Times New Roman,serif" font-size="14.00">input:</text>
<polyline fill="none" stroke="black" points="209,-1019.5 265,-1019.5 "/>
<text text-anchor="middle" x="237" y="-1004.3" font-family="Times New Roman,serif" font-size="14.00">output:</text>
<polyline fill="none" stroke="black" points="265,-996.5 265,-1042.5 "/>
<text text-anchor="middle" x="331" y="-1027.3" font-family="Times New Roman,serif" font-size="14.00">(None, 254, 254, 24)</text>
<polyline fill="none" stroke="black" points="265,-1019.5 397,-1019.5 "/>
<text text-anchor="middle" x="331" y="-1004.3" font-family="Times New Roman,serif" font-size="14.00">(None, 126, 126, 24)</text>
</g>
<!-- 2535700140440&#45;&gt;2535700142176 -->
<g id="edge2" class="edge"><title>2535700140440&#45;&gt;2535700142176</title>
<path fill="none" stroke="black" d="M198.5,-1079.37C198.5,-1071.15 198.5,-1061.66 198.5,-1052.73"/>
<polygon fill="black" stroke="black" points="202,-1052.61 198.5,-1042.61 195,-1052.61 202,-1052.61"/>
</g>
<!-- 2535700299448 -->
<g id="node3" class="node"><title>2535700299448</title>
<polygon fill="none" stroke="black" points="41,-913.5 41,-959.5 356,-959.5 356,-913.5 41,-913.5"/>
<text text-anchor="middle" x="104.5" y="-932.8" font-family="Times New Roman,serif" font-size="14.00">conv2d_2: Conv2D</text>
<polyline fill="none" stroke="black" points="168,-913.5 168,-959.5 "/>
<text text-anchor="middle" x="196" y="-944.3" font-family="Times New Roman,serif" font-size="14.00">input:</text>
<polyline fill="none" stroke="black" points="168,-936.5 224,-936.5 "/>
<text text-anchor="middle" x="196" y="-921.3" font-family="Times New Roman,serif" font-size="14.00">output:</text>
<polyline fill="none" stroke="black" points="224,-913.5 224,-959.5 "/>
<text text-anchor="middle" x="290" y="-944.3" font-family="Times New Roman,serif" font-size="14.00">(None, 126, 126, 24)</text>
<polyline fill="none" stroke="black" points="224,-936.5 356,-936.5 "/>
<text text-anchor="middle" x="290" y="-921.3" font-family="Times New Roman,serif" font-size="14.00">(None, 126, 126, 64)</text>
</g>
<!-- 2535700142176&#45;&gt;2535700299448 -->
<g id="edge3" class="edge"><title>2535700142176&#45;&gt;2535700299448</title>
<path fill="none" stroke="black" d="M198.5,-996.366C198.5,-988.152 198.5,-978.658 198.5,-969.725"/>
<polygon fill="black" stroke="black" points="202,-969.607 198.5,-959.607 195,-969.607 202,-969.607"/>
</g>
<!-- 2535700440232 -->
<g id="node4" class="node"><title>2535700440232</title>
<polygon fill="none" stroke="black" points="0,-830.5 0,-876.5 397,-876.5 397,-830.5 0,-830.5"/>
<text text-anchor="middle" x="104.5" y="-849.8" font-family="Times New Roman,serif" font-size="14.00">max_pooling2d_2: MaxPooling2D</text>
<polyline fill="none" stroke="black" points="209,-830.5 209,-876.5 "/>
<text text-anchor="middle" x="237" y="-861.3" font-family="Times New Roman,serif" font-size="14.00">input:</text>
<polyline fill="none" stroke="black" points="209,-853.5 265,-853.5 "/>
<text text-anchor="middle" x="237" y="-838.3" font-family="Times New Roman,serif" font-size="14.00">output:</text>
<polyline fill="none" stroke="black" points="265,-830.5 265,-876.5 "/>
<text text-anchor="middle" x="331" y="-861.3" font-family="Times New Roman,serif" font-size="14.00">(None, 126, 126, 64)</text>
<polyline fill="none" stroke="black" points="265,-853.5 397,-853.5 "/>
<text text-anchor="middle" x="331" y="-838.3" font-family="Times New Roman,serif" font-size="14.00">(None, 62, 62, 64)</text>
</g>
<!-- 2535700299448&#45;&gt;2535700440232 -->
<g id="edge4" class="edge"><title>2535700299448&#45;&gt;2535700440232</title>
<path fill="none" stroke="black" d="M198.5,-913.366C198.5,-905.152 198.5,-895.658 198.5,-886.725"/>
<polygon fill="black" stroke="black" points="202,-886.607 198.5,-876.607 195,-886.607 202,-886.607"/>
</g>
<!-- 2535700439560 -->
<g id="node5" class="node"><title>2535700439560</title>
<polygon fill="none" stroke="black" points="47.5,-747.5 47.5,-793.5 349.5,-793.5 349.5,-747.5 47.5,-747.5"/>
<text text-anchor="middle" x="111" y="-766.8" font-family="Times New Roman,serif" font-size="14.00">conv2d_3: Conv2D</text>
<polyline fill="none" stroke="black" points="174.5,-747.5 174.5,-793.5 "/>
<text text-anchor="middle" x="202.5" y="-778.3" font-family="Times New Roman,serif" font-size="14.00">input:</text>
<polyline fill="none" stroke="black" points="174.5,-770.5 230.5,-770.5 "/>
<text text-anchor="middle" x="202.5" y="-755.3" font-family="Times New Roman,serif" font-size="14.00">output:</text>
<polyline fill="none" stroke="black" points="230.5,-747.5 230.5,-793.5 "/>
<text text-anchor="middle" x="290" y="-778.3" font-family="Times New Roman,serif" font-size="14.00">(None, 62, 62, 64)</text>
<polyline fill="none" stroke="black" points="230.5,-770.5 349.5,-770.5 "/>
<text text-anchor="middle" x="290" y="-755.3" font-family="Times New Roman,serif" font-size="14.00">(None, 62, 62, 96)</text>
</g>
<!-- 2535700440232&#45;&gt;2535700439560 -->
<g id="edge5" class="edge"><title>2535700440232&#45;&gt;2535700439560</title>
<path fill="none" stroke="black" d="M198.5,-830.366C198.5,-822.152 198.5,-812.658 198.5,-803.725"/>
<polygon fill="black" stroke="black" points="202,-803.607 198.5,-793.607 195,-803.607 202,-803.607"/>
</g>
<!-- 2535700503576 -->
<g id="node6" class="node"><title>2535700503576</title>
<polygon fill="none" stroke="black" points="47.5,-664.5 47.5,-710.5 349.5,-710.5 349.5,-664.5 47.5,-664.5"/>
<text text-anchor="middle" x="111" y="-683.8" font-family="Times New Roman,serif" font-size="14.00">conv2d_4: Conv2D</text>
<polyline fill="none" stroke="black" points="174.5,-664.5 174.5,-710.5 "/>
<text text-anchor="middle" x="202.5" y="-695.3" font-family="Times New Roman,serif" font-size="14.00">input:</text>
<polyline fill="none" stroke="black" points="174.5,-687.5 230.5,-687.5 "/>
<text text-anchor="middle" x="202.5" y="-672.3" font-family="Times New Roman,serif" font-size="14.00">output:</text>
<polyline fill="none" stroke="black" points="230.5,-664.5 230.5,-710.5 "/>
<text text-anchor="middle" x="290" y="-695.3" font-family="Times New Roman,serif" font-size="14.00">(None, 62, 62, 96)</text>
<polyline fill="none" stroke="black" points="230.5,-687.5 349.5,-687.5 "/>
<text text-anchor="middle" x="290" y="-672.3" font-family="Times New Roman,serif" font-size="14.00">(None, 62, 62, 96)</text>
</g>
<!-- 2535700439560&#45;&gt;2535700503576 -->
<g id="edge6" class="edge"><title>2535700439560&#45;&gt;2535700503576</title>
<path fill="none" stroke="black" d="M198.5,-747.366C198.5,-739.152 198.5,-729.658 198.5,-720.725"/>
<polygon fill="black" stroke="black" points="202,-720.607 198.5,-710.607 195,-720.607 202,-720.607"/>
</g>
<!-- 2535700596048 -->
<g id="node7" class="node"><title>2535700596048</title>
<polygon fill="none" stroke="black" points="47.5,-581.5 47.5,-627.5 349.5,-627.5 349.5,-581.5 47.5,-581.5"/>
<text text-anchor="middle" x="111" y="-600.8" font-family="Times New Roman,serif" font-size="14.00">conv2d_5: Conv2D</text>
<polyline fill="none" stroke="black" points="174.5,-581.5 174.5,-627.5 "/>
<text text-anchor="middle" x="202.5" y="-612.3" font-family="Times New Roman,serif" font-size="14.00">input:</text>
<polyline fill="none" stroke="black" points="174.5,-604.5 230.5,-604.5 "/>
<text text-anchor="middle" x="202.5" y="-589.3" font-family="Times New Roman,serif" font-size="14.00">output:</text>
<polyline fill="none" stroke="black" points="230.5,-581.5 230.5,-627.5 "/>
<text text-anchor="middle" x="290" y="-612.3" font-family="Times New Roman,serif" font-size="14.00">(None, 62, 62, 96)</text>
<polyline fill="none" stroke="black" points="230.5,-604.5 349.5,-604.5 "/>
<text text-anchor="middle" x="290" y="-589.3" font-family="Times New Roman,serif" font-size="14.00">(None, 62, 62, 64)</text>
</g>
<!-- 2535700503576&#45;&gt;2535700596048 -->
<g id="edge7" class="edge"><title>2535700503576&#45;&gt;2535700596048</title>
<path fill="none" stroke="black" d="M198.5,-664.366C198.5,-656.152 198.5,-646.658 198.5,-637.725"/>
<polygon fill="black" stroke="black" points="202,-637.607 198.5,-627.607 195,-637.607 202,-637.607"/>
</g>
<!-- 2535700692104 -->
<g id="node8" class="node"><title>2535700692104</title>
<polygon fill="none" stroke="black" points="6.5,-498.5 6.5,-544.5 390.5,-544.5 390.5,-498.5 6.5,-498.5"/>
<text text-anchor="middle" x="111" y="-517.8" font-family="Times New Roman,serif" font-size="14.00">max_pooling2d_3: MaxPooling2D</text>
<polyline fill="none" stroke="black" points="215.5,-498.5 215.5,-544.5 "/>
<text text-anchor="middle" x="243.5" y="-529.3" font-family="Times New Roman,serif" font-size="14.00">input:</text>
<polyline fill="none" stroke="black" points="215.5,-521.5 271.5,-521.5 "/>
<text text-anchor="middle" x="243.5" y="-506.3" font-family="Times New Roman,serif" font-size="14.00">output:</text>
<polyline fill="none" stroke="black" points="271.5,-498.5 271.5,-544.5 "/>
<text text-anchor="middle" x="331" y="-529.3" font-family="Times New Roman,serif" font-size="14.00">(None, 62, 62, 64)</text>
<polyline fill="none" stroke="black" points="271.5,-521.5 390.5,-521.5 "/>
<text text-anchor="middle" x="331" y="-506.3" font-family="Times New Roman,serif" font-size="14.00">(None, 30, 30, 64)</text>
</g>
<!-- 2535700596048&#45;&gt;2535700692104 -->
<g id="edge8" class="edge"><title>2535700596048&#45;&gt;2535700692104</title>
<path fill="none" stroke="black" d="M198.5,-581.366C198.5,-573.152 198.5,-563.658 198.5,-554.725"/>
<polygon fill="black" stroke="black" points="202,-554.607 198.5,-544.607 195,-554.607 202,-554.607"/>
</g>
<!-- 2535700141728 -->
<g id="node9" class="node"><title>2535700141728</title>
<polygon fill="none" stroke="black" points="56.5,-415.5 56.5,-461.5 340.5,-461.5 340.5,-415.5 56.5,-415.5"/>
<text text-anchor="middle" x="111" y="-434.8" font-family="Times New Roman,serif" font-size="14.00">flatten_1: Flatten</text>
<polyline fill="none" stroke="black" points="165.5,-415.5 165.5,-461.5 "/>
<text text-anchor="middle" x="193.5" y="-446.3" font-family="Times New Roman,serif" font-size="14.00">input:</text>
<polyline fill="none" stroke="black" points="165.5,-438.5 221.5,-438.5 "/>
<text text-anchor="middle" x="193.5" y="-423.3" font-family="Times New Roman,serif" font-size="14.00">output:</text>
<polyline fill="none" stroke="black" points="221.5,-415.5 221.5,-461.5 "/>
<text text-anchor="middle" x="281" y="-446.3" font-family="Times New Roman,serif" font-size="14.00">(None, 30, 30, 64)</text>
<polyline fill="none" stroke="black" points="221.5,-438.5 340.5,-438.5 "/>
<text text-anchor="middle" x="281" y="-423.3" font-family="Times New Roman,serif" font-size="14.00">(None, 57600)</text>
</g>
<!-- 2535700692104&#45;&gt;2535700141728 -->
<g id="edge9" class="edge"><title>2535700692104&#45;&gt;2535700141728</title>
<path fill="none" stroke="black" d="M198.5,-498.366C198.5,-490.152 198.5,-480.658 198.5,-471.725"/>
<polygon fill="black" stroke="black" points="202,-471.607 198.5,-461.607 195,-471.607 202,-471.607"/>
</g>
<!-- 2535700769648 -->
<g id="node10" class="node"><title>2535700769648</title>
<polygon fill="none" stroke="black" points="70,-332.5 70,-378.5 327,-378.5 327,-332.5 70,-332.5"/>
<text text-anchor="middle" x="122" y="-351.8" font-family="Times New Roman,serif" font-size="14.00">dense_1: Dense</text>
<polyline fill="none" stroke="black" points="174,-332.5 174,-378.5 "/>
<text text-anchor="middle" x="202" y="-363.3" font-family="Times New Roman,serif" font-size="14.00">input:</text>
<polyline fill="none" stroke="black" points="174,-355.5 230,-355.5 "/>
<text text-anchor="middle" x="202" y="-340.3" font-family="Times New Roman,serif" font-size="14.00">output:</text>
<polyline fill="none" stroke="black" points="230,-332.5 230,-378.5 "/>
<text text-anchor="middle" x="278.5" y="-363.3" font-family="Times New Roman,serif" font-size="14.00">(None, 57600)</text>
<polyline fill="none" stroke="black" points="230,-355.5 327,-355.5 "/>
<text text-anchor="middle" x="278.5" y="-340.3" font-family="Times New Roman,serif" font-size="14.00">(None, 128)</text>
</g>
<!-- 2535700141728&#45;&gt;2535700769648 -->
<g id="edge10" class="edge"><title>2535700141728&#45;&gt;2535700769648</title>
<path fill="none" stroke="black" d="M198.5,-415.366C198.5,-407.152 198.5,-397.658 198.5,-388.725"/>
<polygon fill="black" stroke="black" points="202,-388.607 198.5,-378.607 195,-388.607 202,-388.607"/>
</g>
<!-- 2535700860488 -->
<g id="node11" class="node"><title>2535700860488</title>
<polygon fill="none" stroke="black" points="64,-249.5 64,-295.5 333,-295.5 333,-249.5 64,-249.5"/>
<text text-anchor="middle" x="129" y="-268.8" font-family="Times New Roman,serif" font-size="14.00">dropout_1: Dropout</text>
<polyline fill="none" stroke="black" points="194,-249.5 194,-295.5 "/>
<text text-anchor="middle" x="222" y="-280.3" font-family="Times New Roman,serif" font-size="14.00">input:</text>
<polyline fill="none" stroke="black" points="194,-272.5 250,-272.5 "/>
<text text-anchor="middle" x="222" y="-257.3" font-family="Times New Roman,serif" font-size="14.00">output:</text>
<polyline fill="none" stroke="black" points="250,-249.5 250,-295.5 "/>
<text text-anchor="middle" x="291.5" y="-280.3" font-family="Times New Roman,serif" font-size="14.00">(None, 128)</text>
<polyline fill="none" stroke="black" points="250,-272.5 333,-272.5 "/>
<text text-anchor="middle" x="291.5" y="-257.3" font-family="Times New Roman,serif" font-size="14.00">(None, 128)</text>
</g>
<!-- 2535700769648&#45;&gt;2535700860488 -->
<g id="edge11" class="edge"><title>2535700769648&#45;&gt;2535700860488</title>
<path fill="none" stroke="black" d="M198.5,-332.366C198.5,-324.152 198.5,-314.658 198.5,-305.725"/>
<polygon fill="black" stroke="black" points="202,-305.607 198.5,-295.607 195,-305.607 202,-305.607"/>
</g>
<!-- 2535700859088 -->
<g id="node12" class="node"><title>2535700859088</title>
<polygon fill="none" stroke="black" points="77,-166.5 77,-212.5 320,-212.5 320,-166.5 77,-166.5"/>
<text text-anchor="middle" x="129" y="-185.8" font-family="Times New Roman,serif" font-size="14.00">dense_2: Dense</text>
<polyline fill="none" stroke="black" points="181,-166.5 181,-212.5 "/>
<text text-anchor="middle" x="209" y="-197.3" font-family="Times New Roman,serif" font-size="14.00">input:</text>
<polyline fill="none" stroke="black" points="181,-189.5 237,-189.5 "/>
<text text-anchor="middle" x="209" y="-174.3" font-family="Times New Roman,serif" font-size="14.00">output:</text>
<polyline fill="none" stroke="black" points="237,-166.5 237,-212.5 "/>
<text text-anchor="middle" x="278.5" y="-197.3" font-family="Times New Roman,serif" font-size="14.00">(None, 128)</text>
<polyline fill="none" stroke="black" points="237,-189.5 320,-189.5 "/>
<text text-anchor="middle" x="278.5" y="-174.3" font-family="Times New Roman,serif" font-size="14.00">(None, 128)</text>
</g>
<!-- 2535700860488&#45;&gt;2535700859088 -->
<g id="edge12" class="edge"><title>2535700860488&#45;&gt;2535700859088</title>
<path fill="none" stroke="black" d="M198.5,-249.366C198.5,-241.152 198.5,-231.658 198.5,-222.725"/>
<polygon fill="black" stroke="black" points="202,-222.607 198.5,-212.607 195,-222.607 202,-222.607"/>
</g>
<!-- 2535700692832 -->
<g id="node13" class="node"><title>2535700692832</title>
<polygon fill="none" stroke="black" points="64,-83.5 64,-129.5 333,-129.5 333,-83.5 64,-83.5"/>
<text text-anchor="middle" x="129" y="-102.8" font-family="Times New Roman,serif" font-size="14.00">dropout_2: Dropout</text>
<polyline fill="none" stroke="black" points="194,-83.5 194,-129.5 "/>
<text text-anchor="middle" x="222" y="-114.3" font-family="Times New Roman,serif" font-size="14.00">input:</text>
<polyline fill="none" stroke="black" points="194,-106.5 250,-106.5 "/>
<text text-anchor="middle" x="222" y="-91.3" font-family="Times New Roman,serif" font-size="14.00">output:</text>
<polyline fill="none" stroke="black" points="250,-83.5 250,-129.5 "/>
<text text-anchor="middle" x="291.5" y="-114.3" font-family="Times New Roman,serif" font-size="14.00">(None, 128)</text>
<polyline fill="none" stroke="black" points="250,-106.5 333,-106.5 "/>
<text text-anchor="middle" x="291.5" y="-91.3" font-family="Times New Roman,serif" font-size="14.00">(None, 128)</text>
</g>
<!-- 2535700859088&#45;&gt;2535700692832 -->
<g id="edge13" class="edge"><title>2535700859088&#45;&gt;2535700692832</title>
<path fill="none" stroke="black" d="M198.5,-166.366C198.5,-158.152 198.5,-148.658 198.5,-139.725"/>
<polygon fill="black" stroke="black" points="202,-139.607 198.5,-129.607 195,-139.607 202,-139.607"/>
</g>
<!-- 2535198553200 -->
<g id="node14" class="node"><title>2535198553200</title>
<polygon fill="none" stroke="black" points="77,-0.5 77,-46.5 320,-46.5 320,-0.5 77,-0.5"/>
<text text-anchor="middle" x="129" y="-19.8" font-family="Times New Roman,serif" font-size="14.00">dense_3: Dense</text>
<polyline fill="none" stroke="black" points="181,-0.5 181,-46.5 "/>
<text text-anchor="middle" x="209" y="-31.3" font-family="Times New Roman,serif" font-size="14.00">input:</text>
<polyline fill="none" stroke="black" points="181,-23.5 237,-23.5 "/>
<text text-anchor="middle" x="209" y="-8.3" font-family="Times New Roman,serif" font-size="14.00">output:</text>
<polyline fill="none" stroke="black" points="237,-0.5 237,-46.5 "/>
<text text-anchor="middle" x="278.5" y="-31.3" font-family="Times New Roman,serif" font-size="14.00">(None, 128)</text>
<polyline fill="none" stroke="black" points="237,-23.5 320,-23.5 "/>
<text text-anchor="middle" x="278.5" y="-8.3" font-family="Times New Roman,serif" font-size="14.00">(None, 1)</text>
</g>
<!-- 2535700692832&#45;&gt;2535198553200 -->
<g id="edge14" class="edge"><title>2535700692832&#45;&gt;2535198553200</title>
<path fill="none" stroke="black" d="M198.5,-83.3664C198.5,-75.1516 198.5,-65.6579 198.5,-56.7252"/>
<polygon fill="black" stroke="black" points="202,-56.6068 198.5,-46.6068 195,-56.6069 202,-56.6068"/>
</g>
<!-- 2535700140496 -->
<g id="node15" class="node"><title>2535700140496</title>
<polygon fill="none" stroke="black" points="146.5,-1162.5 146.5,-1198.5 250.5,-1198.5 250.5,-1162.5 146.5,-1162.5"/>
<text text-anchor="middle" x="198.5" y="-1176.8" font-family="Times New Roman,serif" font-size="14.00">2535700140496</text>
</g>
<!-- 2535700140496&#45;&gt;2535700140440 -->
<g id="edge1" class="edge"><title>2535700140496&#45;&gt;2535700140440</title>
<path fill="none" stroke="black" d="M198.5,-1162.25C198.5,-1154.36 198.5,-1144.75 198.5,-1135.6"/>
<polygon fill="black" stroke="black" points="202,-1135.59 198.5,-1125.59 195,-1135.59 202,-1135.59"/>
</g>
</g>
</svg>
